<?xml version="1.0" encoding="UTF-8" standalone="no"?>
<!-- Created with Inkscape (http://www.inkscape.org/) -->

<svg
   xmlns:dc="http://purl.org/dc/elements/1.1/"
   xmlns:cc="http://creativecommons.org/ns#"
   xmlns:rdf="http://www.w3.org/1999/02/22-rdf-syntax-ns#"
   xmlns:svg="http://www.w3.org/2000/svg"
   xmlns="http://www.w3.org/2000/svg"
   xmlns:sodipodi="http://sodipodi.sourceforge.net/DTD/sodipodi-0.dtd"
   xmlns:inkscape="http://www.inkscape.org/namespaces/inkscape"
   width="53.201378mm"
   height="32.435516mm"
   viewBox="0 0 53.201378 32.435516"
   version="1.1"
   id="svg858"
   inkscape:version="0.92.3 (2405546, 2018-03-11)"
   sodipodi:docname="buzz-wire.svg">
  <defs
     id="defs852" />
  <sodipodi:namedview
     id="base"
     pagecolor="#ffffff"
     bordercolor="#666666"
     borderopacity="1.0"
     inkscape:pageopacity="0.0"
     inkscape:pageshadow="2"
     inkscape:zoom="1.979899"
     inkscape:cx="36.727159"
     inkscape:cy="-20.867834"
     inkscape:document-units="mm"
     inkscape:current-layer="layer1"
     showgrid="false"
     inkscape:window-width="1853"
     inkscape:window-height="1025"
     inkscape:window-x="67"
     inkscape:window-y="27"
     inkscape:window-maximized="1"
     fit-margin-top="0"
     fit-margin-left="0"
     fit-margin-right="0"
     fit-margin-bottom="0" />
  <metadata
     id="metadata855">
    <rdf:RDF>
      <cc:Work
         rdf:about="">
        <dc:format>image/svg+xml</dc:format>
        <dc:type
           rdf:resource="http://purl.org/dc/dcmitype/StillImage" />
        <dc:title />
      </cc:Work>
    </rdf:RDF>
  </metadata>
  <g
     inkscape:label="Layer 1"
     inkscape:groupmode="layer"
     id="layer1"
     transform="translate(-2.9188646,-260.52246)">
    <g
       aria-label="Buzzzz!"
       style="font-style:normal;font-variant:normal;font-weight:bold;font-stretch:normal;font-size:10.58333302px;line-height:1.25;font-family:sans-serif;-inkscape-font-specification:'sans-serif Bold';letter-spacing:0px;word-spacing:0px;fill:#008000;fill-opacity:1;stroke:none;stroke-width:0.26458332"
       id="text1433"
       transform="rotate(-23.032339,17.014006,291.06791)">
      <path
         d="m 12.079853,276.90363 q 0.470255,0 0.713135,-0.20671 0.242879,-0.20671 0.242879,-0.60978 0,-0.39791 -0.242879,-0.60462 -0.24288,-0.21187 -0.713135,-0.21187 h -1.100708 v 1.63298 z m 0.06718,3.37447 q 0.599447,0 0.89917,-0.25322 0.304891,-0.25321 0.304891,-0.76481 0,-0.50126 -0.299723,-0.74931 -0.299723,-0.25321 -0.904338,-0.25321 h -1.167887 v 2.02055 z m 1.850017,-2.77503 q 0.640787,0.18604 0.992187,0.6873 0.3514,0.50126 0.3514,1.2299 0,1.11621 -0.754476,1.66398 -0.754476,0.54777 -2.294434,0.54777 H 8.9896024 v -7.71529 H 11.9765 q 1.607137,0 2.325439,0.48576 0.72347,0.48575 0.72347,1.55546 0,0.56327 -0.263549,0.96118 -0.26355,0.39274 -0.76481,0.58394 z"
         style="font-style:normal;font-variant:normal;font-weight:bold;font-stretch:normal;font-family:sans-serif;-inkscape-font-specification:'sans-serif Bold';fill:#008000;fill-opacity:1;stroke:none;stroke-width:0.26458332"
         id="path1435"
         inkscape:connector-curvature="0" />
      <path
         d="m 16.906432,279.37893 v -3.53467 h 1.860351 v 0.57877 q 0,0.47026 -0.0052,1.1834 -0.0052,0.70796 -0.0052,0.94567 0,0.69764 0.03617,1.00769 0.03617,0.3049 0.124023,0.44442 0.113688,0.18087 0.294556,0.27905 0.186035,0.0982 0.423746,0.0982 0.578776,0 0.909506,-0.44442 0.330729,-0.44442 0.330729,-1.23506 v -2.85771 h 1.850016 v 5.78776 h -1.850016 v -0.83716 q -0.418579,0.50643 -0.888835,0.74931 -0.465088,0.23771 -1.028361,0.23771 -1.002523,0 -1.529622,-0.61495 -0.521932,-0.61495 -0.521932,-1.788 z"
         style="font-style:normal;font-variant:normal;font-weight:bold;font-stretch:normal;font-family:sans-serif;-inkscape-font-specification:'sans-serif Bold';fill:#008000;fill-opacity:1;stroke:none;stroke-width:0.26458332"
         id="path1437"
         inkscape:connector-curvature="0" />
      <path
         d="m 24.228982,275.84426 h 5.048787 v 1.29191 l -3.048909,3.17293 h 3.048909 v 1.32292 h -5.177978 v -1.29191 l 3.048909,-3.17293 h -2.919718 z"
         style="font-style:normal;font-variant:normal;font-weight:bold;font-stretch:normal;font-family:sans-serif;-inkscape-font-specification:'sans-serif Bold';fill:#008000;fill-opacity:1;stroke:none;stroke-width:0.26458332"
         id="path1439"
         inkscape:connector-curvature="0" />
      <path
         d="M 30.388813,275.84426 H 35.4376 v 1.29191 l -3.048909,3.17293 H 35.4376 v 1.32292 h -5.177978 v -1.29191 l 3.048909,-3.17293 h -2.919718 z"
         style="font-style:normal;font-variant:normal;font-weight:bold;font-stretch:normal;font-family:sans-serif;-inkscape-font-specification:'sans-serif Bold';fill:#008000;fill-opacity:1;stroke:none;stroke-width:0.26458332"
         id="path1441"
         inkscape:connector-curvature="0" />
      <path
         d="m 36.548643,275.84426 h 5.048787 v 1.29191 l -3.048909,3.17293 h 3.048909 v 1.32292 h -5.177978 v -1.29191 l 3.048909,-3.17293 h -2.919718 z"
         style="font-style:normal;font-variant:normal;font-weight:bold;font-stretch:normal;font-family:sans-serif;-inkscape-font-specification:'sans-serif Bold';fill:#008000;fill-opacity:1;stroke:none;stroke-width:0.26458332"
         id="path1443"
         inkscape:connector-curvature="0" />
      <path
         d="m 42.708473,275.84426 h 5.048787 v 1.29191 l -3.048909,3.17293 h 3.048909 v 1.32292 h -5.177978 v -1.29191 l 3.04891,-3.17293 h -2.919719 z"
         style="font-style:normal;font-variant:normal;font-weight:bold;font-stretch:normal;font-family:sans-serif;-inkscape-font-specification:'sans-serif Bold';fill:#008000;fill-opacity:1;stroke:none;stroke-width:0.26458332"
         id="path1445"
         inkscape:connector-curvature="0" />
      <path
         d="m 49.746805,273.91673 h 1.860351 v 2.96106 l -0.26355,2.16007 h -1.333252 l -0.263549,-2.16007 z m 0,5.87561 h 1.860351 v 1.83968 h -1.860351 z"
         style="font-style:normal;font-variant:normal;font-weight:bold;font-stretch:normal;font-family:sans-serif;-inkscape-font-specification:'sans-serif Bold';fill:#008000;fill-opacity:1;stroke:none;stroke-width:0.26458332"
         id="path1447"
         inkscape:connector-curvature="0" />
    </g>
    <path
       style="fill:none;stroke:#000000;stroke-width:0.5;stroke-linecap:butt;stroke-linejoin:miter;stroke-miterlimit:4;stroke-dasharray:none;stroke-opacity:1"
       d="m 9.8889727,292.85732 c 0,0 -11.2719955,-25.62791 -2.2717914,-30.20145 2.8170127,-1.43149 6.4545547,3.08051 7.2162767,6.14719 1.042263,4.19613 0.589197,11.94376 4.543582,11.35896 4.271544,-0.63171 7.026551,-4.44581 5.612661,-7.48355 -3.248502,-6.9794 -9.193248,-12.90522 1.202712,-11.75985 4.585017,0.50515 6.207105,6.60703 7.216278,10.82441 1.054376,4.40628 -5.632207,11.42406 -1.603619,13.49711 3.588883,1.84679 7.858629,-4.26689 8.953531,-8.15172 1.47229,-5.22385 -12.456439,-12.39641 -4.543584,-15.63526 4.096495,-1.67675 8.937394,5.02657 10.352899,9.87092 m 0.09424,0.82727 c 0.870047,7.84338 -12.184387,20.57234 -12.184387,20.57234"
       id="path1405"
       inkscape:connector-curvature="0"
       sodipodi:nodetypes="cassssaaasccc" />
    <path
       transform="rotate(30.70737)"
       style="fill:none;fill-opacity:1;stroke:#000000;stroke-width:0.5;stroke-linecap:butt;stroke-linejoin:miter;stroke-miterlimit:4;stroke-dasharray:none;stroke-opacity:1"
       d="m 176.39724,207.24151 c 0.33048,-0.52921 0.91815,-0.8813 1.58805,-0.8813 1.03326,0 1.87089,0.83762 1.87089,1.87088 0,1.03326 -0.83763,1.87089 -1.87089,1.87089 -1.03326,0 -1.87027,-0.97538 -1.87027,-2.00864"
       id="path1407"
       inkscape:connector-curvature="0"
       sodipodi:nodetypes="ccccc" />
    <path
       style="fill:none;stroke:#000000;stroke-width:2;stroke-linecap:butt;stroke-linejoin:miter;stroke-miterlimit:4;stroke-dasharray:none;stroke-opacity:1"
       d="m 48.198707,270.7204 7.410881,4.40155"
       id="path1409"
       inkscape:connector-curvature="0" />
  </g>
</svg>
