<?xml version="1.0" encoding="UTF-8" standalone="no"?>
<svg
   xmlns:dc="http://purl.org/dc/elements/1.1/"
   xmlns:cc="http://creativecommons.org/ns#"
   xmlns:rdf="http://www.w3.org/1999/02/22-rdf-syntax-ns#"
   xmlns:svg="http://www.w3.org/2000/svg"
   xmlns="http://www.w3.org/2000/svg"
   xmlns:sodipodi="http://sodipodi.sourceforge.net/DTD/sodipodi-0.dtd"
   xmlns:inkscape="http://www.inkscape.org/namespaces/inkscape"
   viewBox="0 0 793.71 800"
   version="1.1"
   id="svg4"
   sodipodi:docname="uncle-sam.svg"
   inkscape:version="0.92.3 (2405546, 2018-03-11)">
  <metadata
     id="metadata10">
    <rdf:RDF>
      <cc:Work
         rdf:about="">
        <dc:format>image/svg+xml</dc:format>
        <dc:type
           rdf:resource="http://purl.org/dc/dcmitype/StillImage" />
      </cc:Work>
    </rdf:RDF>
  </metadata>
  <defs
     id="defs8" />
  <sodipodi:namedview
     pagecolor="#ffffff"
     bordercolor="#666666"
     borderopacity="1"
     objecttolerance="10"
     gridtolerance="10"
     guidetolerance="10"
     inkscape:pageopacity="0"
     inkscape:pageshadow="2"
     inkscape:window-width="738"
     inkscape:window-height="480"
     id="namedview6"
     showgrid="false"
     inkscape:zoom="0.295"
     inkscape:cx="-38.738209"
     inkscape:cy="400"
     inkscape:window-x="67"
     inkscape:window-y="27"
     inkscape:window-maximized="0"
     inkscape:current-layer="svg4" />
  <path
     d="m29.717 739.12c-12.957-0.26819-17.013-0.66492-17.564-1.7176-0.351-0.67023-0.7792-3.2888-1.8214-11.137-0.4113-3.0973-1.1276-7.5142-1.5918-9.8154-1.1033-5.4692-1.0724-6.8463 0.234-10.426 1.8815-5.1553 4.5508-17.473 4.6049-21.25 0.0148-1.026-0.5107-3.8126-1.2219-6.4792-1.6163-6.0613-1.8843-9.1539-1.1661-13.457 0.306-1.8337 0.9547-7.6103 1.4416-12.837 0.4868-5.2266 1.1537-12.275 1.482-15.662l0.597-6.1594 6.1027-10.734c3.3565-5.9039 6.439-11.606 6.85-12.671 0.5664-1.4674 0.7418-2.6784 0.7245-5.0013-0.043901-5.8863-1.5492-10.797-6.2036-20.238-4.2749-8.6708-5.508-12.245-5.752-16.675-0.3807-6.9076 1.7777-10.774 9.1467-16.387 1.8861-1.4365 3.7667-3.0681 4.179-3.6258 0.4827-0.65302 1.2851-1.1487 2.2539-1.3927 1.1421-0.2876 1.8599-0.80359 2.9811-2.1426 1.013-1.2099 1.74-1.7639 2.3149-1.7639 0.9602 0 1.6447-1.0902 2.2877-3.6438 0.4758-1.8897 0.1992-2.8224-1.6533-5.5753-1.5524-2.3068-2.4744-4.9302-2.76-7.8527-0.3655-3.7408-1.3859-7.1216-4.027-13.342-3.3713-7.9403-4.4293-11.858-5.3313-19.741-0.676-5.9069-0.6128-10.334 0.1701-11.917 1.556-3.1467 7.7866-8.6731 9.7782-8.6731 1.4168 0 2.6046-2.9855 2.2167-5.5717-0.1882-1.2552-0.5656-1.9081-1.7915-3.0996-0.8542-0.83017-1.5531-1.8127-1.5531-2.1834 0-0.96283 0.8947-1.5808 1.9172-1.3242 2.0228 0.50772 1.8894-3.3717-0.2066-6.0092-0.9113-1.1468-1.0251-1.5437-0.9342-3.2586 0.090801-1.7126 0.2172-2.0071 1.0281-2.3943 1.3736-0.65588 1.8315-2.1338 1.6386-5.2895-0.1338-2.191-0.3887-3.1425-1.3059-4.8751-0.7684-1.4518-1.2018-2.8393-1.3307-4.2613-0.1682-1.8547-0.075897-2.3053 0.7667-3.743 0.9042-1.5429 0.9759-1.9946 1.2797-8.0575 0.6079-12.131 0.9781-14.825 2.8198-20.528 1.4815-4.5872 3.2363-7.7979 8.3165-15.216 5.7424-8.3855 6.519-9.2205 8.57-9.2136 4.0483 0.01358 8.6132 1.8454 11.405 4.5769 3.3658 3.2926 5.4948 3.3925 8.5652 0.40186 2.8825-2.8076 4.3791-5.8549 3.2256-6.5678-0.1936-0.11963-0.3519-0.44763-0.3519-0.72885 0-0.39828 0.3071-0.46222 1.389-0.28925 1.745 0.27908 4.2578-0.84476 9.5218-4.2586 6.4951-4.2122 12.965-7.1907 22.065-10.158 6.1563-2.0076 9.9126-2.9438 19.991-4.9824 11.29-2.2838 15.667-3.7747 15.667-5.337 0-0.19672-0.3336-0.65939-0.74141-1.0282-2.6884-2.4313-4.6092-13.001-3.5099-19.313 0.9653-5.5431 4.1445-13.546 6.4854-16.326 0.7096-0.84259 1.3756-1.9513 1.4799-2.4638 0.5204-2.5571 0.97681-3.6429 2.0931-4.979 1.4279-1.7091 2.0556-3.7085 1.7421-5.549-0.12311-0.72305-0.9218-2.5385-1.7748-4.0343-1.6332-2.864-1.8294-3.5752-1.1109-4.0264 0.24199-0.15198 2.6969-0.23029 5.4555-0.17404 3.0955 0.06311 5.0154-0.029175 5.0154-0.24115 0-0.58197-2.0365-2.0933-3.1503-2.338-0.59291-0.13025-1.606-0.032715-2.3118 0.2225-2.0876 0.75491-2.4753 0.23367-2.3631-3.1774 0.051697-1.571 0.003708-2.8563-0.1066-2.8563-0.1104 0-0.7834 0.39597-1.4956 0.87991-1.3469 0.91525-2.5393 1.1521-2.5393 0.50446 0-0.20651 0.4303-0.93967 0.9563-1.6293 0.78819-1.0334 0.9584-1.6222 0.9679-3.3499 0.0103-1.8673-0.096191-2.1889-0.976-2.9463-2.797-2.4079-8.7942 0.3335-10.838 4.9544-1.7575 3.9732-1.0502 6.1427 2.4612 7.5489 1.2376 0.49564 2.4844 1.2575 2.7707 1.6931 0.49629 0.75534 0.46199 0.81632-0.7431 1.3199-0.92641 0.38708-2.6281 0.52792-6.3783 0.52792-5.7325 0-5.3795 0.21301-4.7226-2.85 0.4738-2.2092 0.064804-3.8946-1.3003-5.3578-0.8184-0.87735-1.0886-0.96509-2.3266-0.75592-1.3787 0.23291-1.3988 0.22089-1.2827-0.76727 0.1176-1.0021 0.1142-1.0039-1.9241-1.0039-2.4724 0-2.7431-0.27948-4.812-4.9676-2.0931-4.7428-2.1067-4.9802-0.44759-7.7862 0.7742-1.3094 1.8964-3.3544 2.4938-4.5446 1.037-2.066 2.4984-3.6434 3.3756-3.6434 0.2247 0 1.5892-0.73392 3.0322-1.6309 3.6426-2.2644 5.2364-2.9224 6.9167-2.8554 1.1007 0.0439 1.8976-0.22647 3.3285-1.1292 3.7992-2.3968 4.9049-2.8892 7.2243-3.2177 4.605-0.65214 6.4091-2.3984 10.328-9.9969l2.5415-4.9275-4.4476 4.6378c-2.4462 2.5508-5.0009 4.9797-5.6771 5.3976-1.0193 0.62996-2.5977 0.90428-9.2343 1.6048-4.4026 0.46471-9.0656 1.0847-10.362 1.3777-3.513 0.79396-3.8275 0.74791-3.5733-0.52315 0.1828-0.91376 0.10829-1.0559-0.5527-1.0559-2.0423 0-3.2859-3.3772-2.4802-6.7357 0.58-2.4178 3.1624-5.1827 6.4491-6.9051 2.3774-1.2459 2.5115-1.3809 2.4607-2.478-0.1073-2.3206-3.6092-5.7812-8.7967-8.693-3.6878-2.07-4.8076-2.9904-5.8116-4.7766-0.6178-1.0993-0.9822-1.3844-1.7691-1.3844-0.735 0-0.9911-0.17081-0.9911-0.66095 0-1.3476-1.0924-3.1734-4.7685-7.9705-2.0733-2.7056-4.1485-5.7629-4.6116-6.794-0.463-1.0312-1.6071-3.011-2.5424-4.3996-2.5237-3.7468-2.9451-4.7346-3.2212-7.5498-0.154-1.5713-0.4729-2.8065-0.8249-3.1954-0.9384-1.0369-0.6819-2.015 0.8788-3.3509 1.7862-1.5289 6.0453-3.7505 9.1064-4.75 5.2295-1.7076 17.387-3.9463 26.045-4.7962 4.3643-0.42842 5.5575-1.2902 3.8838-2.8048-2.7733-2.5099-29.37 1.2186-37.204 5.2155-3.0324 1.547-3.9682 2.9278-4.6929 6.9238-0.6661 3.6737-1.6389 4.4993-2.5673 2.179-1.7117-4.278-1.0519-6.4251 2.8477-9.2668 1.492-1.0872 3.0764-2.1658 3.5209-2.3968 1.5986-0.83098 7.7242-2.9247 12.038-4.1148 15.884-4.3815 18.983-4.3492 43.116 0.44949 5.5689 1.1074 9.3034 1.6575 11.967 1.7629 5.6627 0.22412 6.1744-0.57083 1.7809-2.7667-3.5213-1.7599-4.4206-2.5844-4.4206-4.0527 0-2.3491 3.0152-5.0743 6.1594-5.567 1.162-0.18211 2.0917 0.055069 5.3249 1.3587 4.7992 1.9349 5.674 2.3814 6.9041 3.5233 0.85129 0.79031 0.92209 1.0142 0.595 1.8832-0.51981 1.3812-2.6057 3.4346-4.2353 4.1695-0.7554 0.34065-1.3735 0.73734-1.3735 0.88152 0 0.1442 1.3859 0.45104 3.0797 0.68188 3.3279 0.45355 6.9107 1.2721 7.911 1.8074 1.0426 0.55798 0.7263 1.3141-0.6584 1.5739-0.70531 0.13234-4.5461 0.16946-8.5351 0.082504-7.3282-0.15973-8.4845-0.10757-8.4845 0.38281 0 0.29239 2.9753 1.2208 5.8074 1.8121 0.9679 0.20209 6.2738 1.8513 11.791 3.6649 14.078 4.6279 20.313 5.9158 31.501 6.5064 9.5392 0.50359 32.848-0.53253 55.434-2.4642 14.205-1.2148 20.797-2.1862 38.364-5.653 27.69-5.4646 45.972-9.8924 65.993-15.983 4.0651-1.2367 12.064-3.5929 17.774-5.2361 15.132-4.3539 23.434-7.4086 25.557-9.4036 0.41681-0.39157 1.6871-0.95378 2.8228-1.2493 5.7925-1.5074 12.32-5.7978 19.911-13.087 3.4685-3.3306 5.7138-6.1223 6.042-7.5124 0.29779-1.2617 1.1948-1.4801 3.2586-0.79345 3.2527 1.0822 9.4597 5.1654 9.1356 6.0099-0.10251 0.26712-0.035278 0.88309 0.14941 1.3688 0.27499 0.72318 0.19348 1.0125-0.4498 1.5971-0.4321 0.39267-1.0525 0.96101-1.3786 1.263-0.32611 0.30196-1.9892 3.1039-3.6956 6.2265-1.7065 3.1226-3.8627 6.6881-4.7917 7.9232-0.92902 1.2351-1.6168 2.3179-1.5286 2.4062 0.3168 0.31682 2.2884-0.95407 4.2229-2.7221 3.5291-3.2253 7.9698-9.4111 7.9698-11.102 0-0.81851 0.60461-1.2022 1.8942-1.2022 3.9782 0 0.8128 7.2123-10.85 24.721l-1.345 2.0191 1.6278 1.9054c3.443 4.03 7.3548 6.5511 10.165 6.5511 3.2125 0 3.4742-1.8189 1.0369-7.2059-1.7421-3.8504-1.6085-4.2308 1.3914-3.9588 2.5466 0.23093 5.5161 1.7841 8.674 4.537 1.3001 1.1333 2.8715 2.387 3.4921 2.7859 0.62051 0.39888 1.2299 1.0455 1.3541 1.437 0.1243 0.39143 0.84689 1.5982 1.6059 2.6817 1.3865 1.9792 2.4212 4.7039 2.4252 6.3864 0.00119 0.49721 0.6243 2.721 1.3846 4.9417 1.0945 3.1966 1.6129 4.2258 2.4887 4.9405l1.1061 0.9028-0.6881 1.811c-1.5545 4.0912-7.5261 11.264-11.762 14.129l-1.6615 1.1236 1.0453-2.2096c2.0903-4.4185 0.9967-4.8921-3.7691-1.6321-1.4937 1.0218-2.9283 1.3245-2.9283 0.6179 0-0.21367 0.57629-1.4852 1.2807-2.8256 0.70428-1.3404 1.1781-2.5397 1.0528-2.665-0.30191-0.30179-6.7294 4.0618-9.0304 6.1306-0.99792 0.89719-1.9525 1.9947-2.1214 2.4389-0.46442 1.2214-2.8187 0.90471-4.1904-0.56366-1.2206-1.3067-3.575-2.4013-5.8294-2.7103l-1.6557-0.2269 0.2367 1.4008c0.34399 2.0362-0.1984 2.3583-2.8273 1.679-5.2539-1.3574-15.017-5.4844-20.355-8.6047-4.9816-2.9118-5.3467-2.8434-2.9765 0.5576 1.6712 2.3981 4.2978 5.4728 8.0247 9.3939 2.9511 3.1048 2.9534 3.585 0.018921 3.9775-2.2936 0.30679-3.2502-0.21092-4.5081-2.4397-0.6022-1.067-1.3126-2.0692-1.5787-2.2271-0.26602-0.1579-1.7137-1.9144-3.2171-3.9034-1.5033-1.989-3.0219-3.7708-3.3747-3.9596-1.0504-0.56215-1.7172-0.39473-1.9384 0.48665-0.30359 1.2093 0.53751 2.8739 2.9594 5.8574 1.1786 1.4518 2.0956 2.7981 2.0378 2.9917-0.2435 0.81517-1.8824 0.53355-3.2371-0.55624-0.7641-0.61466-1.9225-1.3447-2.5742-1.6224-2.2089-0.94107-2.937 0.22932-1.1028 1.7727 1.2841 1.0805 1.3091 1.4223 0.176 2.4076-0.48401 0.42079-0.87988 1.0755-0.87988 1.455 0 0.89226 1.2593 3.4071 2.3301 4.6533 0.57712 0.67154 0.83749 1.4083 0.83749 2.3688 0 1.2209-0.087494 1.3713-0.70389 1.2101-0.83411-0.21811-0.85721 0.043137-0.21091 2.3897 1.5615 5.6704 5.9366 15.009 8.906 19.011 2.8014 3.7751 7.095 7.9722 8.0199 7.8396 0.4426-0.063446 0.98932-0.69394 1.4613-1.6852 0.7572-1.5902 2.7572-9.7483 3.8397-15.662 0.89981-4.9152 1.9205-6.8633 3.5963-6.8633 0.603 0 1.7032 0.81488 3.6239 2.684 3.1054 3.022 4.0554 3.2576 3.7212 0.92287-0.51059-3.5669-0.6051-5.3667-0.28171-5.3667 0.68832 0 3.8441 2.7823 5.1066 4.5022 4.0403 5.5039 5.102 13.501 2.8369 21.367-0.9274 3.2204-1.8777 4.4632-4.3776 5.7245-3.0762 1.5521-5.5678 1.9783-11.604 1.9848-5.932 0.006424-7.7432-0.47542-7.7432-2.0599 0-0.9315-0.44348-1.4666-2.5603-3.0887-0.68832-0.52745-2.5149-2.5864-4.0592-4.5755s-3.1987-3.9798-3.6765-4.4237l-0.8688-0.8072-0.3999 0.9832c-0.22 0.54074-0.79327 2.7752-1.2741 4.9654-0.9339 4.2538-0.99701 4.4293-1.9939 5.5412-1.4652 1.6342-4.094 11.681-4.4357 16.952-0.18433 2.8426-0.17203 2.8997 0.69809 3.2305 1.0513 0.39972 1.5769 1.7226 1.887 4.7497 0.20291 1.98 0.074402 2.6198-1.3889 6.9167-1.912 5.6146-2.7959 10.066-3.5613 17.934-1.54 15.832-2.2018 20.007-4.0838 25.766-1.3495 4.1297-3.7135 9.1296-6.0067 12.704-3.7896 5.9077-4.5405 9.1154-3.8915 16.625 0.4335 5.0169 0.7056 5.581 2.8568 5.925 0.74222 0.11868 1.7044 0.50314 2.1381 0.85431 0.67658 0.54788 0.75369 0.84424 0.54358 2.0878-0.80139 4.7435-7.9516 14.569-11.994 16.481-1.368 0.64712-2.2247 1.4318-3.6513 3.3443-1.7514 2.348-3.9695 5.0714-5.678 6.9715-0.94952 1.0559-1.5782 0.5752-1.0533-0.80539 0.4567-1.2011 0.23279-1.6038-0.74881-1.3471-0.69678 0.18222-0.73978 0.10052-0.52689-1.0009 0.1275-0.65964 1.497-3.8127 3.0433-7.0067 3.4585-7.1442 3.7974-8.4647 3.1839-12.408-0.3537-2.2734-0.36661-3.5819-0.058014-5.8748 0.36142-2.6857 0.7558-3.6782 4.4009-11.075 4.6308-9.3975 5.8952-12.435 6.0926-14.637l0.1421-1.5838-0.527 1.1439c-0.54309 1.1787-1.4951 1.5188-1.8275 0.6528-0.10358-0.27011 0.39951-1.8936 1.118-3.6076 0.71851-1.7141 2.0358-5.3339 2.9272-8.044 1.6288-4.9518 2.3855-6.0267 2.8518-4.0512 0.35782 1.5155 0.68231 0.25592 1.0627-4.1252 0.2511-2.8913 0.2522-5.1891 0.003693-7.3429-0.3483-3.0191-1.6467-9.9927-1.9095-10.256-0.1492-0.1492-2.588 5.593-2.8951 6.8166-0.11481 0.45761-0.40851 0.83203-0.65262 0.83203-0.5065 0-0.87567-1.8267-0.88928-4.3995-0.014191-2.7071-0.4476-3.0293-1.6062-1.1942-1.3702 2.1703-3.1203 6.1055-4.5773 10.292-1.4126 4.0593-2.4443 5.981-4.563 8.4998-2.005 2.3836-2.5512 3.5591-3.3463 7.2022-0.8859 4.0588-1.1841 4.7881-2.242 5.4812-1.2016 0.78732-2.6554 0.41412-4.189-1.0753-2.9061-2.8223-2.6724-5.7052 0.9393-11.587 0.70608-1.1501 1.2839-2.2984 1.2839-2.5518 0-0.76907-0.66071-0.52014-1.6966 0.63925-2.5998 2.9097-5.8222-0.5679-3.9417-4.2539l0.7581-1.486-1.4315-1.3215c-0.78729-0.72684-1.4294-1.5438-1.4269-1.8155 0.002411-0.27173 0.31921-1.498 0.70392-2.7252 1.1956-3.8142 0.87738-4.654-1.513-3.994-1.5612 0.43109-2.1755 0.064362-1.8779-1.1212 0.2876-1.1459 2.8995-4.333 4.1652-5.0823 0.9039-0.53516 0.99899-0.5238 1.7825 0.21222 1.0473 0.9838 2.0702 0.98959 2.9275 0.016571 1.2008-1.3628 6.9947-4.9415 7.1118-4.3927 0.058197 0.27298-0.2189 1.7686-0.61591 3.3236-0.8595 3.366-0.9184 4.6458-0.2139 4.6458 0.68491 0 1.5395-1.279 1.9989-2.9917 0.45969-1.7138 0.8971-2.2878 1.7432-2.2878 0.35431 0 1.1434-0.62118 1.7535-1.3804 0.6102-0.75922 1.5687-1.5707 2.13-1.8032 2.2816-0.94507 5.2941-6.016 5.9432-10.004 0.19681-1.2091 0.63-2.3714 1.051-2.8195 0.6008-0.63956 0.77918-1.5524 1.107-5.6642 0.56369-7.0724 0.26459-14.105-0.6814-16.017-0.86172-1.7416-0.67352-2.3209 1.5776-4.8576 1.0286-1.1592 1.7033-1.5898 2.7601-1.7616 2.0101-0.32674 2.3916-1.3276 2.5636-6.7274 0.098511-3.0903-0.027191-5.2752-0.4223-7.3421-1.1498-6.0137-0.65939-7.8799 1.9775-7.5263l1.441 0.1933-0.2219-1.3735c-0.3223-1.9952-2.4614-6.1106-3.8983-7.5-1.0083-0.97499-1.3355-1.1197-1.7514-0.77448-0.5759 0.47801-1.1421 2.7079-1.484 5.845-0.26752 2.4547-0.9765 4.3996-1.6038 4.3996-0.24118 0-0.88388-0.42659-1.4281-0.94798-1.1928-1.1427-1.4819-0.91444-2.0032 1.5812-0.54578 2.6132-0.4848 5.8487 0.1384 7.3402 0.2904 0.69495 0.52802 1.4518 0.52802 1.6819 0 0.23009-0.9899 0.6999-2.1998 1.044-3.424 0.97388-3.2475 0.88841-2.7866 1.3493 1.0815 1.0815 0.45499 1.9584-3.9007 5.4603-3.4619 2.7833-4.6931 4.027-6.2474 6.3113-2.5844 3.7981-4.5896 6.1187-6.3284 7.3237l-1.4357 0.9949-0.7072-0.759c-0.93851-1.0074-1.7171-0.95709-3.2312 0.20883-1.4932 1.1499-2.376 2.5176-2.376 3.6809 0 1.4592-4.5707 4.9999-5.393 4.1776-0.5105-0.5105 0.72018-3.6491 2.2387-5.7093 0.76422-1.0369 1.6555-2.4396 1.9805-3.1171 1.3807-2.8778 0.82651-9.9044-0.91879-11.65-0.81491-0.81491-1.3438-0.9816-3.7398-1.1787-3.6667-0.30158-4.4534-0.48509-4.2834-0.99919 0.15948-0.48201 0.73041-0.79587 4.5184-2.4836 3.2949-1.4681 5.1577-3.1097 6.6008-5.8173 1.616-3.032 1.5145-3.6735-0.75079-4.7452-3.7255-1.7624-4.7287-1.5684-3.2393 0.62634 1.1491 1.6934 1.1062 1.9619-0.314 1.9619-1.5565 0-3.3704 0.77948-5.3753 2.3098-2.6062 1.9893-3.792 2.3606-6.8104 2.1322-5.1715-0.39128-9.7484-2.2369-10.743-4.3319-0.5863-1.2356-1.2242-1.2731-1.2242-0.071915 0 1.093 0.9928 2.7512 2.8097 4.6929 3.7401 3.9968 5.0125 6.3793 4.414 8.2648-0.3169 0.99855-1.7201 1.6656-4.5348 2.1558-1.2932 0.2252-2.7044 0.69981-3.136 1.0547-0.73669 0.60565-0.75198 0.7052-0.24908 1.6242 0.74298 1.3579 3.5407 2.9985 5.9187 3.4709 1.8764 0.37274 1.9991 0.46033 2.102 1.5005 0.20792 2.1006 4.9947 5.5651 8.6321 6.2475 2.2047 0.4136 2.5631 1.6554 0.8093 2.8045-0.82129 0.53812-1.0469 0.51092-4.0153-0.48358-3.4002-1.1392-16.203-7.0482-18.655-8.6102l-1.5048-0.9585 0.8888-1.5167c0.48889-0.8342 0.88888-1.7651 0.88888-2.0687s-0.7731-1.1074-1.7179-1.7861c-4.4903-3.226-6.342-3.1386-5.382 0.25407 0.2244 0.79309 0.59268 3.5907 0.8183 6.217l0.4103 4.7751-0.936 1.9785c-0.51471 1.0882-0.9397 2.4239-0.9443 2.9682-0.014709 1.7233-0.6105 3.665-1.2804 4.1726-0.3559 0.26965-1.1486 0.49533-1.7616 0.5015-0.61301 0.006165-1.1773 0.19934-1.2539 0.42932-0.2171 0.65112-1.9927-0.793-2.2452-1.826-0.34259-1.4018-1.0007-3.336-3.0537-8.9751-2.9713-8.1615-5.0105-12.937-7.8187-18.31-1.4186-2.7145-2.8461-5.9614-3.1721-7.2153-1.0603-4.0783-0.3273-7.0852 2.0571-8.4382 0.83899-0.47609 1.0906-0.4637 2.6055 0.12833 2.4842 0.97081 4.0824 1.0962 5.1399 0.40335 0.49512-0.32442 2.0567-0.87933 3.4701-1.2331 3.6633-0.91698 9.7539-3.5938 13.693-6.0183 1.8591-1.1442 3.5356-2.0803 3.7254-2.0803 0.18979 0 0.78409 0.49269 1.3207 1.0949 0.87482 0.98189 1.1192 1.0719 2.3678 0.87225 1.8403-0.29428 8.0833-2.6144 9.1015-3.3824l0.8031-0.6057-1.1433-1.5921c-2.3294-3.2435-0.34882-3.8115 4.7536-1.3632 3.113 1.4937 4.0239 1.7385 4.0239 1.0815 0-0.76541-0.74789-1.7367-1.3373-1.7367-1.4041 0-6.7578-5.2771-6.7578-6.6611 0-0.18747 0.7919-1.3871 1.7598-2.6659s1.7598-2.475 1.7598-2.6584c0-0.18332 0.15839-0.33333 0.35199-0.33333s0.3519 0.82104 0.3519 1.8245c0 1.7222 0.096222 1.9172 1.7145 3.477 2.5661 2.4734 10.492 6.5957 13.856 7.207 1.7598 0.3197 2.0832-0.46887 0.85348-2.0811-1.7227-2.2585-1.5283-4.4464 0.3945-4.4417 1.3117 0.003174 2.6544 0.96199 5.2768 3.7681l2.2325 2.3889-0.1948-1.4547c-0.10712-0.80008-0.89151-3.651-1.7432-6.3354-2.1392-6.7431-2.1126-6.5655-1.1223-7.4958 0.694-0.65205 0.9675-0.72041 1.5768-0.39433 1.0913 0.58406 0.9007-0.13399-0.3049-1.1484-1.9106-1.6077-3.8446-2.1067-7.1165-1.8361-1.6105 0.13321-5.2469 0.29394-8.0807 0.35718-6.1499 0.13724-9.4925 0.60915-12.249 1.7293-5.8941 2.395-12.707 3.9838-19.016 4.4347-5.7209 0.40883-6.6979 0.5918-6.6979 1.2543 0 0.26033-0.70752 0.78627-1.5721 1.1688-0.86468 0.38248-2.2907 1.1898-3.1689 1.794-2.4696 1.6991-4.4193 2.4548-6.3555 2.4632-3.4557 0.015091-4.5103 1.637-4.1796 6.4278 0.24768 3.5881-0.1178 5.5907-1.2929 7.0846-1.5375 1.9546-2.9048 0.66698-4.9204-4.6337-0.66629-1.7524-1.4121-3.1079-1.8652-3.3903-0.41519-0.25876-1.8942-0.5583-3.2867-0.66568-1.8214-0.14043-3.5428-0.60281-6.1348-1.6479-4.2339-1.707-6.9476-2.1047-14.388-2.1086-2.8074-0.001465-9.0636-0.2458-13.903-0.54298-4.839-0.29716-10.52-0.54425-12.624-0.54906-3.3891-0.007751-3.9012 0.072235-4.4867 0.70073-0.7747 0.83148-5.5212 2.4045-8.4739 2.8084-1.3961 0.19092-2.2885 0.52602-2.766 1.0386-0.7141 0.76646-1.1675 0.92278-3.6497 1.2581-2.2533 0.3044-7.7016 3.2101-9.3285 4.975-2.6132 2.835-1.8186 2.9848 2.6136 0.49271 3.075-1.7289 6.859-3.5024 8.5941-4.0279l0.8508-0.2577-0.7053 0.8966c-0.87151 1.108-2.3461 2.33-4.0644 3.3683-3.0618 1.8501-9.0747 9.4326-9.0747 11.444 0 0.99405 1.2827 0.61752 3.1654-0.92918 2.9443-2.4189 4.3107-3.4316 4.6301-3.4316 0.4678 0 0.3533 0.98711-0.2497 2.1531-0.30211 0.58424-0.4989 1.2133-0.43741 1.3979 0.061508 0.18459 1.3778-0.46545 2.9251-1.4445 4.772-3.0196 6.0526-3.4951 10.469-3.8872 2.1773-0.19327 6.3989-0.68124 9.3813-1.0844 6.7258-0.90916 7.1993-0.8022 10.7 2.4177 4.6052 4.2351 8.5753 6.3847 13.561 7.3425 4.5244 0.86919 6.4927 0.61563 7.8054-1.0055 0.43228-0.53386 1.1408-0.73575 3.0651-0.87343 2.3394-0.16739 2.5621-0.11972 3.4119 0.73004 0.75891 0.75893 0.90912 1.2316 0.90912 2.8609 0 2.3404 0.22229 2.401 2.6969 0.73447 2.3011-1.5496 3.9644-3.5901 5.4631-6.7019 2.2013-4.5702 3.7377-3.0447 3.3459 3.3218-0.2547 4.1394-1.2569 7.4589-2.8549 9.4563-1.8396 2.2996-2.3888 5.1878-2.5872 13.608-0.18509 7.8527 0.20221 11.311 1.3865 12.383 1.4428 1.3057 1.454 1.7638 0.080811 3.2838-1.5985 1.7693-1.8407 3.4143-1.0591 7.1935 0.31131 1.5054 0.47769 2.8798 0.3699 3.0544-0.25632 0.41464-1.6376 0.40515-2.753-0.018921-1.1643-0.44266-3.3986-2.4813-4.5666-4.1668-0.51358-0.74115-1.3424-2.7568-1.8418-4.4791-1.0171-3.5086-2.7499-7.5602-3.2333-7.5602-0.17468 0-0.90689 0.63696-1.6272 1.4155-0.72028 0.77853-1.4305 1.3408-1.5781 1.2496-0.14758-0.091248-0.84048-1.3221-1.5396-2.7354-2.0204-4.0836-4.5478-6.617-6.6015-6.617-0.48352 0-2.637 1.8473-6.1545 5.2794-2.9758 2.9037-5.6619 5.2794-5.9691 5.2794-0.49768 0-0.49219-0.10532 0.050629-0.9679 2.1714-3.451 10.377-12.145 11.174-11.839 0.94488 0.36261 2.1721-0.15765 2.6031-1.1036 0.54141-1.1883 0.54031-1.1929-0.37958-1.5401-1.1034-0.41653-4.8809 0.15451-7.9158 1.1966-7.1845 2.467-8.5743 1.7589-4.491-2.2881 3.2856-3.2563 3.1074-4.0137-1.3561-5.7663-2.6838-1.0538-3.0666-0.95698-3.9017 0.98677-1.0575 2.4616-4.4666 4.7352-8.3081 5.541-1.7651 0.37024-2.2348 0.31958-5.2727-0.56857-4.4682-1.3063-5.5517-1.5546-5.7812-1.3251-0.6862 0.6862 0.685 5.5305 1.9131 6.7585 0.5286 0.52856 1.5039 0.64056 6.7349 0.77341 4.3381 0.11017 6.4163 0.30249 7.1468 0.66138 2.5232 1.2398 1.2661 2.0408-6.3795 4.0648-9.5891 2.5385-10.095 2.845-9.8934 5.9902 0.094696 1.4756 0.2608 1.7929 1.3056 2.4949 1.8712 1.2574 3.7537 1.6379 8.2178 1.6612 4.0282 0.020996 4.1354 0.041809 4.1356 0.80124 3.05e-4 1.716-3.5345 4.677-7.6504 6.4084-3.8921 1.6373-3.9643 1.6456-3.9643 0.45737 0-1.247-0.5748-1.7823-3.4687-3.2302-1.5623-0.78165-3.1848-2.0752-5.3796-4.2889-4.135-4.1705-4.8777-5.3463-5.4477-8.6244-0.56461-3.2467-1.6046-5.5023-2.9929-6.4908-1.622-1.1549-2.1672-0.70145-1.8838 1.5669 0.21031 1.6833 0.14781 1.9733-0.56879 2.641-0.44281 0.41254-0.9281 0.75006-1.0783 0.75006-0.4706 0-1.0112 1.3278-1.3965 3.4304-0.43829 2.3919-0.8101 2.8599-3.829 4.8191-3.219 2.0891-3.3084 2.2367-3.0256 4.9969l0.2381 2.3237-1.2463-0.2338c-1.1006-0.20648-1.2935-0.13-1.651 0.6546-0.27461 0.60278-0.29901 1.2586-0.075912 2.0398 0.4568 1.5997 1.5982 1.7133 2.9266 0.29117 1.1879-1.2716 4.1354-2.7016 6.2657-3.0398 1.4255-0.22632 1.4959-0.19592 1.4959 0.64566 0 0.58948-0.5499 1.4177-1.654 2.4908l-1.6539 1.6076 0.9729 0.3699c0.5351 0.20343 1.5242 0.3699 2.1979 0.3699 1.8417 0 2.7577 1.1313 3.2926 4.0667 0.8454 4.6392 1.9313 6.1402 4.4422 6.1402 0.5733 0 0.99541 0.28729 1.2531 0.85284 0.4559 1.0006 1.1881 1.2241 5.2814 1.6126 1.6749 0.15897 3.4171 0.53235 3.8716 0.82977 0.45441 0.29739 3.5925 1.1847 6.9734 1.9718 3.3809 0.78708 6.2733 1.5572 6.4274 1.7112 0.15401 0.15411-0.5625 1.2532-1.5924 2.4425-3.4659 4.0021-7.3629 12.355-7.4275 15.921-0.032303 1.7843 0.030701 1.9451 0.80479 2.0546 0.4619 0.065308 1.2813-0.20761 1.8208-0.60651l0.981-0.7253 0.251 2.344c0.28479 2.6594-0.014404 8.0218-0.52211 9.3572-0.3642 0.95798-1.3515 1.4475-2.2354 1.1083-0.3013-0.11563-0.9705-0.82013-1.4871-1.5656-1.9558-2.8223-3.1007-2.0623-3.2937 2.1863-0.1067 2.3502-0.2581 2.9728-0.8365 3.4412-0.59581 0.48248-0.6662 0.80838-0.45021 2.0865 0.3132 1.8541 5.3719 12.165 7.0401 14.35 1.5341 2.0091 2.3928 4.3342 3.1594 8.5541 0.76869 4.2315 0.9566 4.5782 2.4818 4.5782 1.0382 0 1.2426 0.13931 1.4199 0.9679 0.43359 2.0267 1.3163 4.016 3.036 6.8421 3.4459 5.6629 4.1615 6.9186 4.1615 7.3021 0 0.2356-0.58551 0.35016-1.4958 0.29272-1.424-0.089813-1.5016-0.043884-1.6151 0.95514-0.12869 1.1321 0.34039 3.0949 1.2409 5.1926l0.5643 1.3146 4.8349-0.0827 4.8348-0.0827 1.5374 1.1072c0.84561 0.60898 1.5792 1.3217 1.6302 1.5838 0.10797 0.55521-1.7676 1.7085-2.7785 1.7085-0.8555 0-2.4893-0.82184-3.1024-1.5606-0.7771-0.93637-1.1812-0.6373-0.96228 0.71213 0.27078 1.6687 0.80868 2.2564 2.0652 2.2564 1.5002 0 2.3081 0.55167 2.5728 1.7569 0.30399 1.384 0.61798 1.3359 1.354-0.20731 0.77362-1.6224 1.0758-1.385 3.2947 2.5881 1.9696 3.5269 4.567 6.5221 6.5193 7.5181 2.3671 1.2076 2.4939 0.66559 0.41068-1.7546-1.638-1.9029-3.6589-5.1425-3.6589-5.8654 0-0.11606 0.91068 0.49527 2.0238 1.3585 1.7009 1.3191 3.618 2.3471 3.6038 1.9326-0.002014-0.061462-0.21881-0.82443-0.48172-1.6956-0.95718-3.1723 1.004-7.0393 3.5702-7.0393 1.8223 0 3.2507 1.5925 3.2507 3.6243 0 0.86163-0.23761 2.24-0.52792 3.063-0.9231 2.6162-0.72629 3.5992 1.048 5.2346 0.86682 0.79898 1.6313 1.4527 1.6988 1.4527 0.067596 0-0.042023-0.80484-0.2435-1.7885-0.31763-1.5505-0.27432-1.9572 0.32498-3.0559 0.38022-0.69708 0.8739-1.3258 1.097-1.3971 0.22769-0.072754 0.67328 0.68918 1.0153 1.736 0.9725 2.9766 2.4358 6.0245 3.9606 8.2494 1.6386 2.3911 3.7097 4.7032 4.2127 4.7032 0.19159 0 0.42578-1.3067 0.52029-2.9037 0.18878-3.1867 1.4204-6.4665 3.2383-8.6231 1.8812-2.2318 2.9189-1.3268 4.0522 3.534 0.39679 1.7017 1.0381 3.7148 1.4251 4.4735 0.42328 0.82962 0.7038 2.0742 0.7038 3.1224 0 1.7987 0.66098 5.5006 1.5692 8.788 0.6864 2.4845 2.1561 11.23 1.9259 11.461-0.099304 0.099304-1.5994-0.049774-3.3337-0.33127-4.1123-0.66748-5.842-0.64746-7.3787 0.085358-1.0407 0.49622-1.4471 0.52835-2.3539 0.1861-3.7983-1.4337-9.1633-6.0697-12.035-10.4-3.6782-5.5462-8.8438-9.3322-14.533-10.652-2.7456-0.63672-2.9618-0.73968-6.4483-3.0717-3.2886-2.1996-5.5785-3.223-9.6554-4.3152-5.669-1.5188-9.6249-1.0624-14.1 1.6268-2.9229 1.7563-4.7566 3.474-7.6088 7.1275-1.3893 1.7796-4.4635 5.1363-6.8314 7.4592-4.6673 4.5787-5.3276 5.5474-5.8129 8.5292-0.1758 1.0806-0.71179 2.5337-1.1909 3.2291-1.1936 1.7323-3.2204 7.1768-3.9774 10.684-0.4355 2.018-0.623 4.3968-0.61691 7.8267 0.009613 5.3391 0.50731 7.8206 2.1307 10.622 0.9823 1.6951 1.0751 2.5136 0.3179 2.8042-1.3196 0.50638-4.0945-1.6327-4.5336-3.4948-0.289-1.2259-1.7001-1.9712-2.4903-1.3154-1.5063 1.2501-5.5879 9.7507-7.2217 15.04-0.76529 2.4778-2.1121 10.912-2.1136 13.235-0.001099 1.7672 0.5305 2.7484 1.3244 2.445 0.5699-0.21783 0.5728-0.17587 0.042709 0.62903-0.3188 0.48425-0.98741 0.91248-1.5247 0.97656-1.2805 0.1528-1.5963 0.97549-4.0765 10.621-2.0372 7.9226-4.3351 14.202-7.0804 19.347-1.0304 1.9314-1.3919 2.313-2.3832 2.5158-0.7601 0.15546-1.892 0.95502-3.2388 2.2877-1.4399 1.4249-2.0703 1.8595-2.0703 1.4273 0-0.3418 0.6369-2.696 1.4154-5.2315s1.3716-4.654 1.3179-4.7076c-0.053696-0.053711-1.0854 1.144-2.2927 2.6615-2.7331 3.4354-6.7015 7.8595-17.523 19.536-11.273 12.163-13.02 14.105-14.619 16.245-0.8208 1.0986-2.1132 2.2477-3.2772 2.9137-2.4744 1.4157-3.934 3.1033-5.3415 6.176-1.3872 3.0283-2.144 6.344-2.4518 10.742-0.2624 3.7492-0.9866 7.0546-1.8263 8.3362-0.3082 0.47046-1.1672 1.165-1.9089 1.5433-0.8614 0.43939-1.4313 1.0179-1.5777 1.6013-0.26691 1.0632 0.2553 1.5283 1.7249 1.5364 1.4201 0.007812 1.4901 0.72223 0.30159 3.0765-1.243 2.4624-1.8454 4.6934-2.8772 10.656-0.41879 2.4197-1.2375 5.5874-1.8194 7.0392-0.99651 2.4863-1.0805 3.0795-1.445 10.207-0.21289 4.162-0.3891 11.606-0.39159 16.542-0.00441 8.6571 0.035385 9.1824 1.1232 14.826 0.62019 3.2178 1.6843 7.6259 2.3646 9.7957 1.4052 4.482 1.4606 5.0742 0.66071 7.0732-0.4386 1.0961-0.5218 2.0242-0.3488 3.8864 0.2917 3.1378 2.889 11.057 5.1412 15.676 1.5257 3.1287 1.9323 3.6792 3.3164 4.4904 1.1623 0.68115 2.1088 1.7344 3.5956 4.0013 2.9155 4.445 2.9443 4.4739 3.571 3.5793l0.5111-0.7298 0.8762 0.8176c1.2609 1.1766 2.0941 2.9963 2.3888 5.2172 0.43419 3.2726 0.9661 4.1396 3.1539 5.1412 2.288 1.0475 3.7398 1.0044 4.2356-0.12567 0.7111-1.6207 1.8923-0.82886 4.2001 2.8157 0.7048 1.113 1.4008 2.0237 1.5467 2.0237 0.1458 0 1.1309-0.88745 2.1889-1.9722 1.0581-1.0847 4.3788-4.0066 7.3793-6.4933 3.0004-2.4866 5.9791-5.1627 6.6191-5.947 2.4122-2.9554 3.0375-1.6129 3.0243 6.4932-0.013107 8.009-0.5675 10.552-2.9699 13.624-0.96249 1.2305-1.7352 2.5899-1.7391 3.0593-0.003799 0.46466 0.4149 1.707 0.9305 2.7608 0.9409 1.9232 1.2417 2.1542 4.2675 3.2767 0.63649 0.23621 1.3116 0.71783 1.5003 1.0703 0.53551 1.0006-0.5721 1.363-5.3917 1.7643-5.1894 0.43195-137.32 0.70526-155.83 0.32227zm112.56-155.14c0.1324-0.93195-0.19409-0.99487-1.266-0.24402-1.069 0.74872-0.98271 1.2817 0.1857 1.1473 0.69299-0.079712 0.9998-0.33624 1.0803-0.90326zm97.471-323.63c-0.19849-0.59555-2.2675-1.7701-2.8034-1.5915-0.6554 0.21848 1.3074 2.0282 2.1997 2.0282 0.44011 0 0.68921-0.18024 0.6037-0.43671zm-91.934-89.459c0.6563-0.47992 0.6469-0.51193-0.27431-0.93166-0.76331-0.34778-1.0624-0.34464-1.4966 0.015762-0.4133 0.34297-0.4475 0.5652-0.1434 0.93166 0.5094 0.61377 1.0596 0.60924 1.9143-0.015762zm61.048 568.13c-1.1085-0.40008-1.2508-0.60327-1.4208-2.0285-0.10391-0.87109-0.4711-2.0081-0.8159-2.5265-0.60971-0.91675-0.6067-0.95355 0.1064-1.3351 0.40329-0.21588 1.8963-0.44159 3.3177-0.50159 1.4215-0.059998 2.7671-0.22198 2.9904-0.35998 0.22331-0.13794 0.93361-1.0719 1.5785-2.0754 1.6404-2.5523 3.0555-3.8519 6.992-6.4208 3.7282-2.433 8.2607-6.6501 9.2458-8.6024 0.53551-1.0613 0.25041-0.87415-2.0577 1.351-1.4737 1.4205-2.8798 2.5132-3.1247 2.4282-0.3287-0.11414-0.4154-1.0441-0.3309-3.5508 0.1086-3.2262 0.078293-3.3961-0.6071-3.3961-0.409 0-1.9826 1.1603-3.634 2.6796-4.5331 4.1705-12.782 9.3427-14.096 8.8384-0.31259-0.11987-0.75479-0.84045-0.9827-1.6011-0.3418-1.1408-0.3141-1.6836 0.1581-3.0983 1.1318-3.3911 3.8751-6.599 26.01-30.415 3.8758-4.1701 6.7308-7.7022 6.4514-7.9816-0.3862-0.38617-2.1245 1.0688-7.4641 6.2472-3.1531 3.058-6.0667 5.666-6.4747 5.7955-1.8793 0.59644-2.3493-1.929-0.7943-4.2683 1.7272-2.5985 6.1765-7.4673 9.2375-10.109 5.5538-4.7922 9.7582-7.193 14.556-8.3118 3.8556-0.89899 6.6298-1.9612 11.529-4.4146 5.1101-2.5588 7.9753-4.2374 10.988-6.4368 1.3224-0.96558 3.1103-1.9532 3.9729-2.1948 0.8663-0.24255 1.878-0.83258 2.2598-1.318 1.6429-2.0886 2.492-7.8882 1.7444-11.914-0.2471-1.3304-2.09-8.1999-4.0954-15.266-3.883-13.681-4.7029-15.796-8.7182-22.489-1.2317-2.053-2.7975-4.8414-3.4794-6.1964-0.68201-1.3551-1.5773-2.8201-1.9896-3.2557-0.86072-0.9093-2.13-1.0568-2.13-0.2475 0 0.29944 1.2563 3.1995 2.7919 6.4445 4.9441 10.448 6.2847 14.291 11.253 32.255 3.5261 12.75 3.484 12.517 2.4661 13.687-1.0019 1.1523-1.2263 1.1489-1.7969-0.0271-0.25259-0.52039-1.2511-1.4064-2.219-1.9689-2.1139-1.2283-3.2546-2.2379-3.8643-3.4202-0.2496-0.48395-1.8216-6.3972-3.4934-13.141-3.293-13.283-4.6165-17.275-6.3574-19.174-1.3814-1.5074-2.4271-1.3808-3.6576 0.44299-1.2121 1.7965-2.7918 6.659-3.3935 10.446-0.2885 1.815-0.7516 4.123-1.0292 5.129s-0.7632 4.9412-1.0791 8.745c-0.5903 7.1086-0.9171 8.7695-1.6771 8.5235-0.73041-0.23639-1.7297-4.7843-1.5476-7.0429 0.21211-2.6315-0.2014-2.351-1.9104 1.2958-1.6124 3.4409-2.9749 7.6559-3.4592 10.702-0.3232 2.0324-0.5009 2.3592-2.0001 3.6788-0.905 0.79657-1.838 1.9064-2.0734 2.4662l-0.428 1.0179-1.0802-1.3105c-1.489-1.8064-2.1826-1.5419-5.6993 2.1732-3.9951 4.2205-6.4122 7.7203-6.2776 9.0895 0.1573 1.6005 1.0205 1.4847 3.2089-0.4303 2.2066-1.931 4.306-3.1752 4.6974-2.7838 0.75081 0.75085-3.3269 5.6961-7.5163 9.1154-1.3185 1.0762-3.4268 2.5474-4.6851 3.2693-3.0416 1.7451-10.304 9.1072-13.546 13.731-2.9957 4.2733-5.5486 7.0546-7.2916 7.9438-0.71959 0.36706-1.3938 0.66742-1.4983 0.66742-0.49921 0-0.019104-1.307 1.9499-5.3079 2.6908-5.4674 3.5547-8.0647 4.7118-14.166 0.5076-2.6772 1.6534-7.8248 2.5462-11.439 1.3503-5.4664 1.6287-7.1628 1.6561-10.091 0.038895-4.1612-0.2088-4.7972-3.3655-8.6418-1.1835-1.4416-2.4653-3.3337-2.8483-4.2048-0.3831-0.87109-1.6297-3.6821-2.7704-6.2468-5.0465-11.346-6.7465-16.311-10.032-29.296-1.2482-4.9334-2.4223-9.1226-2.6091-9.3094-0.2184-0.21838-0.3398 1.6346-0.3398 5.1861 0 9.8442-1.4969 6.3536-4.0451-9.4327-2.7657-17.134-2.8098-22.281-0.35289-41.18 0.6795-5.2267 1.3166-9.996 1.4158-10.599 0.21509-1.307 1.4152-2.548 1.9484-2.0149 0.7075 0.70758 1.0754 8.7392 0.85159 18.597-0.34259 15.099-0.013687 18.444 2.9659 30.163 1.3436 5.2848 3.1765 13.331 4.073 17.88 1.7988 9.1275 2.4755 11.615 3.1599 11.615 0.6138 0 1.1634-1.5035 1.4457-3.9551 0.30901-2.6836-0.02449-4.3641-0.91199-4.5962-0.89761-0.23474-0.88071-0.76624 0.054001-1.701 0.65309-0.65308 1.0118-0.72186 2.7931-0.53571 2.0245 0.21161 2.0448 0.20459 2.1544-0.74652 0.060791-0.52808-0.018997-2.3712-0.1775-4.0956-0.37-4.0267-0.176-4.8669 1.0933-4.7338 2.0499 0.21503 2.3854-0.8877 0.78079-2.5668l-1.0537-1.1026 0.7494-1.2125 0.7493-1.2126-0.7155-1.2892c-1.173-2.1136-2.0185-7.719-1.3319-8.8299 0.15651-0.25324 0.70381-0.31458 1.4903-0.16699 0.87929 0.16492 1.333 0.090881 1.551-0.25324 0.1694-0.26746 0.3127-2.3869 0.3186-4.7099 0.0121-4.8375 0.2756-5.6219 2.2633-6.7369 0.7534-0.42261 1.5152-1.0282 1.6929-1.3458 0.4265-0.76208-0.2708-1.5964-1.3343-1.5964-0.89011 0-1.9178-0.84052-1.9178-1.5685 0-0.25427 0.37399-0.70734 0.8311-1.0069 1.1475-0.75189 1.2989-2.0779 1.3093-11.468 0.010193-9.1583-0.38251-13.124-1.6933-17.106-0.8591-2.6091-0.92841-3.2807-0.9447-9.1511-0.018494-6.7114 0.3571-10.267 1.7475-16.542 1.6619-7.5003 2.4634-8.4543 4.8457-5.7672 1.3187 1.4875 1.36 1.5062 1.134 0.51456-0.58951-2.5876-0.7807-4.0744-0.52391-4.0744 0.6356 0 2.3852 1.8309 3.1783 3.3259 0.46728 0.88089 0.96399 1.6016 1.1037 1.6016 0.1398 0 0.2984-2.0175 0.3526-4.4832 0.083694-3.8087 0.18449-4.4997 0.67029-4.5929 0.8562-0.16412 3.345 2.15 6.4501 5.9972 1.5237 1.8879 3.5825 4.0591 4.5751 4.8249 2.4359 1.8792 5.5956 3.295 6.92 3.1006 1.192-0.17499 1.3448-0.022583 1.5423 1.5378 0.1916 1.514-0.33119 2.3634-1.8735 3.0442l-1.2915 0.5701 3.6809 0.2959c2.0244 0.16278 4.0815 0.48798 4.5712 0.72266 2.0451 0.98022 0.88811 2.4291-2.4447 3.0611-2.3781 0.45099-3.3827 1.1028-4.0086 2.6006-0.2709 0.64844-0.8009 1.3976-1.1778 1.6649-1.0527 0.74652-1.5009 1.86-1.5009 3.7285 0 3.5507 4.0395 9.6194 7.8803 11.839 3.3096 1.9124 15.492 6.6785 16.363 6.4019 0.3696-0.11731 1.1213 0.16315 1.8304 0.68298 1.3936 1.0216 2.9533 1.7951 4.3023 2.1337 0.84711 0.21258 0.94852 0.14062 0.94852-0.67328 0-0.68439 0.22449-0.96771 0.9014-1.1376 2.3022-0.57782 12.601 1.0367 17.03 2.6697 4.1764 1.5399 6.301 1.7916 10.64 1.2605 2.2215-0.27191 4.0514-0.69226 4.6116-1.0593 0.6347-0.41589 1.2598-0.53583 1.9745-0.37884 1.1334 0.24896 1.7986-0.45227 1.7986-1.896 0-1.4753 1.1303-1.7189 9.8549-2.1242 9.863-0.45819 14.079-1.2059 14.079-2.497 0-0.64539-2.6024-3.1089-3.9046-3.6961l-1.4081-0.6349 2.3044-1.2164c1.2674-0.66907 2.3044-1.4262 2.3044-1.6824 0-0.7121-2.1445-1.1956-7.7432-1.746-5.3433-0.52527-9.3068-1.1097-22.702-3.3475-10.723-1.7914-21.173-3.1486-24.245-3.1486-2.2109 0-2.4085-0.053406-1.7908-0.48419 0.3818-0.2663 1.8586-0.81299 3.2818-1.2149 2.7454-0.77527 4.4204-1.6536 4.1103-2.1554-0.3642-0.58917-5.4636-2.4927-9.576-3.5746-3.0134-0.79272-5.3472-1.1569-8.4608-1.3203-3.3333-0.17499-4.4317-0.35791-4.8873-0.81409-0.5491-0.54962-0.52499-0.64654 0.36661-1.4729l0.9545-0.8845-1.8745-0.8931c-1.7811-0.84857-6.274-4.2488-6.274-4.7482 0-0.12915 1.4532-0.11874 3.2293 0.023163 1.7762 0.14191 3.3676 0.17261 3.5365 0.068207 0.1689-0.10437 0.26-0.52545 0.2023-0.93573-0.1693-1.2046 1.2256-1.6415 5.3506-1.676 5.5076-0.046021 7.3571-0.38312 8.1616-1.4875 0.48938-0.67181 1.1113-0.9812 2.3247-1.1565 0.91098-0.13159 2.0862-0.48776 2.6115-0.79147 0.8754-0.50613 1.1229-0.4993 2.9664 0.081787 2.9301 0.92362 9.8969 4.1555 18.661 8.6565l7.6867 3.9479 11.967-0.2059c8.3177-0.14313 12.728-0.36121 14.462-0.71509 4.3931-0.89648 5.8265-1.8024 6.2876-3.9738 0.23792-1.1199 2.9341-3.9835 3.7507-3.9835 0.22342 0 0.90012 0.2966 1.5037 0.65909 2.1474 1.2897 5.8489 1.2179 5.8489-0.1134 0-1.4135-13.53-6.3651-26.554-9.7179-3.6887-0.94955-10.033-2.7703-14.098-4.0461-9.8894-3.1036-11.531-3.3282-16.734-2.2892-4.7423 0.9469-8.2146 2.4524-10.766 4.6681-2.8041 2.4352-3.4167 2.5902-6.8271 1.7278-2.2284-0.56351-3.4613-0.67883-5.4551-0.51032-2.5181 0.21286-2.6769 0.17627-7.0672-1.6289-5.6913-2.3401-6.5908-2.9708-6.317-4.4301 0.3865-2.0602-1.6189-3.1306-8.1772-4.365-9.0616-1.7055-17.364-2.225-18.95-1.1857-0.8627 0.56528-4.6403 0.76566-5.4144 0.2872-0.1662-0.10269 0.083496-0.57251 0.55501-1.044 1.2294-1.2294 1.0683-1.5931-0.7059-1.5931-0.8597 0-1.6569-0.15195-1.7717-0.33758-0.34651-0.56061-0.64751-4.8049-0.4084-5.7577 0.1228-0.48935 0.6393-1.3841 1.1476-1.9882 2.5748-3.06 7.0807-3.4979 13.682-1.3297 4.741 1.5571 6.6413 1.8517 8.5783 1.3301 2.4203-0.65167 2.3559-1.6808-0.2923-4.6726-0.8709-0.98383-1.9355-1.7876-2.5938-1.9582-0.86951-0.22531-1.1166-0.47913-1.1166-1.1469 0-0.78903 0.11951-0.85001 1.4958-0.76315 1.6464 0.10388 1.6296 0.13101 1.5104-2.4496l-0.0762-1.6513 1.7027-0.1085c1.5663-0.099884 1.7116-0.1864 1.8144-1.0808 0.22101-1.9221-1.8421-5.5199-6.6078-11.523-3.9332-4.9548-5.0585-6.8492-5.0911-8.571-0.0233-1.2296 0.089798-1.4757 0.7195-1.5656 0.54051-0.077087 1.3028 0.50732 2.7545 2.1118l2.0073 2.2184-0.2559-3.6956c-0.43961-6.348-0.3024-8.3006 0.70419-10.018 0.48891-0.83414 1.671-2.1715 2.6271-2.972 1.8339-1.5354 5.7008-3.9907 5.9278-3.7637 0.073608 0.073578-0.1102 1.0751-0.4083 2.2256-0.6291 2.4279-1.1119 8.7296-0.7724 10.082 0.3289 1.3104 1.7544 1.2844 2.2699-0.041382 1.3827-3.5558 1.9812-6.5056 2.1594-10.643 0.23639-5.487 0.3916-5.5732 4.0291-2.2393l2.6091 2.3914-0.5503 1.066c-0.3026 0.5863-1.2389 1.912-2.0805 2.9461-0.8417 1.0341-1.5303 2.0344-1.5303 2.2229 0 1.1531 2.8294 4.6466 4.2348 5.2287 0.71649 0.29678 1.0447 0.67926 1.0447 1.2174 0 1.2938-0.7544 3.1072-1.7917 4.3066-1.2871 1.4883-1.593 3.6738-1.0836 7.7418 0.53249 4.2521 1.6334 7.5222 3.0854 9.1652 1.3806 1.562 1.415 1.3929 0.49631-2.4393-0.8457-3.5276-0.8947-6.7955-0.15561-10.374 1.444-6.991 4.4496-10.466 8.0299-9.2846 2.2606 0.74609 2.4765 1.9853 0.93729 5.3801-1.8496 4.0792-3.2368 13.482-2.0933 14.189 0.21201 0.13101 0.83911-0.097229 1.3936-0.50717 0.5545-0.40997 1.1419-0.74539 1.3054-0.74539 0.16339 0 0.83441 0.55435 1.4911 1.2319 1.6591 1.7118 2.4143 1.5938 4.5154-0.70508 2.4749-2.708 3.3395-5.124 3.153-8.811-0.12143-2.3999-0.32111-3.1469-1.3175-4.9275-0.6459-1.1543-1.4732-2.6697-1.8384-3.3677l-0.6641-1.269 1.4727-2.8329 1.4726-2.8329-0.9643-1.6454c-0.67859-1.158-0.89841-1.9078-0.74188-2.5312 0.27338-1.0893-0.23801-1.7504-1.887-2.4394-1.6437-0.6868-2.8217-1.7987-3.4374-3.2444-0.4733-1.1115-0.366-2.5259 0.19168-2.5259 0.505 0 3.4022 2.0273 4.3306 3.0302 4.213 4.5514 9.228 10.347 9.6647 11.168 0.66409 1.2494 0.4042 1.992-0.6973 1.992-1.4361 0-1.8056 0.80832-1.3328 2.916 0.2265 1.0096 0.8136 2.7018 1.3047 3.7605 1.1621 2.5052 1.6815 6.6521 1.412 11.274-0.24292 4.1654-0.68942 6.1125-2.2263 9.7073-1.3449 3.1458-1.643 4.5014-1.18 5.3664 0.41171 0.76923 4.2643 3.6655 6.8122 5.1212 3.9619 2.2636 8.1121 3.2045 24.347 5.52 5.3042 0.75656 9.3178 0.6637 11.335-0.26215 0.60831-0.2792 1.7962-0.45813 2.6398-0.39758 1.452 0.10422 1.5323 0.16635 1.5072 1.166-0.014618 0.58075-0.24332 2.0414-0.5083 3.2459-0.26502 1.2045-0.36621 2.3057-0.22492 2.447 0.41602 0.41598 6.2302 0.19711 7.5411-0.28388 0.61011-0.22385 0.7796-0.53403 0.72-1.3173-0.058289-0.76541 0.1933-1.2528 0.99509-1.9275 2.76-2.3224 4.9715-11.404 3.4796-14.289-0.79651-1.5402-3.1658-3.3759-5.3911-4.177-1.1052-0.39777-4.4146-1.28-7.3543-1.9604-5.613-1.2991-8.6121-2.5218-9.2894-3.7874-0.22272-0.41623-0.85242-2.566-1.3992-4.7771-0.54691-2.2112-1.5582-5.1303-2.2474-6.487-0.68921-1.3567-1.2531-2.6124-1.2531-2.7906 0-0.69876 1.1582-0.25943 2.8577 1.0839 1.4065 1.1118 2.0775 1.4078 3.1909 1.4078 1.9028 0 2.8827-0.77606 5.5818-4.4206l2.2719-3.0677 0.704 4.2656 0.7041 4.2656 1.3568-2.4871c1.6804-3.0802 3.1032-4.7281 4.853-5.6208 0.74191-0.37851 3.6773-1.0764 6.5232-1.5509 6.6421-1.1075 6.9074-0.95468 3.8984 2.2459-2.3213 2.4691-4.4758 6.1716-3.9166 6.7308 0.17761 0.1777 1.3472 0.36749 2.599 0.42172l2.2759 0.0987 0.2276 1.591c0.12509 0.87506 0.6235 2.8546 1.1075 4.3989 0.48401 1.5444 0.99002 3.3224 1.1244 3.9514 0.25809 1.2069 1.3319 2.2002 2.3788 2.2002 0.34412 0 0.62561-0.22861 0.62561-0.508 0-0.70096 1.2223-1.4916 3.3279-2.1525 3.5092-1.1016 3.4427-1.0208 3.3051-4.0163l-0.1216-2.6502 0.9421 0.0973c0.9277 0.095764 0.93649 0.076935 0.57559-1.2319-0.2016-0.73102-0.65198-2.0539-1.0008-2.9396-0.6528-1.6576-0.4888-2.6068 0.39209-2.2688 0.6828 0.26202 2.5638 3.097 3.6685 5.5288 1.0087 2.2208 2.6167 9.7534 2.6295 12.318 0.012604 2.5315-0.47168 3.3677-4.0393 6.9742-3.3988 3.4357-4.2974 4.8625-3.728 5.9185 0.45892 0.8511 1.847 2.0901 3.7651 3.3608 2.0625 1.3663 3.0596 2.6758 2.8792 3.781-0.13361 0.81885-0.15662 0.81021-0.823-0.30966-0.45761-0.76895-0.9133-1.12-1.3707-1.0559-0.612 0.085815-0.68722 0.39688-0.70392 2.9118l-0.0187 2.8157-1.4899 0.1079c-1.6279 0.11789-2.5577 1.0029-2.5577 2.4341 0 0.91602 0.57199 1.0121 1.5631 0.26245 0.37582-0.28421 0.9064-0.51675 1.1793-0.51675 0.65579 0 0.42029 2.4617-0.4209 4.3996l-0.6111 1.4078 1.8243-1.844c1.0033-1.0142 1.9647-1.7572 2.1364-1.651 0.89252 0.55158-0.5069 4.0738-3.5427 8.9168-0.7771 1.2397-1.5071 2.8236-1.6221 3.5196-0.33078 2.0011-0.42718 2.1472-1.5664 2.3751-1.1195 0.22388-1.7556 1.0047-1.7556 2.1548 0 1.4218-2.2179 4.9694-5.1069 8.1688-1.6577 1.8359-3.4731 4.1325-4.0342 5.1035-0.561 0.97107-2.379 3.3424-4.0398 5.2698-1.6609 1.9274-2.9656 3.6696-2.8995 3.8716 0.066101 0.20203 0.6207 0.41687 1.2324 0.4773 1.2253 0.12116 2.1773 1.173 2.1773 2.4055 0 0.42627-0.49658 2.0145-1.1036 3.5293-0.6069 1.5149-1.5619 4.4966-2.1222 6.626-1.8279 6.9469-3.0645 9.8705-5.672 13.41l-1.5817 2.1467 2.2931 2.051c2.4894 2.2266 3.5909 4.1415 3.6031 6.2637 0.004303 0.73993-0.37842 3.0365-0.8504 5.1035-1.6815 7.3635-2.1034 12.827-2.8314 36.667-1.3136 43.012-1.1684 40.225-2.1726 41.698-1.2839 1.8836-0.099213 19.088 1.8074 26.248 3.6774 13.81 3.7841 14.094 6.326 16.839 0.82611 0.89203 1.6825 1.9678 1.9031 2.3906 0.48828 0.93579 0.5224 2.1218 0.065704 2.2816-0.18451 0.064514-0.43961 0.77356-0.5669 1.5757-0.2167 1.3649-0.14203 1.5455 1.1638 2.8157 1.1195 1.0889 1.4461 1.7052 1.6519 3.1171 0.3204 2.1972 1.2743 4.407 2.6548 6.15 2.3706 2.9931 7.5148 18.246 7.9976 23.713l0.2128 2.4099-58.92-0.1864c-35.294-0.11169-59.816-0.32342-61.156-0.52802-2.7598-0.42163-3.1743-0.7688-2.3747-1.9892l0.5973-0.9117-2.2168 1.1221c-1.2193 0.61719-3.0088 1.3445-3.9767 1.6163-2.479 0.69629-10.218 0.94134-11.791 0.37335zm63.706-298.86c0-0.72101-1.3822-2.3352-1.9995-2.3352-0.4137 0-0.4837 0.22675-0.29819 0.96591 0.13339 0.53128 0.4075 1.1648 0.60919 1.4079 0.49109 0.59174 1.6885 0.56436 1.6885-0.038544zm186.92 297.14c-0.48538-2.5101-1.0927-3.6673-2.0906-3.984-1.3994-0.44415-1.5792-1.8583-1.3377-10.516 0.21777-7.8074 0.8902-17.492 1.6045-23.112 0.9378-7.3772 0.77429-15.694-0.5014-25.517-1.4786-11.386-1.7149-16.186-1.7234-35.02-0.010406-23.208 0.453-30.702 2.9708-48.043 3.316-22.838 3.3421-23.217 3.324-48.219-0.016327-22.474-0.15591-25.483-1.7309-37.308-1.1924-8.9526-1.6916-14.521-1.428-15.926 0.20059-1.0693 0.32608-1.1843 1.0847-0.99387 1.0595 0.2659 1.0933-0.21439 0.31061-4.4228-0.60489-3.253-3.2367-13.007-3.6148-13.397-0.1319-0.13614-2.0336 1.0068-4.2261 2.54-2.1925 1.5331-5.4383 3.5198-7.213 4.4148-1.7746 0.89502-3.3435 1.811-3.4863 2.0355-0.14291 0.22455-0.26221 1.0649-0.2652 1.8676-0.007324 1.9754-1.6352 3.4634-4.1707 3.812-1.0425 0.14337-2.011 0.51779-2.3724 0.91708-0.97848 1.0813-2.2435 0.80188-5.7232-1.2641-5.3828-3.1959-5.7247-3.3235-10.36-3.8672-4.7413-0.55606-9.9547-1.7713-13.169-3.0696-2.1743-0.87826-4.7177-2.2891-9.3817-5.2042-3.2049-2.0031-5.3621-2.5196-6.7435-1.6145-0.75449 0.49442-0.87799 0.83716-0.87039 2.4159 0.004791 1.0118 0.37289 3.507 0.81799 5.5449s0.7468 3.8927 0.67041 4.1218c-0.087921 0.26382-0.52631 0.33911-1.1952 0.20535l-1.0563-0.2113 0.2512 1.3689c0.13818 0.7529 0.78131 2.8735 1.4291 4.7126 2.0485 5.8147 1.4021 5.6243-1.7923-0.52795-1.1056-2.1294-2.4527-4.3467-2.9935-4.9275-1.453-1.5604-1.8331-2.4947-2.1446-5.2727-0.32269-2.8779-1.2421-5.4622-1.9432-5.4622-0.62451 0-1.2723 2.3435-2.5783 9.3271-1.4703 7.8626-1.7515 10.235-2.0118 16.976-0.45419 11.761 0.95801 19.118 5.6545 29.461l0.9486 2.089-1.6962-1.8819c-4.057-4.501-4.7439-5.9688-6.6535-14.217-1.8977-8.197-2.3487-12.91-1.9075-19.932 0.52017-8.2779 0.77878-10.559 1.197-10.56 0.2135-3.36e-4 0.8338-0.70581 1.3783-1.5678 0.88199-1.3961 0.98941-1.8859 0.98361-4.4869-0.00351-1.6059-0.40552-6.3504-0.89331-10.543-0.98361-8.4553-1.7339-11.332-4.8348-18.539-2.0899-4.8568-3.8127-9.4172-3.8127-10.092 0-0.30377 0.34549-0.4577 0.93368-0.41596 0.75821 0.053833 0.9873-0.12805 1.2191-0.96777 0.35989-1.3038-0.17941-5.3197-1.3263-9.8768-1.3019-5.1729-1.5792-8.7062-1.1325-14.43 0.21149-2.7101 0.4989-5.0516 0.6387-5.2034 0.1398-0.15173 1.3344 1.632 2.6547 3.964 1.3203 2.3319 2.4607 4.1798 2.5342 4.1062 0.073517-0.073547-0.040985-0.90701-0.2547-1.8522-0.5347-2.3666-1.3971-9.4423-1.3874-11.384l8e-3 -1.5972 1.2119 1.9358c0.66669 1.0647 2.0318 3.5592 3.0336 5.5434 1.0019 1.9842 2.0326 3.6076 2.2905 3.6076 0.5917 0 7.1677-5.2841 12.409-9.9712 7.3415-6.5652 11.602-12.083 17.031-22.058 1.6332-3.0005 3.4987-6.3265 4.1455-7.3912 1.5285-2.5159 4.167-5.9834 4.5529-5.9834 0.6969 0 6.303-5.7204 9.4647-9.6576 4.2066-5.2386 7.0976-9.5522 8.5323-12.731 1.6212-3.5922 3.904-6.5729 6.7536-8.8183 1.3944-1.0988 2.6059-2.0545 2.6922-2.1239 0.086304-0.069427-1.0224-1.3274-2.4637-2.7955-1.7315-1.7636-3.2608-2.9586-4.5072-3.522-1.0375-0.46899-3.1085-1.8914-4.6022-3.161s-4.2829-3.2041-6.1982-4.2989c-2.1089-1.2055-3.6902-2.363-4.0094-2.9349-0.47272-0.84689-0.44391-1.9725 0.2796-10.911 1.3461-16.631 1.8672-20.31 3.7727-26.642 0.66278-2.2023 1.2086-4.3404 1.2129-4.7515 0.004211-0.41101 0.3132-1.4204 0.68671-2.2432 0.53259-1.1734 0.86649-1.4958 1.5493-1.4958 0.8389 0 0.8681-0.078735 0.80911-2.188-0.053009-1.8942 0.028595-2.2062 0.60718-2.3237 0.42911-0.087128 1.0844 0.31833 1.8299 1.132 1.7866 1.9501 2.9304 1.6217 2.3002-0.66052-0.18741-0.67859-0.2171-1.3102-0.066101-1.4035 0.4783-0.29556 5.3769 1.2172 7.9768 2.4633 4.5439 2.1779 7.661 4.989 10.973 9.8961 1.4674 2.174 3.2832 3.6401 4.5161 3.6466 2.4566 0.012756 7.2079 3.8415 11.57 9.3236 6.5901 8.2818 12.164 18.074 16.57 29.112 2.4938 6.2466 3.8768 8.5392 7.0891 11.752 4.2165 4.2165 15.214 12.694 18.333 14.131 2.1219 0.97794 3.4381 0.9555 7.1093-0.12109 3.3237-0.9747 10.702-0.89944 16.366 0.16693 5.9738 1.1245 12.144 2.717 15.838 4.0877 5.0881 1.8878 6.636 2.2462 13.712 3.1748 12.173 1.5974 20.602 3.3083 23.446 4.7593 0.73132 0.37308 3.1749 1.7927 5.4301 3.1548 2.2553 1.362 4.7617 2.8111 5.5699 3.2202 2.1457 1.0861 11.039 7.0547 14.96 10.04 1.8622 1.4179 3.5482 2.5774 3.7467 2.5767 0.77496-0.002838 2.6265-1.4394 6.2457-4.846 6.3118-5.9411 8.254-6.9274 13.647-6.931 4.1885-0.002747 7.1706 0.87051 11.16 3.2679 3.6975 2.2223 6.2694 4.4289 9.581 8.2203 3.4528 3.9528 4.8547 6.6135 7.7994 14.801 1.3288 3.6947 2.7421 7.0646 3.1405 7.4887 0.40491 0.43103 1.5636 0.95889 2.6272 1.1969 4.6135 1.0325 5.9133 3.4159 7.408 13.584 1.6653 11.329 7.5068 23.814 11.53 24.644 2.5534 0.52682 4.4961 2.4722 8.6052 8.6168 3.331 4.981 4.487 7.9043 7.4464 18.83 1.7248 6.368 3.333 14.274 4.1164 20.238 0.76672 5.8366 0.51465 12.815-0.71844 19.886-1.7114 9.8137-1.586 12.977 0.79504 20.057l1.3038 3.8766 0.218-2.6397c0.11975-1.4518 0.23938-4.8571 0.26581-7.5673 0.026245-2.7101 0.14905-6.4572 0.27289-8.3268l0.2251-3.3993 2.6252 0.9254c5.24 1.8472 7.8938 6.4026 9.2654 15.904 0.62164 4.3062 0.5271 15.398-0.1831 21.47-1.8938 16.192-4.0716 20.985-14.553 32.029-7.6154 8.0237-8.175 8.9785-13.209 22.541-5.5668 14.999-10.324 25.063-13.969 29.55-1.1793 1.4518-2.5098 3.4412-2.9568 4.4208-0.4469 0.97961-2 3.1178-3.4513 4.7515-1.4512 1.6337-3.5213 4.3448-4.6001 6.0247s-2.2788 3.2241-2.6665 3.4316c-1.2613 0.67505-2.2919 0.43634-3.2737-0.75824l-0.9385-1.142-1.9382 0.6589c-1.0661 0.3623-2.1812 0.56555-2.4782 0.45166-0.297-0.11395-0.94208-0.8443-1.4337-1.623-1.2324-1.9523-2.263-2.5278-5.0808-2.8372-1.3332-0.14636-2.6-0.37488-2.8153-0.50794-0.70868-0.43799-0.40973-1.2062 0.84058-2.1599 2.1813-1.6637 1.3248-2.9566-1.5331-2.3144-2.3824 0.53528-2.5156-0.031067-1.0287-4.372 0.69202-2.02 1.1318-3.6727 0.97742-3.6727-0.15442 0-1.057 0.8493-2.0056 1.8873-1.7604 1.9262-2.565 3.7688-2.5748 5.8967-0.00708 1.5277-0.75146 4.5662-1.6811 6.8619-1.0637 2.6266-1.8773 6.8369-2.1349 11.047l-0.2261 3.6956-2.9917-3.7962c-4.2078-5.3394-5.0814-7.1395-5.0326-10.37 0.02124-1.4034-0.10077-2.5517-0.27106-2.5517-0.17035 0-0.57062 0.50464-0.88965 1.1215-0.96307 1.8626-0.49237 4.5137 1.7185 9.6774 1.0624 2.4813 2.1248 5.1575 2.3609 5.9469 0.23614 0.78943 1.3572 2.5997 2.4913 4.0226 1.535 1.9258 2.1327 2.9985 2.3382 4.196 0.29669 1.7289 0.34052 13.267 0.16589 43.668-0.079102 13.767 0.0047 19.58 0.29669 20.59 0.87622 3.0316 0.84381 3.5994-0.26959 4.7126-1.1441 1.1442-3.5962 1.9674-4.8917 1.6423-1.0589-0.26581-1.0776-1.19-0.12866-6.355 0.38721-2.1073 0.69757-5.0283 0.68988-6.4913-0.013672-2.5836-0.02948-2.6315-0.55017-1.6709-0.29492 0.54388-0.74042 2.5663-0.99011 4.4944-0.24963 1.9281-0.56988 3.6213-0.71161 3.7626-0.42688 0.42596-1.906-1.5878-2.3358-3.1801-0.60998-2.2598-1.0147-5.4496-1.0226-8.0587-0.008789-2.9017-0.862-7.5029-1.6002-8.6296-0.46198-0.70514-0.7428-0.80621-1.7267-0.62158-0.6463 0.12122-1.2549 0.087402-1.3525-0.075134-0.097534-0.1626-0.005127-1.1274 0.20538-2.1442 0.28467-1.3752 0.27856-1.9526-0.023987-2.2552-0.6264-0.62634-1.3673 0.18842-1.6226 1.7842-0.28632 1.7911-1.178 2.1544-2.2446 0.91443-0.4361-0.50702-0.79285-1.1506-0.79285-1.4302 0-1.0783-0.69562-0.43726-1.0716 0.98755-2.2242 8.4295-6.1487 15.677-11.207 20.698-4.4661 4.4332-6.3756 5.4907-6.3756 3.531 0-1.2939-0.64661-1.1024-2.9899 0.8855l-2.3373 1.983 0.1888-1.1862c0.10394-0.6524 0.3692-2.9045 0.58984-5.0045 0.22046-2.1001 0.77289-5.0239 1.2275-6.4974 0.45459-1.4735 0.75122-2.7545 0.659-2.8466-0.3465-0.3465-4.3616 4.1799-5.2329 5.8992-0.89679 1.7697-2.2799 2.8635-3.621 2.8635-0.35205 0-1.9012 0.63354-3.4425 1.4078-1.5413 0.77435-3.0034 1.4079-3.249 1.4079-0.82367 0-0.4718-2.3656 1.1116-7.4708 2.8526-9.1974 5.1858-17.304 6.0047-20.862 0.44537-1.9358 1.1286-4.7204 1.5181-6.188 0.8219-3.0969 2.0441-11.841 1.7027-12.183-0.43286-0.43292-1.242 1.1123-2.9846 5.6999-2.7484 7.2354-11.646 35.222-13.504 42.472-0.58252 2.2739-0.97211 3.1678-1.4459 3.3182-2.336 0.74139-11.903 0.90784-62.221 1.0826l-55.469 0.1927-0.433-2.2391zm231.21-61.839c0-0.21436 0.396-1.2851 0.87988-2.3794 1.0794-2.4408 1.1363-3.8519 0.17602-4.3658-0.38721-0.20721-0.70392-0.57458-0.70392-0.81641 0-0.85138-2.0813-1.7422-3.5292-1.5107-1.7281 0.27631-3.1581-0.25232-3.1581-1.1674 0-0.38294 1.9345-3.2773 4.2988-6.4321 8.2971-11.07 13.356-20.158 17.388-31.234 1.7778-4.8836 2.9986-9.2761 5.5697-20.039 2.705-11.324 4.7118-18.48 7.3886-26.349 2.029-5.9641 3.1014-8.3784 4.8629-10.948l1.0493-1.5305 1.7152 1.6894c1.7348 1.7087 2.4223 3.111 2.3116 4.7153-0.054749 0.7948 0.083801 0.89032 1.4335 0.98804 2.3239 0.16821 2.3443 0.27582 2.0791 10.97-0.58038 23.401-3.2291 40.033-8.7455 54.916-1.9832 5.3501-7.6864 16.683-9.7754 19.424-3.5728 4.6883-11.67 10.673-17.707 13.089-2.6868 1.0749-5.5331 1.5799-5.5331 0.98181zm-430.61-14.809c-0.39871-0.64508 0.27328-1.4585 2.2012-2.6644 2.1941-1.3724 7.0716-3.5026 7.3599-3.2144 0.62381 0.62378-1.1161 2.1371-5.6096 4.8791-2.1054 1.2848-3.5495 1.6502-3.9515 0.9997zm108.08-62.852l-2.0967-2.282-1.5212 1.4022c-1.3389 1.2342-1.7263 1.4022-3.2327 1.4022-2.2411 0-5.1108-1.4333-8.3811-4.1861-2.574-2.1666-5.5239-5.551-5.2395-6.0112 0.088684-0.14362 0.978-0.35785 1.976-0.47607 4.427-0.52429 5.4477-3.3591 3.6713-10.196-0.47839-1.8416-1.127-4.0367-1.4413-4.878-1.3838-3.7053-0.9003-4.5289 1.7477-2.9771 2.6201 1.5355 6.195 6.6216 6.195 8.814 0 1.2101 0.64471 1.4721 1.5052 0.61163 0.66138-0.66132 0.69608-0.90607 0.36838-2.5944-0.19898-1.0253-0.7345-3.2288-1.19-4.8968-0.77112-2.8237-0.78802-3.0727-0.24481-3.6159 0.5433-0.54321 0.61279-0.52826 1.0097 0.21686 0.8074 1.5157 2.9698 2.7896 5.2107 3.0696 0.85559 0.10687 1.6133 0.36865 1.6836 0.58173 0.070404 0.21307-0.51599 1.1633-1.303 2.1118-1.7821 2.1476-1.7823 3.2222-4.88e-4 4.0635 0.67749 0.31995 1.9619 0.67938 2.8542 0.79871 1.6752 0.22406 2.6111 0.92804 2.8314 2.1299 0.1134 0.61835 0.2814 0.55267 1.5749-0.61597 1.7946-1.6213 2.7374-1.6774 3.4973-0.20801 0.66199 1.2803 0.53778 3.2181-0.358 5.5815-0.32892 0.86798-0.9722 3.4021-1.4295 5.6315-1.4009 6.8292-2.4164 8.8048-4.526 8.8048-0.85959 0-1.468-0.43921-3.1611-2.2821zm-16.682-12.734c-0.60318-0.24335-0.5734-2.2306 0.033417-2.2306 0.71829 0 1.7513 1.31 1.5161 1.9227-0.2074 0.54059-0.72028 0.64252-1.5495 0.30792zm-151.78-9.3787c-0.003311-1.04 0.13039-1.6087 0.34659-1.4751 0.4476 0.27661 0.4476 1.9472 0 2.6397-0.2464 0.38135-0.3427 0.057983-0.34659-1.1646zm172.98 0.2825c-0.77429-0.47882-1.685-0.96985-2.0238-1.0912-0.50159-0.17963-0.61591-0.64917-0.61591-2.5286v-2.3081l0.9679 0.8533c0.53232 0.4693 1.3028 1.2413 1.7122 1.7154 0.40939 0.47418 1.2805 1.0418 1.9358 1.2615 1.2926 0.43323 1.7507 1.566 0.99939 2.4713-0.59848 0.72107-1.36 0.62549-2.9756-0.37354zm-8.1112-10.541c-1.0513-1.0513-1.1553-2.3038-0.19128-2.3038 0.74149 0 2.4951 1.8743 2.4951 2.6668 0 0.7959-1.359 0.58179-2.3038-0.36298zm-4.1977-6.5798c-2.9601-3.5179-6.1035-13.096-6.6826-20.361-0.15509-1.9452-0.52338-3.6212-1.0529-4.7914-0.7811-1.7259-1.2141-2.162-4.7675-4.8016-1.5998-1.1884-2.1149-2.1611-1.4802-2.7958 0.50302-0.50299 1.6128 0.17084 4.4765 2.7177 1.3585 1.2081 2.784 2.2549 3.1677 2.3262 0.97049 0.18024 3.121 4.4081 4.0109 7.8854 0.39459 1.5416 1.1953 5.4164 1.7793 8.6105 0.58411 3.194 1.3798 6.9156 1.7684 8.27 1.1769 4.103 0.70868 5.2319-1.2196 2.9404zm17.638-18.26c-0.5531-0.16577-1.3021-0.56964-1.6644-0.89752-1.0291-0.93134-2.6506-5.7798-1.933-5.7798 0.081604 0 1.511 0.71271 3.1763 1.5839 1.6654 0.87109 3.3964 1.5838 3.8468 1.5838 1.5929 0 6.0914 2.8462 5.6436 3.5709-0.23889 0.38648-7.7444 0.33588-9.0693-0.061157zm-15.683-24.54c-0.99069-3.7421-1.4753-10.647-0.74719-10.647 0.72461 0 1.7733 5.4401 1.7733 9.1991 0 2.9638-0.45493 3.6056-1.0261 1.4478zm-3.5295-25.933c-0.6217-0.74918 0.00238-2.5846 1.7865-5.2533 1.3096-1.959 1.6139-2.2274 2.1809-1.924 0.68253 0.36526 0.68192 0.42313-0.034576 3.6337-0.74683 3.3459-2.6636 5.073-3.9328 3.5436zm-59.238-28.381c-0.72589-0.38324-1.3199-0.80582-1.3199-0.93912s0.40051-0.56506 0.88989-0.95947c1.1562-0.93188 1.4617-3.3666 0.86612-6.9045-0.32471-1.9292-0.96222-3.6236-2.4392-6.4834-2.103-4.0716-3.1098-6.7072-2.7137-7.1034 0.60031-0.60031 4.3613 3.9945 6.6744 8.1543 1.9448 3.4974 3.0791 6.9648 3.283 10.036 0.1492 2.2476 0.067902 2.8097-0.5477 3.7836-0.61108 0.96683-0.92798 1.1415-2.048 1.1283-0.72882-0.008575-1.919-0.32913-2.6449-0.71234zm68.133-0.6007c-0.22641-0.14404-1.0087-1.3674-1.7385-2.7186s-2.6308-4.458-4.2246-6.9041-3.3655-5.3779-3.9372-6.5151c-0.98169-1.9528-1.7353-4.3554-1.3662-4.3554 0.092621 0 1.0788 1.4651 2.1914 3.2557 1.1127 1.7906 2.9775 4.5098 4.1441 6.0427 2.3127 3.0388 6.5746 10.143 6.5746 10.958 0 0.53885-0.95261 0.67581-1.6436 0.23627zm-80.031-2.4839c-0.8606-0.54822-2.1657-1.6652-2.9003-2.4821-2.4946-2.7744-2.6061-4.3196-0.53409-7.4052l1.4739-2.195-0.6097-2.2883c-0.94122-3.532-2.2354-10.138-2.8511-14.552-0.63641-4.5627-0.37842-5.4847 1.0408-3.7201 1.593 1.9807 3.1008 5.7005 4.2911 10.586 0.66028 2.7101 1.5186 5.7903 1.9075 6.8448 0.83478 2.2642 2.8763 5.1704 3.8488 5.4791 0.74091 0.23514 0.86661 0.92041 0.70889 3.8664-0.15869 2.9672-1.4499 5.2441-3.6115 6.3688-1.1896 0.61896-0.93021 0.66611-2.7643-0.50229zm28.528-51.889c-0.48401-0.25156-1.0887-0.89276-1.3439-1.425-0.71228-1.4855-0.010406-3.0088 2.5912-5.6232 2.9522-2.9667 2.9617-3.4173 0.073181-3.4753-1.862-0.037384-4.0839 1.0379-10.14 4.9074-5.5625 3.5539-7.7467 4.6514-9.257 4.6514-1.3631 0-1.7843-0.61258-1.2989-1.8893 0.3172-0.83432 1.1043-1.5428 3.7517-3.3768 1.2567-0.87058 1.47-1.2121 1.6271-2.6061 0.1308-1.1602 0.72888-2.4502 2.1614-4.6616 2.0125-3.1068 2.5026-4.9141 1.5405-5.6809-0.24191-0.19287-1.2291-0.46503-2.1936-0.60489-2.5196-0.36523-5.2323-1.466-11.621-4.7154l-5.6315-2.8643 5.9834 0.1809c3.2909 0.099457 8.28 0.25171 11.087 0.33826l5.1035 0.1574-3.8716-0.8217c-6.8509-1.454-9.6652-2.9499-10.445-5.552-0.31641-1.0563-0.70038-1.5564-1.3966-1.8192-0.82928-0.31302-0.93179-0.50479-0.7515-1.4061l0.2087-1.0437-2.783 0.2194c-1.5306 0.12067-4.7628 0.63205-7.1825 1.1364-3.3688 0.70212-4.9338 0.86588-6.6795 0.69891-2.5375-0.24271-3.2349-0.69376-4.3004-2.7815-0.81079-1.5888-0.54068-1.952 1.4768-1.986 2.1893-0.036865 4.2653-0.59216 5.4015-1.4449 1.0183-0.76425 1.3711-0.82089 4.2775-0.6864 6.1917 0.28644 6.618 0.25488 7.7825-0.57574 1.9408-1.3845 9.9997-2.1846 24.07-2.3898 10.382-0.15146 13.555-0.45279 16.879-1.6031 2.2975-0.79507 2.8311-0.70248 2.8311 0.49127 0 1.0723-2.3409 4.9578-4.0475 6.7181-2.6558 2.7394-3.1028 2.8406-12.671 2.8707-10.264 0.032257-11.087 0.066254-11.087 0.45871 0 0.32675 1.3433 0.91391 2.8157 1.2307 0.48401 0.1041 1.1967 0.43072 1.5838 0.72586 1.2455 0.94928 0.022705 1.2935-4.1937 1.1807-2.7429-0.073395-3.8819 0.017365-3.9823 0.31741-0.36508 1.091 6.1422 1.7893 17.891 1.9199l8.6595 0.0962 3.7456-3.3869c7.0644-6.3878 10.231-8.3765 13.338-8.3765 2.7896 0 3.4337 0.59784 3.4337 3.1876 0 1.1505 0.1424 2.0918 0.31659 2.0918 0.1741 0 1.1598-0.63351 2.1903-1.4078 2.234-1.6786 3.8284-1.9078 3.8284-0.55026 0 0.62357-0.69132 1.4638-2.5337 3.0797-6.7227 5.8958-8.6091 8.2008-11.069 13.526-1.184 2.5626-1.8743 5.0625-1.3979 5.0625 0.12399 0 1.4086-1.097 2.8546-2.4378 3.033-2.8122 3.7281-3.1343 4.9858-2.3103 0.7518 0.49258 0.8641 0.77017 0.6813 1.6841-0.508 2.5399-5.2225 5.8255-12.666 8.8268-4.3201 1.742-7.9093 4.0749-11.49 7.4678-4.1977 3.9783-7.0988 5.3359-9.1373 4.2763zm49.175-1.4219c-0.13382-0.3483-0.14612-2.2489-0.027313-4.2236 0.36209-6.0167-0.944-11.51-2.7368-11.51-0.82022 0-0.82312-0.050842 0.22739 3.8716 0.8313 3.1036 0.89349 7.5253 0.11679 8.302-0.53659 0.53659-0.61618 0.51822-1.101-0.25415-0.28742-0.45792-0.61221-2.0996-0.7218-3.6483-0.10959-1.5486-0.43741-4.5518-0.72852-6.6736-0.29098-2.1219-0.48477-3.9022-0.43057-3.9565 0.054199-0.054138 1.0105 0.13907 2.1252 0.42941 4.6155 1.2022 10.416 6.9729 10.416 10.363 0 0.58844-0.14511 1.0699-0.32242 1.0699-0.1774 0-1.1815-0.94928-2.2314-2.1095-1.05-1.1602-2.0136-2.0049-2.1414-1.8771-0.12769 0.12781-0.23908 1.275-0.24738 2.5495-0.017303 2.663-1.7694 8.779-2.1965 7.6672zm-2.1879-40.931c-6.249-2.277-10.642-3.6729-12.214-3.8816-2.8938-0.38385-3.4083-2.2234-0.97388-3.4823 1.3473-0.69672 7.1125-1.2408 10.724-1.0122 4.1395 0.26212 5.6408 0.73489 6.9049 2.1746 1.0327 1.1762 1.0806 1.3625 0.94928 3.6869-0.2084 3.6874-1.0696 4.0891-5.3904 2.5146zm-26.661-2.9827c-1.0587-0.62439-0.73349-1.6618 0.75961-2.4236 3.0408-1.5513 5.664-1.1785 4.4005 0.62546-1.0021 1.4307-4.0074 2.4779-5.1601 1.7981zm-88.466-9.015c-0.86771-1.967-1.002-5.1534-0.3459-8.2075 0.3119-1.4519 0.7543-4.9134 0.9832-7.6924 0.383-4.6501 0.4807-5.095 1.2254-5.5829 1.0104-0.66205 3.0281-0.34711 3.9995 0.62427 1.2922 1.2922 0.54311 6.9982-1.6839 12.827-0.5177 1.3551-1.345 3.9553-1.8383 5.7784s-1.0882 3.3783-1.322 3.456c-0.23381 0.077759-0.69191-0.46353-1.018-1.2028zm62.091-6.7843c-3.1302-0.57428-5.7795-2.3687-11.195-7.5826-2.815-2.7101-6.7146-6.3013-8.6659-7.9805-7.0071-6.0301-9.1276-9.4701-6.2883-10.202 0.58398-0.15045 2.1437-1.1893 3.466-2.3086 5.5362-4.6861 6.0081-4.9305 7.2863-3.7737 0.33362 0.30197 1.6132 0.92065 2.8434 1.3748 1.2302 0.45419 3.583 1.3924 5.2285 2.0848 1.6454 0.69244 3.1969 1.2617 3.4477 1.2649 0.2572 0.003326-0.088196-0.70703-0.7919-1.6285-1.4328-1.8765-1.5676-2.5891-0.4899-2.5891 1.1282 0 5.0497 2.3113 5.4523 3.2136 0.21521 0.48224 0.8826 0.93359 1.7333 1.1722 1.3236 0.37131 1.3843 0.45206 1.4052 1.8693 0.016296 1.1032 0.3411 1.9392 1.2729 3.276 1.266 1.8165 4.6925 4.8994 5.4453 4.8994 1.0091 0 5.3183-6.1986 6.4944-9.342 0.61621-1.6469 0.9967-2.0748 3.0617-3.443 2.7129-1.7976 3.7375-2.8139 4.2801-4.2461 0.49802-1.3143 0.31952-1.4473-1.0159-0.75674-1.0094 0.52197-1.1122 0.52118-1.3161-0.010315-0.37009-0.96454 0.20493-8.5526 0.7464-9.8484 0.62582-1.4977 1.2471-1.5308 2.5373-0.13528 1.2837 1.3885 2.6204 2.0885 3.988 2.0885 1.221 0 2.815 1.3336 2.8206 2.3597 0.007782 1.4335 1.7235 4.2269 3.713 6.0452l2.0695 1.8914-2.4085 4.7102c-2.7908 5.4578-4.7653 8.3646-6.1782 9.0952-0.83029 0.42932-1.0661 0.43747-1.3893 0.048065-0.52359-0.63089 0.10901-2.3647 2.5861-7.0877 2.7455-5.235 2.6143-6.5241-0.35342-3.4706-1.9646 2.0214-4.2335 5.8633-5.3776 9.1057-0.7482 2.1205-0.86279 3.0232-0.81338 6.4091 0.043396 2.9711-0.058807 4.0105-0.41501 4.2236-0.25989 0.15546-1.0021 1.2846-1.6493 2.5092-1.9405 3.6715-4.0488 5.0267-9.6733 6.218-3.0559 0.64725-9.6497 0.95081-11.857 0.54587zm-13.513-46.326c-0.12991-0.69241-0.16641-3.4473-0.081024-6.1219 0.12131-3.8016 0.28641-5.0631 0.75632-5.7803 0.72559-1.1074 1.2526-1.148 2.4701-0.19037 1.9254 1.5146 2.4487 6.1395 1.0693 9.451-0.58292 1.3995-2.8515 3.9005-3.538 3.9005-0.24231 0-0.54681-0.56656-0.6767-1.259zm36.645-6.6854c-0.32541-2.6045-0.93192-3.9639-2.7819-6.2352-2.2645-2.7803-2.5634-3.4361-1.8152-3.9832 1.9986-1.4614 5.8169 4.4436 5.8169 8.9959 0 3.5949-0.82059 4.4173-1.2198 1.2225zm120.56-19.602c-0.46869-0.23914-0.90878-0.60666-0.97788-0.81674-0.17502-0.53119 1.4418-2.0817 3.9417-3.7803 4.9544-3.3662 6.8427-5.7819 15.318-19.595 8.0627-13.141 10.407-16.452 11.134-15.725 0.7424 0.74234-0.2659 6.8827-2.3221 14.141-0.7677 2.7101-1.6574 6.3517-1.9771 8.0924-0.70602 3.8438-1.7626 6.0215-4.1502 8.5535-5.4435 5.7728-17.369 10.966-20.966 9.1302zm-233.56-97.771c-10.404-0.67302-15.251-1.2217-16.933-1.9166-0.6751-0.27893-2.022-1.6476-3.5136-3.5705-1.3303-1.715-3.4074-4.286-4.6158-5.7132-1.5807-1.8671-2.4943-3.3659-3.2567-5.343-1.6529-4.2862-3.8856-12.934-3.8856-15.05 0-0.67535 1.2389-2.6003 4.2207-6.5581 6.2315-8.2714 13.881-19.904 13.089-19.904-0.1954 0-1.5963 0.46918-3.1131 1.0426-5.1367 1.942-8.0757 2.5732-11.187 2.4023-2.0222-0.11109-3.2767-0.38408-4.3798-0.95304-2.1877-1.1284-4.8395-3.7097-5.0881-4.9528-0.1411-0.70528-0.6552-1.3187-1.611-1.922-0.77211-0.4874-1.555-1.1687-1.7398-1.5139-0.37309-0.69715-0.8295-3.8219-1.6235-11.115-0.2916-2.6783-0.63269-5.0355-0.75809-5.2384-0.1517-0.24545-1.5227-0.28692-4.0983-0.12395l-3.8703 0.2449 0.2399-1.5005c0.13199-0.82526 0.6971-2.3002 1.2557-3.2776 2.4747-4.3296 2.8395-5.205 3.1855-7.6449 0.7907-5.5751-0.7907-16.559-3.3611-23.345-0.5132-1.3551-1.1483-3.6855-1.4114-5.1788-0.263-1.4933-0.8033-3.8069-1.2008-5.1414-0.3974-1.3345-0.72261-2.7444-0.72261-3.1331 0-1.1418 2.3579-5.524 3.8515-7.158 0.9133-0.99913 1.9236-2.8238 2.9938-5.4069 1.7217-4.1554 3.5412-7.5944 4.0182-7.5944 0.6682 0 1.4801 1.4521 2.8414 5.0824 1.9799 5.2797 3.0855 9.5792 3.5352 13.748 0.4505 4.1767 0.65489 5.0394 2.501 10.559 0.7769 2.323 1.582 4.7779 1.789 5.4554 0.20711 0.67754 0.7615 1.7467 1.232 2.3759 1.1461 1.5326 1.8754 3.3484 1.8754 4.6696 0 1.4866 0.81659 2.9395 1.9399 3.4513 0.5152 0.23476 2.0714 0.60051 3.458 0.81279 4.5894 0.70253 6.2169 1.0558 6.2169 1.3494 0 0.69516-3.9407 2.7112-8.7258 4.4641-5.9325 2.1732-11.907 4.9874-12.887 6.07-0.97209 1.0741-0.3064 0.94069 3.9477-0.79139 2.0693-0.84254 4.2376-1.6436 4.8183-1.7801 1.997-0.4695 5.6477-2.0384 13.199-5.6722 4.1619-2.0029 9.2302-4.2173 11.263-4.921 5.8777-2.0349 20.117-5.3107 31.325-7.2066 2.4197-0.40931 6.7386-1.2908 9.5976-1.959 5.7852-1.352 7.1679-1.4421 10.407-0.67855 3.8787 0.91437 6.6925 3.0468 7.3996 5.6078 0.7113 2.5761-2.6297 15.62-5.0654 19.776-0.4942 0.84322-0.74121 1.5331-0.54892 1.5331 0.19232 0 0.044098 0.67313-0.32938 1.4958-0.39072 0.86064-0.68231 2.2858-0.68671 3.356-0.009399 2.2519-0.6377 3.316-2.6567 4.4992-3.1047 1.8195-16.026 6.0441-28.997 9.4804-6.4461 1.7078-8.2612 2.408-8.0311 3.0982 0.076813 0.23026 0.94641 0.53476 1.9325 0.67668 5.651 0.81326 21.356 9.4572 26.835 14.77 1.259 1.2208 3.027 2.6429 3.929 3.1603 1.5153 0.86923 1.671 1.0902 2.0481 2.9067 0.51532 2.4824-0.052887 5.6216-3.4789 19.22-3.464 13.749-5.2571 19.038-6.9228 20.42-0.36191 0.3004-1.8277 0.59325-3.635 0.72624-1.6657 0.12257-3.8997 0.54405-4.9644 0.93662-5.7344 2.1144-9.1427 3.1898-10.559 3.3314-0.87109 0.087143-5.8602-0.11818-11.087-0.45628zm40.756-1.4144c-1.5328-0.46132-2.2155-1.5602-2.2155-3.5664 0-3.8576 1.6794-6.1432 11.851-16.13 7.7174-7.577 12.258-11.326 14.457-11.937 2.8255-0.78467 6.586-0.27476 12.907 1.7501 9.692 3.1046 23.812 10.444 27.105 14.089 1.8869 2.0886 1.65 4.5475-0.56311 5.8442-3.2468 1.9025-9.2837 3.6314-12.73 3.6458-3.6739 0.015335-11.717 2.797-13.637 4.7165-1.1876 1.187-2.6706 1.1874-11.811 0.003281-4.8171-0.62407-7.7008-0.8363-9.2775-0.68283-3.1958 0.31107-7.9901 1.1408-10.053 1.7398-2.491 0.7233-4.733 0.91954-6.0336 0.52812zm74.035-12.304c-1.6114-0.48291-2.2794-1.3433-2.6873-3.4615-0.8414-4.3693-1.1589-5.3118-3.1583-9.3753-2.964-6.0236-7.5986-13.22-13.033-20.238-2.133-2.7544-3.3262-6.0834-2.994-8.3532 0.2861-1.9545 2.1754-5.6472 4.4598-8.7171 1.0083-1.3551 5.2087-5.8016 9.3341-9.8813 4.1254-4.0796 7.5007-7.5965 7.5007-7.8152 0-0.21874-0.58368-0.50723-1.2972-0.64108-1.2611-0.23658-16.189 0.002213-27.212 0.4353l-5.4554 0.2143-3.1677-3.5877c-4.8813-5.5286-14.181-19.622-15.988-24.229-1.9077-4.8636-0.38648-6.3338 8.9491-8.6489 11.644-2.8874 15.52-3.3 35.664-3.7965 19.156-0.47212 23.207-0.30722 31.034 1.2633 7.9261 1.5905 11.644 2.9412 16.852 6.123 2.956 1.8056 4.7179 2.4084 6.0339 2.0642 1.7981-0.47025 7.9117 1.6128 9.1646 3.1226 1.0428 1.2566 0.26889 6.237-1.5545 10.004l-1.1073 2.2878v8.0952c0 6.1194 0.1604 9.1546 0.65732 12.436 0.44568 2.9434 0.54199 4.4559 0.2991 4.6987-0.73462 0.73458-3.0752-2.293-5.2823-6.8327-1.211-2.4907-2.5446-4.7258-3.0632-5.1337-1.0883-0.85606-4.3277-1.3445-5.909-0.89098-0.7587 0.21759-1.1652 0.5898-1.2968 1.1876-0.1423 0.64575-0.80212 1.1774-2.5545 2.0582-2.4578 1.2354-4.2824 1.5036-6.636 0.97524-1.0816-0.24278-1.4176-0.14997-2.3758 0.65631-1.3583 1.1429-1.449 1.9324-0.22211 1.9324 1.8616 0 3.9622 1.6004 9.8742 7.5231 6.3214 6.3328 9.7504 10.37 10.987 12.937 1.0189 2.114 1.9297 7.173 2.0511 11.393 0.055695 1.9358 0.29059 4.3509 0.5221 5.367 0.33231 1.4584 0.32629 2.2703-0.028503 3.8559-1.7839 7.9712-7.9602 14.871-13.322 14.883-1.0192 0.002319-3.0405 0.62515-6.1594 1.898-4.9943 2.0382-7.4048 2.681-10.053 2.681-1.2675 0-2.4575 0.37839-4.846 1.5409-1.7413 0.8475-3.9946 1.7186-5.0073 1.9358-2.1246 0.45566-7.4953 0.47542-8.9717 0.03299zm50.151-13.631c-0.80218-1.499 2.1724-6.4436 6.7682-11.25 2.1215-2.2189 3.1883-3.0505 4.5755-3.5666 1.6122-0.59982 1.8675-0.84026 2.3468-2.2099 0.74588-2.1316 1.8898-2.3106 2.6746-0.41841 0.30679 0.73991 1.3847 2.3748 2.3952 3.6331 2.6681 3.3223 3.0859 4.0637 3.0859 5.4752 0 2.9833-3.7725 4.9974-14.498 7.7407-5.4013 1.3814-6.8641 1.5002-7.3478 0.59642zm26.457-9.1163c-0.31039-0.8089 0.76831-1.6594 6.2988-4.966 8.9673-5.3615 20.154-11.15 22.28-11.528 1.1629-0.2069 2.1549 0.24799 1.7984 0.82468-0.12509 0.20253-1.0861 0.61782-2.1354 0.92288-1.1351 0.32996-3.4494 1.5996-5.713 3.1343-6.583 4.463-20.378 12.196-21.758 12.196-0.30121 0-0.64832-0.26253-0.77142-0.5834zm-247.96-98.574c-1.2133-1.3903-2.8444-5.8198-3.4503-9.3701-0.36079-2.1137-2.2657-7.4069-4.9593-13.78-0.7363-1.7422-1.4382-3.7854-1.5597-4.5405-0.1404-0.8723-0.5887-1.7064-1.2296-2.2878-0.55481-0.50321-1.5509-1.4125-2.2136-2.0207-1.3725-1.2596-1.8167-2.7284-1.0554-3.4897 0.27939-0.27944 0.65509-0.50807 0.8349-0.50807 0.4346 0 1.7347 1.3153 1.7347 1.7551 0 0.62727 2.5862 1.4517 5.6314 1.7952 4.0926 0.4616 5.1135 0.84963 5.9972 2.2795 0.4111 0.66522 0.99429 1.2095 1.2958 1.2095 0.5419 0 3.545 2.3216 6.9615 5.3817l1.7599 1.5762-0.0716 2.8185c-0.1048 4.1306-0.9523 7.3976-2.2723 8.7595-0.595 0.61388-2.2116 3.2988-3.5925 5.9665s-2.6807 4.9019-2.8884 4.965c-0.2077 0.06308-0.62289-0.16636-0.9227-0.50982z"
     fill="#0c5363"
     id="path2"
     style="fill:#e9afaf;fill-opacity:1" />
</svg>
