<?xml version="1.0"?>
<svg version="1.1" xmlns="http://www.w3.org/2000/svg" xmlns:xlink="http://www.w3.org/1999/xlink" width="640" height="480">
    <desc iVinci="yes" version="4.6" gridStep="20" showGrid="no" snapToGrid="no" codePlatform="0"/>
    <g id="Layer1" name="Layer 1" opacity="1">
        <g id="Shape1">
            <desc shapeID="1" type="0" basicInfo-basicType="0" basicInfo-roundedRectRadius="12" basicInfo-polygonSides="6" basicInfo-starPoints="5" bounding="rect(-164.12,-41.1953,328.239,82.3905)" text="" font-familyName="" font-pixelSize="20" font-bold="0" font-underline="0" font-alignment="1" strokeStyle="0" markerStart="0" markerEnd="0" shadowEnabled="0" shadowOffsetX="0" shadowOffsetY="2" shadowBlur="4" shadowOpacity="160" blurEnabled="0" blurRadius="4" transform="matrix(1.83668,0,0,1.83668,325,138)" pers-center="0,0" pers-size="0,0" pers-start="0,0" pers-end="0,0" locked="0" mesh="" flag=""/>
            <path id="shapePath1" d="M597.328,62.3375 C597.328,62.3375 593.886,62.3375 593.886,62.3375 C593.886,62.3375 558.164,62.3375 558.164,62.3375 C558.164,62.3375 177.964,62.3375 177.964,62.3375 C177.964,62.3375 166.001,77.6927 166.001,77.6927 C164.881,79.1141 163.222,79.9399 161.459,79.9399 C161.459,79.9399 116.281,79.9399 116.281,79.9399 C114.52,79.9399 112.862,79.1141 111.743,77.6927 C111.743,77.6927 99.7771,62.3375 99.7771,62.3375 C99.7771,62.3375 52.6937,62.3375 52.6937,62.3375 C36.6062,62.3375 23.5646,75.8441 23.5646,92.5098 C23.5646,92.5098 23.5646,165.926 23.5646,165.926 C23.5646,182.591 36.6062,196.09 52.6937,196.09 C52.6937,196.09 99.8005,196.09 99.8005,196.09 C99.8005,196.09 111.743,211.413 111.743,211.413 C112.862,212.83 114.52,213.662 116.281,213.662 C116.281,213.662 161.459,213.662 161.459,213.662 C163.242,213.662 164.881,212.83 166.001,211.413 C166.001,211.413 177.942,196.09 177.942,196.09 C177.942,196.09 558.164,196.09 558.164,196.09 C558.164,196.09 593.886,196.09 593.886,196.09 C593.886,196.09 597.307,196.09 597.307,196.09 C613.395,196.09 626.435,182.591 626.435,165.926 C626.435,165.926 626.435,92.5098 626.435,92.5098 C626.457,75.8474 613.415,62.3375 597.328,62.3375 Z" style="stroke:#323232;stroke-opacity:1;stroke-width:2;stroke-linejoin:miter;stroke-miterlimit:2;stroke-linecap:round;fill:none;"/>
        </g>
        <g id="Shape2">
            <desc shapeID="2" type="2" basicInfo-basicType="0" basicInfo-roundedRectRadius="12" basicInfo-polygonSides="6" basicInfo-starPoints="5" bounding="rect(-279.046,-29.3869,558.092,58.7738)" text="Beweeg vooruit" font-familyName="Gotham" font-pixelSize="68" font-bold="0" font-underline="0" font-alignment="1" strokeStyle="0" markerStart="0" markerEnd="0" shadowEnabled="0" shadowOffsetX="0" shadowOffsetY="2" shadowBlur="4" shadowOpacity="160" blurEnabled="0" blurRadius="4" transform="matrix(1,0,0,1,324.158,133.542)" pers-center="0,0" pers-size="0,0" pers-start="0,0" pers-end="0,0" locked="0" mesh="" flag=""/>
            <path id="shapePath2" d="M65.4055,156.839 L86.5535,156.839 C96.9575,156.839 103.826,152.011 103.826,143.851 L103.826,143.715 C103.826,137.187 99.2695,133.923 93.6255,132.223 C97.3655,130.591 101.174,127.395 101.174,121.207 L101.174,121.071 C101.174,118.011 100.086,115.495 98.1135,113.455 C95.3935,110.803 91.1095,109.239 85.6695,109.239 L65.4055,109.239 L65.4055,156.839 M70.7095,130.455 L70.7095,114.067 L85.1935,114.067 C91.9935,114.067 95.7335,117.127 95.7335,121.819 L95.7335,121.955 C95.7335,127.531 91.2455,130.455 84.7855,130.455 L70.7095,130.455 M70.7095,152.011 L70.7095,135.215 L85.7375,135.215 C94.0335,135.215 98.3855,138.207 98.3855,143.375 L98.3855,143.511 C98.3855,148.815 93.8975,152.011 86.6895,152.011 L70.7095,152.011 M116.743,141.403 L144.623,141.403 C144.691,140.587 144.691,140.043 144.691,139.567 C144.691,129.231 138.707,120.935 128.303,120.935 C118.579,120.935 111.439,129.095 111.439,139.295 C111.439,150.243 119.327,157.655 128.983,157.655 C135.647,157.655 139.931,155.003 143.467,151.059 L140.203,148.135 C137.347,151.127 133.947,153.099 129.119,153.099 C122.931,153.099 117.491,148.815 116.743,141.403 M116.743,137.187 C117.491,130.387 122.115,125.355 128.167,125.355 C135.103,125.355 138.775,130.795 139.387,137.187 L116.743,137.187 M161.478,157.111 L166.102,157.111 L175.622,129.367 L185.074,157.111 L189.63,157.111 L202.006,121.683 L196.566,121.683 L187.318,149.903 L177.798,121.547 L173.446,121.547 L163.994,149.903 L154.746,121.683 L149.17,121.683 L161.478,157.111 M212.134,141.403 L240.014,141.403 C240.082,140.587 240.082,140.043 240.082,139.567 C240.082,129.231 234.098,120.935 223.694,120.935 C213.97,120.935 206.83,129.095 206.83,139.295 C206.83,150.243 214.718,157.655 224.374,157.655 C231.038,157.655 235.322,155.003 238.858,151.059 L235.594,148.135 C232.738,151.127 229.338,153.099 224.51,153.099 C218.322,153.099 212.882,148.815 212.134,141.403 M212.134,137.187 C212.882,130.387 217.506,125.355 223.558,125.355 C230.494,125.355 234.166,130.795 234.778,137.187 L212.134,137.187 M252.384,141.403 L280.264,141.403 C280.332,140.587 280.332,140.043 280.332,139.567 C280.332,129.231 274.348,120.935 263.944,120.935 C254.22,120.935 247.08,129.095 247.08,139.295 C247.08,150.243 254.968,157.655 264.624,157.655 C271.288,157.655 275.572,155.003 279.108,151.059 L275.844,148.135 C272.988,151.127 269.588,153.099 264.76,153.099 C258.572,153.099 253.132,148.815 252.384,141.403 M252.384,137.187 C253.132,130.387 257.756,125.355 263.808,125.355 C270.744,125.355 274.416,130.795 275.028,137.187 L252.384,137.187 M305.078,167.855 C310.654,167.855 315.346,166.291 318.474,163.163 C321.33,160.307 322.962,156.159 322.962,150.719 L322.962,121.683 L317.726,121.683 L317.726,128.007 C314.87,124.199 310.586,120.935 303.99,120.935 C295.626,120.935 287.466,127.259 287.466,137.527 L287.466,137.663 C287.466,147.795 295.558,154.119 303.99,154.119 C310.45,154.119 314.734,150.787 317.794,146.707 L317.794,150.855 C317.794,159.083 312.762,163.367 305.01,163.367 C299.978,163.367 295.49,161.803 291.478,158.879 L289.098,162.959 C293.79,166.223 299.23,167.855 305.078,167.855 M305.01,149.495 C298.482,149.495 292.838,144.599 292.838,137.527 L292.838,137.391 C292.838,130.183 298.346,125.559 305.01,125.559 C311.674,125.559 317.93,130.251 317.93,137.459 L317.93,137.595 C317.93,144.667 311.674,149.495 305.01,149.495 M366.801,157.111 L371.425,157.111 L386.725,121.683 L381.081,121.683 L369.181,150.855 L357.349,121.683 L351.569,121.683 L366.801,157.111 M408.96,157.655 C419.568,157.655 427.388,149.223 427.388,139.295 L427.388,139.159 C427.388,129.231 419.636,120.935 409.096,120.935 C398.488,120.935 390.736,129.367 390.736,139.295 L390.736,139.431 C390.736,149.359 398.42,157.655 408.96,157.655 M409.096,152.963 C401.684,152.963 396.108,146.843 396.108,139.295 L396.108,139.159 C396.108,131.747 401.344,125.559 408.96,125.559 C416.372,125.559 422.016,131.747 422.016,139.295 L422.016,139.431 C422.016,146.843 416.712,152.963 409.096,152.963 M452.882,157.655 C463.49,157.655 471.31,149.223 471.31,139.295 L471.31,139.159 C471.31,129.231 463.558,120.935 453.018,120.935 C442.41,120.935 434.658,129.367 434.658,139.295 L434.658,139.431 C434.658,149.359 442.342,157.655 452.882,157.655 M453.018,152.963 C445.606,152.963 440.03,146.843 440.03,139.295 L440.03,139.159 C440.03,131.747 445.266,125.559 452.882,125.559 C460.294,125.559 465.938,131.747 465.938,139.295 L465.938,139.431 C465.938,146.843 460.634,152.963 453.018,152.963 M480.756,156.839 L485.992,156.839 L485.992,142.831 C485.992,132.223 492.248,126.715 499.932,126.715 L500.34,126.715 L500.34,121.071 C493.676,120.799 488.576,125.015 485.992,130.863 L485.992,121.683 L480.756,121.683 L480.756,156.839 M521.207,157.587 C527.259,157.587 530.863,154.527 533.243,150.719 L533.243,156.839 L538.411,156.839 L538.411,121.683 L533.243,121.683 L533.243,141.811 C533.243,148.407 528.687,152.827 522.703,152.827 C516.515,152.827 512.979,148.747 512.979,142.219 L512.979,121.683 L507.743,121.683 L507.743,143.511 C507.743,151.875 512.707,157.587 521.207,157.587 M550.298,113.999 L556.282,113.999 L556.282,108.219 L550.298,108.219 L550.298,113.999 M550.638,156.839 L555.874,156.839 L555.874,121.683 L550.638,121.683 L550.638,156.839 M579.801,157.451 C582.317,157.451 584.289,156.907 586.125,155.955 L586.125,151.467 C584.289,152.351 582.793,152.691 581.025,152.691 C577.489,152.691 575.109,151.127 575.109,146.843 L575.109,126.307 L586.261,126.307 L586.261,121.683 L575.109,121.683 L575.109,111.075 L569.873,111.075 L569.873,121.683 L564.977,121.683 L564.977,126.307 L569.873,126.307 L569.873,147.523 C569.873,154.663 574.157,157.451 579.801,157.451 Z" style="stroke:none;fill-rule:nonzero;fill:#000000;fill-opacity:1;"/>
        </g>
    </g>
</svg>
