<?xml version="1.0"?>
<svg version="1.1" xmlns="http://www.w3.org/2000/svg" xmlns:xlink="http://www.w3.org/1999/xlink" width="640" height="480">
    <desc iVinci="yes" version="4.6" gridStep="20" showGrid="no" snapToGrid="no" codePlatform="0"/>
    <g id="Layer1" name="Layer 1" opacity="1">
        <g id="Shape1">
            <desc shapeID="1" type="0" basicInfo-basicType="0" basicInfo-roundedRectRadius="12" basicInfo-polygonSides="6" basicInfo-starPoints="5" bounding="rect(-164.12,-41.1955,328.24,82.391)" text="" font-familyName="" font-pixelSize="20" font-bold="0" font-underline="0" font-alignment="1" strokeStyle="0" markerStart="0" markerEnd="0" shadowEnabled="0" shadowOffsetX="0" shadowOffsetY="2" shadowBlur="4" shadowOpacity="160" blurEnabled="0" blurRadius="4" transform="matrix(1.83187,0,0,1.83187,319,132)" pers-center="0,0" pers-size="0,0" pers-start="0,0" pers-end="0,0" locked="0" mesh="" flag=""/>
            <path id="shapePath1" d="M590.613,56.5353 C590.613,56.5353 587.18,56.5353 587.18,56.5353 C587.18,56.5353 551.552,56.5353 551.552,56.5353 C551.552,56.5353 172.349,56.5353 172.349,56.5353 C172.349,56.5353 160.417,71.8497 160.417,71.8497 C159.3,73.2676 157.645,74.0919 155.887,74.0919 C155.887,74.0919 110.828,74.0919 110.828,74.0919 C109.071,74.0919 107.417,73.2676 106.301,71.8497 C106.301,71.8497 94.3668,56.5353 94.3668,56.5353 C94.3668,56.5353 47.4067,56.5353 47.4067,56.5353 C31.3614,56.5353 18.3539,70.0068 18.3539,86.6292 C18.3539,86.6292 18.3539,159.853 18.3539,159.853 C18.3539,176.473 31.3614,189.937 47.4067,189.937 C47.4067,189.937 94.3901,189.937 94.3901,189.937 C94.3901,189.937 106.301,205.219 106.301,205.219 C107.417,206.633 109.071,207.465 110.828,207.465 C110.828,207.465 155.887,207.465 155.887,207.465 C157.666,207.465 159.3,206.633 160.417,205.219 C160.417,205.219 172.327,189.937 172.327,189.937 C172.327,189.937 551.552,189.937 551.552,189.937 C551.552,189.937 587.18,189.937 587.18,189.937 C587.18,189.937 590.593,189.937 590.593,189.937 C606.64,189.937 619.646,176.473 619.646,159.853 C619.646,159.853 619.646,86.6292 619.646,86.6292 C619.668,70.0087 606.66,56.5353 590.613,56.5353 Z" style="stroke:none;fill-rule:evenodd;fill:#3cbec8;fill-opacity:1;"/>
        </g>
        <g id="Shape2">
            <desc shapeID="2" type="0" basicInfo-basicType="0" basicInfo-roundedRectRadius="12" basicInfo-polygonSides="6" basicInfo-starPoints="5" bounding="rect(-183.623,-32.285,367.246,64.57)" text="" font-familyName="" font-pixelSize="20" font-bold="0" font-underline="0" font-alignment="1" strokeStyle="0" markerStart="0" markerEnd="0" shadowEnabled="0" shadowOffsetX="0" shadowOffsetY="2" shadowBlur="4" shadowOpacity="160" blurEnabled="0" blurRadius="4" transform="matrix(1.83187,0,0,1.83187,38.7478,144.364)" pers-center="0,0" pers-size="0,0" pers-start="0,0" pers-end="0,0" locked="0" mesh="" flag=""/>
            <path id="shapePath2" d="M-297.625,85.2223 C-297.625,85.2223 375.121,85.2223 375.121,85.2223 C375.121,85.2223 375.121,203.506 375.121,203.506 C375.121,203.506 -297.625,203.506 -297.625,203.506 C-297.625,203.506 -297.625,85.2223 -297.625,85.2223 Z" style="stroke:none;fill:none;"/>
        </g>
        <g id="Shape3">
            <desc shapeID="3" type="0" basicInfo-basicType="0" basicInfo-roundedRectRadius="12" basicInfo-polygonSides="6" basicInfo-starPoints="5" bounding="rect(-92.168,-20.1814,184.336,40.363)" text="" font-familyName="" font-pixelSize="20" font-bold="0" font-underline="0" font-alignment="1" strokeStyle="0" markerStart="0" markerEnd="0" shadowEnabled="0" shadowOffsetX="0" shadowOffsetY="2" shadowBlur="4" shadowOpacity="160" blurEnabled="0" blurRadius="4" transform="matrix(1.83187,0,0,1.83187,413.79,131.348)" pers-center="0,0" pers-size="0,0" pers-start="0,0" pers-end="0,0" locked="0" mesh="" flag=""/>
            <path id="shapePath3" d="M244.95,94.378 C244.95,94.378 582.63,94.378 582.63,94.378 C582.63,94.378 582.63,168.318 582.63,168.318 C582.63,168.318 244.95,168.318 244.95,168.318 C244.95,168.318 244.95,94.378 244.95,94.378 Z" style="stroke:#00a2b1;stroke-opacity:1;stroke-width:1;stroke-linejoin:miter;stroke-miterlimit:2;stroke-linecap:butt;fill-rule:evenodd;fill:#82d0d6;fill-opacity:1;"/>
        </g>
        <g id="Shape4">
            <desc shapeID="4" type="0" basicInfo-basicType="0" basicInfo-roundedRectRadius="12" basicInfo-polygonSides="6" basicInfo-starPoints="5" bounding="rect(-76.2518,-19.975,152.504,39.95)" text="" font-familyName="" font-pixelSize="20" font-bold="0" font-underline="0" font-alignment="1" strokeStyle="0" markerStart="0" markerEnd="0" shadowEnabled="0" shadowOffsetX="0" shadowOffsetY="2" shadowBlur="4" shadowOpacity="160" blurEnabled="0" blurRadius="4" transform="matrix(1.83187,0,0,1.83187,72.6651,122.014)" pers-center="0,0" pers-size="0,0" pers-start="0,0" pers-end="0,0" locked="0" mesh="" flag=""/>
            <path id="shapePath4" d="M-67.0182,85.422 C-67.0182,85.422 212.348,85.422 212.348,85.422 C212.348,85.422 212.348,158.605 212.348,158.605 C212.348,158.605 -67.0182,158.605 -67.0182,158.605 C-67.0182,158.605 -67.0182,85.422 -67.0182,85.422 Z" style="stroke:none;fill:none;"/>
        </g>
        <g id="Shape5">
            <desc shapeID="5" type="0" basicInfo-basicType="0" basicInfo-roundedRectRadius="12" basicInfo-polygonSides="6" basicInfo-starPoints="5" bounding="rect(-164.12,-41.195,328.24,82.39)" text="" font-familyName="" font-pixelSize="20" font-bold="0" font-underline="0" font-alignment="1" strokeStyle="0" markerStart="0" markerEnd="0" shadowEnabled="0" shadowOffsetX="0" shadowOffsetY="2" shadowBlur="4" shadowOpacity="160" blurEnabled="0" blurRadius="4" transform="matrix(1.83187,0,0,1.83187,327.773,345.043)" pers-center="0,0" pers-size="0,0" pers-start="0,0" pers-end="0,0" locked="0" mesh="" flag=""/>
            <path id="shapePath5" d="M599.386,269.58 C599.386,269.58 595.953,269.58 595.953,269.58 C595.953,269.58 560.325,269.58 560.325,269.58 C560.325,269.58 181.122,269.58 181.122,269.58 C181.122,269.58 169.19,284.894 169.19,284.894 C168.073,286.312 166.418,287.136 164.66,287.136 C164.66,287.136 119.601,287.136 119.601,287.136 C117.844,287.136 116.19,286.312 115.074,284.894 C115.074,284.894 103.14,269.58 103.14,269.58 C103.14,269.58 56.1796,269.58 56.1796,269.58 C40.1342,269.58 27.1269,283.051 27.1269,299.672 C27.1269,299.672 27.1269,372.895 27.1269,372.895 C27.1269,389.518 40.1342,402.982 56.1796,402.982 C56.1796,402.982 103.163,402.982 103.163,402.982 C103.163,402.982 115.074,418.263 115.074,418.263 C116.19,419.677 117.844,420.507 119.601,420.507 C119.601,420.507 164.66,420.507 164.66,420.507 C166.439,420.507 168.073,419.677 169.19,418.263 C169.19,418.263 181.1,402.982 181.1,402.982 C181.1,402.982 560.325,402.982 560.325,402.982 C560.325,402.982 595.953,402.982 595.953,402.982 C595.953,402.982 599.365,402.982 599.365,402.982 C615.413,402.982 628.419,389.518 628.419,372.895 C628.419,372.895 628.419,299.672 628.419,299.672 C628.441,283.053 615.433,269.58 599.386,269.58 Z" style="stroke:none;fill-rule:evenodd;fill:#3cbec8;fill-opacity:1;"/>
        </g>
        <g id="Shape6">
            <desc shapeID="6" type="0" basicInfo-basicType="0" basicInfo-roundedRectRadius="12" basicInfo-polygonSides="6" basicInfo-starPoints="5" bounding="rect(-183.623,-32.2851,367.246,64.57)" text="" font-familyName="" font-pixelSize="20" font-bold="0" font-underline="0" font-alignment="1" strokeStyle="0" markerStart="0" markerEnd="0" shadowEnabled="0" shadowOffsetX="0" shadowOffsetY="2" shadowBlur="4" shadowOpacity="160" blurEnabled="0" blurRadius="4" transform="matrix(1.83187,0,0,1.83187,52.8367,360.915)" pers-center="0,0" pers-size="0,0" pers-start="0,0" pers-end="0,0" locked="0" mesh="" flag=""/>
            <path id="shapePath6" d="M-283.536,301.773 C-283.536,301.773 389.21,301.773 389.21,301.773 C389.21,301.773 389.21,420.057 389.21,420.057 C389.21,420.057 -283.536,420.057 -283.536,420.057 C-283.536,420.057 -283.536,301.773 -283.536,301.773 Z" style="stroke:none;fill:none;"/>
        </g>
        <g id="Shape7">
            <desc shapeID="7" type="0" basicInfo-basicType="0" basicInfo-roundedRectRadius="12" basicInfo-polygonSides="6" basicInfo-starPoints="5" bounding="rect(-92.168,-20.1815,184.336,40.363)" text="" font-familyName="" font-pixelSize="20" font-bold="0" font-underline="0" font-alignment="1" strokeStyle="0" markerStart="0" markerEnd="0" shadowEnabled="0" shadowOffsetX="0" shadowOffsetY="2" shadowBlur="4" shadowOpacity="160" blurEnabled="0" blurRadius="4" transform="matrix(1.83187,0,0,1.83187,413.79,334.921)" pers-center="0,0" pers-size="0,0" pers-start="0,0" pers-end="0,0" locked="0" mesh="" flag=""/>
            <path id="shapePath7" d="M244.95,297.952 C244.95,297.952 582.63,297.952 582.63,297.952 C582.63,297.952 582.63,371.891 582.63,371.891 C582.63,371.891 244.95,371.891 244.95,371.891 C244.95,371.891 244.95,297.952 244.95,297.952 Z" style="stroke:#00a2b1;stroke-opacity:1;stroke-width:1;stroke-linejoin:miter;stroke-miterlimit:2;stroke-linecap:butt;fill-rule:evenodd;fill:#82d0d6;fill-opacity:1;"/>
        </g>
        <g id="Shape8">
            <desc shapeID="8" type="0" basicInfo-basicType="0" basicInfo-roundedRectRadius="12" basicInfo-polygonSides="6" basicInfo-starPoints="5" bounding="rect(-15.0314,-13.9335,30.063,27.867)" text="" font-familyName="" font-pixelSize="20" font-bold="0" font-underline="0" font-alignment="1" strokeStyle="0" markerStart="0" markerEnd="0" shadowEnabled="0" shadowOffsetX="0" shadowOffsetY="2" shadowBlur="4" shadowOpacity="160" blurEnabled="0" blurRadius="4" transform="matrix(1.83187,0,0,1.83187,639.453,156.873)" pers-center="0,0" pers-size="0,0" pers-start="0,0" pers-end="0,0" locked="0" mesh="" flag=""/>
            <path id="shapePath8" d="M611.917,131.349 C611.917,131.349 666.989,131.349 666.989,131.349 C666.989,131.349 666.989,182.397 666.989,182.397 C666.989,182.397 611.917,182.397 611.917,182.397 C611.917,182.397 611.917,131.349 611.917,131.349 Z" style="stroke:#000000;stroke-opacity:1;stroke-width:0;stroke-linejoin:bevel;stroke-miterlimit:2;stroke-linecap:square;fill:none;"/>
        </g>
        <g id="Shape9">
            <desc shapeID="9" type="0" basicInfo-basicType="0" basicInfo-roundedRectRadius="12" basicInfo-polygonSides="6" basicInfo-starPoints="5" bounding="rect(-15.0314,-14.9806,30.063,29.961)" text="" font-familyName="" font-pixelSize="20" font-bold="0" font-underline="0" font-alignment="1" strokeStyle="0" markerStart="0" markerEnd="0" shadowEnabled="0" shadowOffsetX="0" shadowOffsetY="2" shadowBlur="4" shadowOpacity="160" blurEnabled="0" blurRadius="4" transform="matrix(1.83187,0,0,1.83187,641.078,231.027)" pers-center="0,0" pers-size="0,0" pers-start="0,0" pers-end="0,0" locked="0" mesh="" flag=""/>
            <path id="shapePath9" d="M613.542,203.585 C613.542,203.585 668.614,203.585 668.614,203.585 C668.614,203.585 668.614,258.469 668.614,258.469 C668.614,258.469 613.542,258.469 613.542,258.469 C613.542,258.469 613.542,203.585 613.542,203.585 Z" style="stroke:#ffffff;stroke-opacity:1;stroke-width:0;stroke-linejoin:bevel;stroke-miterlimit:2;stroke-linecap:square;fill:none;"/>
        </g>
        <g id="Shape10">
            <desc shapeID="10" type="0" basicInfo-basicType="0" basicInfo-roundedRectRadius="12" basicInfo-polygonSides="6" basicInfo-starPoints="5" bounding="rect(-15.031,-13.934,30.062,27.868)" text="" font-familyName="" font-pixelSize="20" font-bold="0" font-underline="0" font-alignment="1" strokeStyle="0" markerStart="0" markerEnd="0" shadowEnabled="0" shadowOffsetX="0" shadowOffsetY="2" shadowBlur="4" shadowOpacity="160" blurEnabled="0" blurRadius="4" transform="matrix(1.83187,0,0,1.83187,641.321,312.839)" pers-center="0,0" pers-size="0,0" pers-start="0,0" pers-end="0,0" locked="0" mesh="" flag=""/>
            <path id="shapePath10" d="M613.786,287.314 C613.786,287.314 668.855,287.314 668.855,287.314 C668.855,287.314 668.855,338.365 668.855,338.365 C668.855,338.365 613.786,338.365 613.786,338.365 C613.786,338.365 613.786,287.314 613.786,287.314 Z" style="stroke:#000000;stroke-opacity:1;stroke-width:0;stroke-linejoin:bevel;stroke-miterlimit:2;stroke-linecap:square;fill:none;"/>
        </g>
        <g id="Shape11">
            <desc shapeID="11" type="2" basicInfo-basicType="0" basicInfo-roundedRectRadius="12" basicInfo-polygonSides="6" basicInfo-starPoints="5" bounding="rect(-100.624,-29.3099,201.247,58.6198)" text="Draai" font-familyName="Gotham" font-pixelSize="68" font-bold="0" font-underline="0" font-alignment="1" strokeStyle="0" markerStart="0" markerEnd="0" shadowEnabled="0" shadowOffsetX="0" shadowOffsetY="2" shadowBlur="4" shadowOpacity="160" blurEnabled="0" blurRadius="4" transform="matrix(1,0,0,1,129.895,129.92)" pers-center="0,0" pers-size="0,0" pers-start="0,0" pers-end="0,0" locked="0" mesh="" flag=""/>
            <path id="shapePath11" d="M48.8305,153.295 L65.3545,153.295 C80.3145,153.295 90.6505,142.891 90.6505,129.495 L90.6505,129.359 C90.6505,115.963 80.3145,105.695 65.3545,105.695 L48.8305,105.695 L48.8305,153.295 M54.2025,148.331 L54.2025,110.659 L65.3545,110.659 C77.3905,110.659 85.0745,118.955 85.0745,129.495 L85.0745,129.631 C85.0745,140.171 77.3905,148.331 65.3545,148.331 L54.2025,148.331 M101.118,153.295 L106.354,153.295 L106.354,139.287 C106.354,128.679 112.61,123.171 120.294,123.171 L120.702,123.171 L120.702,117.527 C114.038,117.255 108.938,121.471 106.354,127.319 L106.354,118.139 L101.118,118.139 L101.118,153.295 M137.419,154.043 C143.606,154.043 147.618,151.187 150.066,148.059 L150.066,153.295 L155.234,153.295 L155.234,131.807 C155.234,127.319 154.01,123.919 151.562,121.471 C149.046,118.955 145.171,117.595 140.206,117.595 C135.038,117.595 131.298,118.819 127.422,120.587 L128.986,124.871 C132.25,123.375 135.514,122.355 139.662,122.355 C146.258,122.355 150.066,125.619 150.066,131.875 L150.066,132.963 C146.938,132.079 143.811,131.467 139.322,131.467 C130.414,131.467 124.294,135.411 124.294,142.959 L124.294,143.095 C124.294,150.303 130.822,154.043 137.419,154.043 M138.438,149.827 C133.678,149.827 129.598,147.243 129.598,142.823 L129.598,142.687 C129.598,138.471 133.339,135.615 139.867,135.615 C144.15,135.615 147.55,136.363 150.134,137.111 L150.134,140.375 C150.134,145.951 144.898,149.827 138.438,149.827 M176.778,154.043 C182.966,154.043 186.978,151.187 189.426,148.059 L189.426,153.295 L194.594,153.295 L194.594,131.807 C194.594,127.319 193.37,123.919 190.922,121.471 C188.406,118.955 184.53,117.595 179.566,117.595 C174.398,117.595 170.658,118.819 166.782,120.587 L168.346,124.871 C171.61,123.375 174.874,122.355 179.022,122.355 C185.618,122.355 189.426,125.619 189.426,131.875 L189.426,132.963 C186.298,132.079 183.17,131.467 178.682,131.467 C169.774,131.467 163.654,135.411 163.654,142.959 L163.654,143.095 C163.654,150.303 170.182,154.043 176.778,154.043 M177.798,149.827 C173.038,149.827 168.958,147.243 168.958,142.823 L168.958,142.687 C168.958,138.471 172.698,135.615 179.226,135.615 C183.51,135.615 186.91,136.363 189.494,137.111 L189.494,140.375 C189.494,145.951 184.258,149.827 177.798,149.827 M205.801,110.455 L211.785,110.455 L211.785,104.675 L205.801,104.675 L205.801,110.455 M206.141,153.295 L211.377,153.295 L211.377,118.139 L206.141,118.139 L206.141,153.295 Z" style="stroke:none;fill-rule:nonzero;fill:#ffffff;fill-opacity:1;"/>
        </g>
        <g id="Shape12">
            <desc shapeID="12" type="2" basicInfo-basicType="0" basicInfo-roundedRectRadius="12" basicInfo-polygonSides="6" basicInfo-starPoints="5" bounding="rect(-100.624,-29.3099,201.247,58.6198)" text="Draai" font-familyName="Gotham" font-pixelSize="68" font-bold="0" font-underline="0" font-alignment="1" strokeStyle="0" markerStart="0" markerEnd="0" shadowEnabled="0" shadowOffsetX="0" shadowOffsetY="2" shadowBlur="4" shadowOpacity="160" blurEnabled="0" blurRadius="4" transform="matrix(1,0,0,1,144.836,335.179)" pers-center="0,0" pers-size="0,0" pers-start="0,0" pers-end="0,0" locked="0" mesh="" flag=""/>
            <path id="shapePath12" d="M63.7716,358.554 L80.2956,358.554 C95.2556,358.554 105.592,348.15 105.592,334.754 L105.592,334.618 C105.592,321.222 95.2556,310.954 80.2956,310.954 L63.7716,310.954 L63.7716,358.554 M69.1436,353.59 L69.1436,315.918 L80.2956,315.918 C92.3316,315.918 100.016,324.214 100.016,334.754 L100.016,334.89 C100.016,345.43 92.3316,353.59 80.2956,353.59 L69.1436,353.59 M116.059,358.554 L121.295,358.554 L121.295,344.546 C121.295,333.938 127.551,328.43 135.235,328.43 L135.643,328.43 L135.643,322.786 C128.979,322.514 123.879,326.73 121.295,332.578 L121.295,323.398 L116.059,323.398 L116.059,358.554 M152.36,359.302 C158.548,359.302 162.56,356.446 165.008,353.318 L165.008,358.554 L170.176,358.554 L170.176,337.066 C170.176,332.578 168.952,329.178 166.504,326.73 C163.988,324.214 160.112,322.854 155.148,322.854 C149.98,322.854 146.24,324.078 142.364,325.846 L143.928,330.13 C147.192,328.634 150.456,327.614 154.604,327.614 C161.2,327.614 165.008,330.878 165.008,337.134 L165.008,338.222 C161.88,337.338 158.752,336.726 154.264,336.726 C145.356,336.726 139.236,340.67 139.236,348.218 L139.236,348.354 C139.236,355.562 145.764,359.302 152.36,359.302 M153.38,355.086 C148.62,355.086 144.54,352.502 144.54,348.082 L144.54,347.946 C144.54,343.73 148.28,340.874 154.808,340.874 C159.092,340.874 162.492,341.622 165.076,342.37 L165.076,345.634 C165.076,351.21 159.84,355.086 153.38,355.086 M191.719,359.302 C197.907,359.302 201.919,356.446 204.367,353.318 L204.367,358.554 L209.535,358.554 L209.535,337.066 C209.535,332.578 208.311,329.178 205.863,326.73 C203.347,324.214 199.471,322.854 194.507,322.854 C189.339,322.854 185.599,324.078 181.723,325.846 L183.287,330.13 C186.551,328.634 189.815,327.614 193.963,327.614 C200.559,327.614 204.367,330.878 204.367,337.134 L204.367,338.222 C201.239,337.338 198.111,336.726 193.623,336.726 C184.715,336.726 178.595,340.67 178.595,348.218 L178.595,348.354 C178.595,355.562 185.123,359.302 191.719,359.302 M192.739,355.086 C187.979,355.086 183.899,352.502 183.899,348.082 L183.899,347.946 C183.899,343.73 187.639,340.874 194.167,340.874 C198.451,340.874 201.851,341.622 204.435,342.37 L204.435,345.634 C204.435,351.21 199.199,355.086 192.739,355.086 M220.742,315.714 L226.726,315.714 L226.726,309.934 L220.742,309.934 L220.742,315.714 M221.082,358.554 L226.318,358.554 L226.318,323.398 L221.082,323.398 L221.082,358.554 Z" style="stroke:none;fill-rule:nonzero;fill:#ffffff;fill-opacity:1;"/>
        </g>
        <g id="Shape13">
            <desc shapeID="13" type="2" basicInfo-basicType="0" basicInfo-roundedRectRadius="12" basicInfo-polygonSides="6" basicInfo-starPoints="5" bounding="rect(-100.624,-29.3099,201.247,58.6198)" text="linksom" font-familyName="Gotham" font-pixelSize="68" font-bold="0" font-underline="0" font-alignment="1" strokeStyle="0" markerStart="0" markerEnd="0" shadowEnabled="0" shadowOffsetX="0" shadowOffsetY="2" shadowBlur="4" shadowOpacity="160" blurEnabled="0" blurRadius="4" transform="matrix(1,0,0,1,399.809,132.53)" pers-center="0,0" pers-size="0,0" pers-start="0,0" pers-end="0,0" locked="0" mesh="" flag=""/>
            <path id="shapePath13" d="M276.758,155.905 L281.994,155.905 L281.994,106.265 L276.758,106.265 L276.758,155.905 M294.293,113.065 L300.277,113.065 L300.277,107.285 L294.293,107.285 L294.293,113.065 M294.633,155.905 L299.869,155.905 L299.869,120.749 L294.633,120.749 L294.633,155.905 M312.032,155.905 L317.268,155.905 L317.268,135.777 C317.268,129.181 321.756,124.761 327.808,124.761 C333.996,124.761 337.532,128.841 337.532,135.369 L337.532,155.905 L342.768,155.905 L342.768,134.077 C342.768,125.713 337.804,120.001 329.304,120.001 C323.252,120.001 319.58,123.061 317.268,126.869 L317.268,120.749 L312.032,120.749 L312.032,155.905 M353.907,155.905 L359.143,155.905 L359.143,146.725 L366.283,139.517 L378.863,155.905 L385.119,155.905 L369.887,135.845 L384.643,120.749 L378.115,120.749 L359.143,140.537 L359.143,106.265 L353.907,106.265 L353.907,155.905 M404.222,156.585 C411.226,156.585 416.734,152.709 416.734,146.045 L416.734,145.909 C416.734,139.585 410.886,137.477 405.446,135.845 C400.754,134.417 396.402,133.125 396.402,129.793 L396.402,129.657 C396.402,126.733 399.054,124.557 403.202,124.557 C406.602,124.557 410.342,125.849 413.606,127.957 L415.986,124.013 C412.382,121.633 407.622,120.137 403.338,120.137 C396.402,120.137 391.37,124.149 391.37,130.201 L391.37,130.337 C391.37,136.797 397.49,138.701 402.998,140.265 C407.622,141.557 411.77,142.917 411.77,146.453 L411.77,146.589 C411.77,149.989 408.71,152.165 404.494,152.165 C400.346,152.165 396.13,150.533 392.322,147.677 L389.67,151.417 C393.614,154.613 399.19,156.585 404.222,156.585 M442.502,156.721 C453.11,156.721 460.93,148.289 460.93,138.361 L460.93,138.225 C460.93,128.297 453.178,120.001 442.638,120.001 C432.03,120.001 424.278,128.433 424.278,138.361 L424.278,138.497 C424.278,148.425 431.962,156.721 442.502,156.721 M442.638,152.029 C435.226,152.029 429.65,145.909 429.65,138.361 L429.65,138.225 C429.65,130.813 434.886,124.625 442.502,124.625 C449.914,124.625 455.558,130.813 455.558,138.361 L455.558,138.497 C455.558,145.909 450.254,152.029 442.638,152.029 M470.376,155.905 L475.612,155.905 L475.612,135.845 C475.612,129.385 479.828,124.761 485.404,124.761 C490.98,124.761 494.448,128.637 494.448,135.233 L494.448,155.905 L499.616,155.905 L499.616,135.641 C499.616,128.705 504.036,124.761 509.34,124.761 C515.052,124.761 518.452,128.569 518.452,135.369 L518.452,155.905 L523.688,155.905 L523.688,134.145 C523.688,125.441 518.724,120.001 510.632,120.001 C504.512,120.001 500.772,123.129 498.256,127.005 C496.352,123.061 492.68,120.001 486.968,120.001 C481.052,120.001 477.924,123.197 475.612,126.665 L475.612,120.749 L470.376,120.749 L470.376,155.905 Z" style="stroke:none;fill-rule:nonzero;fill:#000000;fill-opacity:1;"/>
        </g>
        <g id="Shape14">
            <desc shapeID="14" type="2" basicInfo-basicType="0" basicInfo-roundedRectRadius="12" basicInfo-polygonSides="6" basicInfo-starPoints="5" bounding="rect(-100.624,-29.3099,201.247,58.6198)" text="rechtsom" font-familyName="Gotham" font-pixelSize="68" font-bold="0" font-underline="0" font-alignment="1" strokeStyle="0" markerStart="0" markerEnd="0" shadowEnabled="0" shadowOffsetX="0" shadowOffsetY="2" shadowBlur="4" shadowOpacity="160" blurEnabled="0" blurRadius="4" transform="matrix(1,0,0,1,405.858,338.5)" pers-center="0,0" pers-size="0,0" pers-start="0,0" pers-end="0,0" locked="0" mesh="" flag=""/>
            <path id="shapePath14" d="M253.268,361.875 L258.504,361.875 L258.504,347.867 C258.504,337.259 264.76,331.751 272.444,331.751 L272.852,331.751 L272.852,326.107 C266.188,325.835 261.088,330.051 258.504,335.899 L258.504,326.719 L253.268,326.719 L253.268,361.875 M282.427,346.439 L310.307,346.439 C310.376,345.623 310.376,345.079 310.376,344.603 C310.376,334.267 304.392,325.971 293.988,325.971 C284.263,325.971 277.124,334.131 277.124,344.331 C277.124,355.279 285.012,362.691 294.668,362.691 C301.332,362.691 305.616,360.039 309.151,356.095 L305.888,353.171 C303.031,356.163 299.632,358.135 294.803,358.135 C288.616,358.135 283.176,353.851 282.427,346.439 M282.427,342.223 C283.176,335.423 287.799,330.391 293.852,330.391 C300.788,330.391 304.46,335.831 305.072,342.223 L282.427,342.223 M335.393,362.691 C341.99,362.691 346.206,359.835 349.742,355.891 L346.41,352.763 C343.622,355.755 340.154,357.999 335.665,357.999 C328.322,357.999 322.746,351.947 322.746,344.331 L322.746,344.195 C322.746,336.647 328.186,330.595 335.326,330.595 C340.086,330.595 343.214,332.975 346.001,335.899 L349.47,332.227 C346.206,328.759 342.057,325.971 335.393,325.971 C325.126,325.971 317.374,334.403 317.374,344.331 L317.374,344.467 C317.374,354.327 325.126,362.691 335.393,362.691 M358.362,361.875 L363.598,361.875 L363.598,341.747 C363.598,335.151 368.086,330.731 374.138,330.731 C380.326,330.731 383.862,334.811 383.862,341.339 L383.862,361.875 L389.098,361.875 L389.098,340.047 C389.098,331.683 384.134,325.971 375.634,325.971 C369.582,325.971 365.91,329.031 363.598,332.839 L363.598,312.235 L358.362,312.235 L358.362,361.875 M412.001,362.487 C414.517,362.487 416.489,361.943 418.325,360.991 L418.325,356.503 C416.489,357.387 414.993,357.727 413.225,357.727 C409.689,357.727 407.309,356.163 407.309,351.879 L407.309,331.343 L418.461,331.343 L418.461,326.719 L407.309,326.719 L407.309,316.111 L402.073,316.111 L402.073,326.719 L397.177,326.719 L397.177,331.343 L402.073,331.343 L402.073,352.559 C402.073,359.699 406.357,362.487 412.001,362.487 M439.334,362.555 C446.338,362.555 451.846,358.679 451.846,352.015 L451.846,351.879 C451.846,345.555 445.998,343.447 440.558,341.815 C435.866,340.387 431.514,339.095 431.514,335.763 L431.514,335.627 C431.514,332.703 434.166,330.527 438.314,330.527 C441.714,330.527 445.454,331.819 448.718,333.927 L451.098,329.983 C447.494,327.603 442.734,326.107 438.45,326.107 C431.514,326.107 426.482,330.119 426.482,336.171 L426.482,336.307 C426.482,342.767 432.602,344.671 438.11,346.235 C442.734,347.527 446.882,348.887 446.882,352.423 L446.882,352.559 C446.882,355.959 443.822,358.135 439.606,358.135 C435.458,358.135 431.242,356.503 427.434,353.647 L424.782,357.387 C428.726,360.583 434.302,362.555 439.334,362.555 M477.613,362.691 C488.221,362.691 496.041,354.259 496.041,344.331 L496.041,344.195 C496.041,334.267 488.289,325.971 477.749,325.971 C467.141,325.971 459.389,334.403 459.389,344.331 L459.389,344.467 C459.389,354.395 467.073,362.691 477.613,362.691 M477.749,357.999 C470.337,357.999 464.761,351.879 464.761,344.331 L464.761,344.195 C464.761,336.783 469.997,330.595 477.613,330.595 C485.025,330.595 490.669,336.783 490.669,344.331 L490.669,344.467 C490.669,351.879 485.365,357.999 477.749,357.999 M505.487,361.875 L510.723,361.875 L510.723,341.815 C510.723,335.355 514.939,330.731 520.515,330.731 C526.091,330.731 529.559,334.607 529.559,341.203 L529.559,361.875 L534.727,361.875 L534.727,341.611 C534.727,334.675 539.147,330.731 544.451,330.731 C550.163,330.731 553.563,334.539 553.563,341.339 L553.563,361.875 L558.799,361.875 L558.799,340.115 C558.799,331.411 553.835,325.971 545.743,325.971 C539.623,325.971 535.883,329.099 533.367,332.975 C531.463,329.031 527.791,325.971 522.079,325.971 C516.163,325.971 513.035,329.167 510.723,332.635 L510.723,326.719 L505.487,326.719 L505.487,361.875 Z" style="stroke:none;fill-rule:nonzero;fill:#000000;fill-opacity:1;"/>
        </g>
    </g>
</svg>
