<?xml version="1.0"?>
<svg version="1.1" xmlns="http://www.w3.org/2000/svg" xmlns:xlink="http://www.w3.org/1999/xlink" width="640" height="480">
    <desc iVinci="yes" version="4.6" gridStep="20" showGrid="no" snapToGrid="no" codePlatform="0"/>
    <g id="Layer1" name="Layer 1" opacity="1">
        <g id="Shape1">
            <desc shapeID="1" type="0" basicInfo-basicType="0" basicInfo-roundedRectRadius="12" basicInfo-polygonSides="6" basicInfo-starPoints="5" bounding="rect(-130.091,-41.1953,260.181,82.3905)" text="" font-familyName="" font-pixelSize="20" font-bold="0" font-underline="0" font-alignment="1" strokeStyle="0" markerStart="0" markerEnd="0" shadowEnabled="0" shadowOffsetX="0" shadowOffsetY="2" shadowBlur="4" shadowOpacity="160" blurEnabled="0" blurRadius="4" transform="matrix(1.83668,0,0,1.83668,263.5,125)" pers-center="0,0" pers-size="0,0" pers-start="0,0" pers-end="0,0" locked="0" mesh="" flag=""/>
            <path id="shapePath1" d="M473.327,49.3375 L469.885,49.3375 L433.164,49.3375 L178.964,49.3375 L100.778,49.3375 L53.6941,49.3375 C37.6066,49.3375 24.5651,62.8441 24.5651,79.5098 L24.5651,152.926 C24.5651,169.591 37.6066,183.09 53.6941,183.09 L100.801,183.09 L112.743,198.413 C113.862,199.831 115.52,200.663 117.282,200.663 L162.459,200.663 C164.243,200.663 165.881,199.831 167.001,198.413 L178.942,183.09 L433.164,183.09 L469.885,183.09 L473.307,183.09 C489.395,183.09 502.435,169.591 502.435,152.926 L502.435,79.5098 C502.457,62.8474 489.415,49.3375 473.327,49.3375 Z" style="stroke:none;fill-rule:evenodd;fill:#ffa400;fill-opacity:1;"/>
        </g>
        <g id="Shape2">
            <desc shapeID="2" type="2" basicInfo-basicType="0" basicInfo-roundedRectRadius="12" basicInfo-polygonSides="6" basicInfo-starPoints="5" bounding="rect(-279.046,-29.3869,558.092,58.7738)" text="Als gestart" font-familyName="Gotham" font-pixelSize="68" font-bold="0" font-underline="0" font-alignment="1" strokeStyle="0" markerStart="0" markerEnd="0" shadowEnabled="0" shadowOffsetX="0" shadowOffsetY="2" shadowBlur="4" shadowOpacity="160" blurEnabled="0" blurRadius="4" transform="matrix(1,0,0,1,263.864,119.015)" pers-center="0,0" pers-size="0,0" pers-start="0,0" pers-end="0,0" locked="0" mesh="" flag=""/>
            <path id="shapePath2" d="M83.4067,142.312 L88.9147,142.312 L94.5587,129.732 L120.467,129.732 L126.043,142.312 L131.823,142.312 L110.131,94.372 L105.099,94.372 L83.4067,142.312 M96.6667,124.904 L107.547,100.628 L118.359,124.904 L96.6667,124.904 M140.797,142.312 L146.033,142.312 L146.033,92.672 L140.797,92.672 L140.797,142.312 M169.824,142.992 C176.828,142.992 182.336,139.116 182.336,132.452 L182.336,132.316 C182.336,125.992 176.488,123.884 171.048,122.252 C166.356,120.824 162.004,119.532 162.004,116.2 L162.004,116.064 C162.004,113.14 164.656,110.964 168.804,110.964 C172.204,110.964 175.944,112.256 179.208,114.364 L181.588,110.42 C177.984,108.04 173.224,106.544 168.94,106.544 C162.004,106.544 156.972,110.556 156.972,116.608 L156.972,116.744 C156.972,123.204 163.092,125.108 168.6,126.672 C173.224,127.964 177.372,129.324 177.372,132.86 L177.372,132.996 C177.372,136.396 174.312,138.572 170.096,138.572 C165.948,138.572 161.732,136.94 157.924,134.084 L155.272,137.824 C159.216,141.02 164.792,142.992 169.824,142.992 M228.018,153.328 C233.594,153.328 238.286,151.764 241.414,148.636 C244.27,145.78 245.902,141.632 245.902,136.192 L245.902,107.156 L240.666,107.156 L240.666,113.48 C237.81,109.672 233.526,106.408 226.93,106.408 C218.566,106.408 210.406,112.732 210.406,123 L210.406,123.136 C210.406,133.268 218.498,139.592 226.93,139.592 C233.39,139.592 237.674,136.26 240.734,132.18 L240.734,136.328 C240.734,144.556 235.702,148.84 227.95,148.84 C222.918,148.84 218.43,147.276 214.418,144.352 L212.038,148.432 C216.73,151.696 222.17,153.328 228.018,153.328 M227.95,134.968 C221.422,134.968 215.778,130.072 215.778,123 L215.778,122.864 C215.778,115.656 221.286,111.032 227.95,111.032 C234.614,111.032 240.87,115.724 240.87,122.932 L240.87,123.068 C240.87,130.14 234.614,134.968 227.95,134.968 M260.715,126.876 L288.595,126.876 C288.663,126.06 288.663,125.516 288.663,125.04 C288.663,114.704 282.679,106.408 272.275,106.408 C262.551,106.408 255.411,114.568 255.411,124.768 C255.411,135.716 263.299,143.128 272.955,143.128 C279.619,143.128 283.903,140.476 287.439,136.532 L284.175,133.608 C281.319,136.6 277.919,138.572 273.091,138.572 C266.903,138.572 261.463,134.288 260.715,126.876 M260.715,122.66 C261.463,115.86 266.087,110.828 272.139,110.828 C279.075,110.828 282.747,116.268 283.359,122.66 L260.715,122.66 M309.465,142.992 C316.469,142.992 321.977,139.116 321.977,132.452 L321.977,132.316 C321.977,125.992 316.129,123.884 310.689,122.252 C305.997,120.824 301.645,119.532 301.645,116.2 L301.645,116.064 C301.645,113.14 304.297,110.964 308.445,110.964 C311.845,110.964 315.585,112.256 318.849,114.364 L321.229,110.42 C317.625,108.04 312.865,106.544 308.581,106.544 C301.645,106.544 296.613,110.556 296.613,116.608 L296.613,116.744 C296.613,123.204 302.733,125.108 308.241,126.672 C312.865,127.964 317.013,129.324 317.013,132.86 L317.013,132.996 C317.013,136.396 313.953,138.572 309.737,138.572 C305.589,138.572 301.373,136.94 297.565,134.084 L294.913,137.824 C298.857,141.02 304.433,142.992 309.465,142.992 M342.773,142.924 C345.289,142.924 347.261,142.38 349.097,141.428 L349.097,136.94 C347.261,137.824 345.765,138.164 343.997,138.164 C340.461,138.164 338.081,136.6 338.081,132.316 L338.081,111.78 L349.233,111.78 L349.233,107.156 L338.081,107.156 L338.081,96.548 L332.845,96.548 L332.845,107.156 L327.949,107.156 L327.949,111.78 L332.845,111.78 L332.845,132.996 C332.845,140.136 337.129,142.924 342.773,142.924 M368.95,143.06 C375.138,143.06 379.15,140.204 381.598,137.076 L381.598,142.312 L386.766,142.312 L386.766,120.824 C386.766,116.336 385.542,112.936 383.094,110.488 C380.578,107.972 376.702,106.612 371.738,106.612 C366.57,106.612 362.83,107.836 358.954,109.604 L360.518,113.888 C363.782,112.392 367.046,111.372 371.194,111.372 C377.79,111.372 381.598,114.636 381.598,120.892 L381.598,121.98 C378.47,121.096 375.342,120.484 370.854,120.484 C361.946,120.484 355.826,124.428 355.826,131.976 L355.826,132.112 C355.826,139.32 362.354,143.06 368.95,143.06 M369.97,138.844 C365.21,138.844 361.13,136.26 361.13,131.84 L361.13,131.704 C361.13,127.488 364.87,124.632 371.398,124.632 C375.682,124.632 379.082,125.38 381.666,126.128 L381.666,129.392 C381.666,134.968 376.43,138.844 369.97,138.844 M397.837,142.312 L403.073,142.312 L403.073,128.304 C403.073,117.696 409.329,112.188 417.013,112.188 L417.421,112.188 L417.421,106.544 C410.757,106.272 405.657,110.488 403.073,116.336 L403.073,107.156 L397.837,107.156 L397.837,142.312 M437.132,142.924 C439.648,142.924 441.62,142.38 443.456,141.428 L443.456,136.94 C441.62,137.824 440.124,138.164 438.356,138.164 C434.82,138.164 432.44,136.6 432.44,132.316 L432.44,111.78 L443.592,111.78 L443.592,107.156 L432.44,107.156 L432.44,96.548 L427.204,96.548 L427.204,107.156 L422.308,107.156 L422.308,111.78 L427.204,111.78 L427.204,132.996 C427.204,140.136 431.488,142.924 437.132,142.924 Z" style="stroke:none;fill-rule:nonzero;fill:#ffffff;fill-opacity:1;"/>
        </g>
        <g id="Shape3">
            <desc shapeID="3" type="0" basicInfo-basicType="0" basicInfo-roundedRectRadius="12" basicInfo-polygonSides="6" basicInfo-starPoints="5" bounding="rect(-130.091,-41.1953,260.181,82.3905)" text="" font-familyName="" font-pixelSize="20" font-bold="0" font-underline="0" font-alignment="1" strokeStyle="0" markerStart="0" markerEnd="0" shadowEnabled="0" shadowOffsetX="0" shadowOffsetY="2" shadowBlur="4" shadowOpacity="160" blurEnabled="0" blurRadius="4" transform="matrix(1.83668,0,0,1.83668,263.5,332)" pers-center="0,0" pers-size="0,0" pers-start="0,0" pers-end="0,0" locked="0" mesh="" flag=""/>
            <path id="shapePath3" d="M473.327,256.338 L469.885,256.338 L433.164,256.338 L178.964,256.338 L100.778,256.338 L53.6941,256.338 C37.6066,256.338 24.5651,269.844 24.5651,286.51 L24.5651,359.926 C24.5651,376.591 37.6066,390.09 53.6941,390.09 L100.801,390.09 L112.743,405.413 C113.862,406.831 115.52,407.663 117.282,407.663 L162.459,407.663 C164.243,407.663 165.881,406.831 167.001,405.413 L178.942,390.09 L433.164,390.09 L469.885,390.09 L473.307,390.09 C489.395,390.09 502.435,376.591 502.435,359.926 L502.435,286.51 C502.457,269.847 489.415,256.338 473.327,256.338 Z" style="stroke:none;fill-rule:evenodd;fill:#ffa400;fill-opacity:1;"/>
        </g>
        <g id="Shape4">
            <desc shapeID="4" type="2" basicInfo-basicType="0" basicInfo-roundedRectRadius="12" basicInfo-polygonSides="6" basicInfo-starPoints="5" bounding="rect(-279.046,-29.3869,558.092,58.7738)" text="Als gestart" font-familyName="Gotham" font-pixelSize="68" font-bold="0" font-underline="0" font-alignment="1" strokeStyle="0" markerStart="0" markerEnd="0" shadowEnabled="0" shadowOffsetX="0" shadowOffsetY="2" shadowBlur="4" shadowOpacity="160" blurEnabled="0" blurRadius="4" transform="matrix(1,0,0,1,263.864,326.015)" pers-center="0,0" pers-size="0,0" pers-start="0,0" pers-end="0,0" locked="0" mesh="" flag=""/>
            <path id="shapePath4" d="M83.4068,349.312 L88.9148,349.312 L94.5588,336.732 L120.467,336.732 L126.043,349.312 L131.823,349.312 L110.131,301.372 L105.099,301.372 L83.4068,349.312 M96.6668,331.904 L107.547,307.628 L118.359,331.904 L96.6668,331.904 M140.798,349.312 L146.034,349.312 L146.034,299.672 L140.798,299.672 L140.798,349.312 M169.825,349.992 C176.829,349.992 182.337,346.116 182.337,339.452 L182.337,339.316 C182.337,332.992 176.489,330.884 171.049,329.252 C166.357,327.824 162.005,326.532 162.005,323.2 L162.005,323.064 C162.005,320.14 164.657,317.964 168.805,317.964 C172.205,317.964 175.945,319.256 179.209,321.364 L181.589,317.42 C177.985,315.04 173.225,313.544 168.941,313.544 C162.005,313.544 156.973,317.556 156.973,323.608 L156.973,323.744 C156.973,330.204 163.093,332.108 168.601,333.672 C173.225,334.964 177.373,336.324 177.373,339.86 L177.373,339.996 C177.373,343.396 174.312,345.572 170.097,345.572 C165.949,345.572 161.733,343.94 157.924,341.084 L155.273,344.824 C159.217,348.02 164.793,349.992 169.825,349.992 M228.019,360.328 C233.595,360.328 238.287,358.764 241.415,355.636 C244.271,352.78 245.903,348.632 245.903,343.192 L245.903,314.156 L240.667,314.156 L240.667,320.48 C237.811,316.672 233.527,313.408 226.931,313.408 C218.567,313.408 210.407,319.732 210.407,330 L210.407,330.136 C210.407,340.268 218.499,346.592 226.931,346.592 C233.391,346.592 237.675,343.26 240.735,339.18 L240.735,343.328 C240.735,351.556 235.703,355.84 227.951,355.84 C222.919,355.84 218.431,354.276 214.419,351.352 L212.039,355.432 C216.731,358.696 222.171,360.328 228.019,360.328 M227.951,341.968 C221.423,341.968 215.779,337.072 215.779,330 L215.779,329.864 C215.779,322.656 221.287,318.032 227.951,318.032 C234.615,318.032 240.871,322.724 240.871,329.932 L240.871,330.068 C240.871,337.14 234.615,341.968 227.951,341.968 M260.715,333.876 L288.595,333.876 C288.663,333.06 288.663,332.516 288.663,332.04 C288.663,321.704 282.679,313.408 272.275,313.408 C262.551,313.408 255.411,321.568 255.411,331.768 C255.411,342.716 263.299,350.128 272.955,350.128 C279.619,350.128 283.903,347.476 287.439,343.532 L284.175,340.608 C281.319,343.6 277.919,345.572 273.091,345.572 C266.903,345.572 261.463,341.288 260.715,333.876 M260.715,329.66 C261.463,322.86 266.087,317.828 272.139,317.828 C279.075,317.828 282.747,323.268 283.359,329.66 L260.715,329.66 M309.465,349.992 C316.469,349.992 321.977,346.116 321.977,339.452 L321.977,339.316 C321.977,332.992 316.129,330.884 310.689,329.252 C305.997,327.824 301.645,326.532 301.645,323.2 L301.645,323.064 C301.645,320.14 304.297,317.964 308.445,317.964 C311.845,317.964 315.585,319.256 318.849,321.364 L321.229,317.42 C317.625,315.04 312.865,313.544 308.581,313.544 C301.645,313.544 296.613,317.556 296.613,323.608 L296.613,323.744 C296.613,330.204 302.733,332.108 308.241,333.672 C312.865,334.964 317.013,336.324 317.013,339.86 L317.013,339.996 C317.013,343.396 313.953,345.572 309.737,345.572 C305.589,345.572 301.373,343.94 297.565,341.084 L294.913,344.824 C298.857,348.02 304.433,349.992 309.465,349.992 M342.773,349.924 C345.289,349.924 347.261,349.38 349.097,348.428 L349.097,343.94 C347.261,344.824 345.765,345.164 343.997,345.164 C340.461,345.164 338.081,343.6 338.081,339.316 L338.081,318.78 L349.233,318.78 L349.233,314.156 L338.081,314.156 L338.081,303.548 L332.845,303.548 L332.845,314.156 L327.949,314.156 L327.949,318.78 L332.845,318.78 L332.845,339.996 C332.845,347.136 337.129,349.924 342.773,349.924 M368.95,350.06 C375.138,350.06 379.15,347.204 381.598,344.076 L381.598,349.312 L386.766,349.312 L386.766,327.824 C386.766,323.336 385.542,319.936 383.094,317.488 C380.578,314.972 376.702,313.612 371.738,313.612 C366.57,313.612 362.83,314.836 358.954,316.604 L360.518,320.888 C363.782,319.392 367.046,318.372 371.194,318.372 C377.79,318.372 381.598,321.636 381.598,327.892 L381.598,328.98 C378.47,328.096 375.342,327.484 370.854,327.484 C361.946,327.484 355.826,331.428 355.826,338.976 L355.826,339.112 C355.826,346.32 362.354,350.06 368.95,350.06 M369.97,345.844 C365.21,345.844 361.13,343.26 361.13,338.84 L361.13,338.704 C361.13,334.488 364.87,331.632 371.398,331.632 C375.682,331.632 379.082,332.38 381.666,333.128 L381.666,336.392 C381.666,341.968 376.43,345.844 369.97,345.844 M397.837,349.312 L403.073,349.312 L403.073,335.304 C403.073,324.696 409.329,319.188 417.013,319.188 L417.421,319.188 L417.421,313.544 C410.757,313.272 405.657,317.488 403.073,323.336 L403.073,314.156 L397.837,314.156 L397.837,349.312 M437.132,349.924 C439.648,349.924 441.62,349.38 443.456,348.428 L443.456,343.94 C441.62,344.824 440.124,345.164 438.356,345.164 C434.82,345.164 432.44,343.6 432.44,339.316 L432.44,318.78 L443.592,318.78 L443.592,314.156 L432.44,314.156 L432.44,303.548 L427.204,303.548 L427.204,314.156 L422.308,314.156 L422.308,318.78 L427.204,318.78 L427.204,339.996 C427.204,347.136 431.488,349.924 437.132,349.924 Z" style="stroke:none;fill-rule:nonzero;fill:#ffffff;fill-opacity:1;"/>
        </g>
    </g>
</svg>
