<?xml version="1.0"?>
<svg version="1.1" xmlns="http://www.w3.org/2000/svg" xmlns:xlink="http://www.w3.org/1999/xlink" width="640" height="480">
    <desc iVinci="yes" version="4.6" gridStep="20" showGrid="no" snapToGrid="no" codePlatform="0"/>
    <g id="Layer1" name="Layer 1" opacity="1">
        <g id="Shape1">
            <desc shapeID="1" type="0" basicInfo-basicType="0" basicInfo-roundedRectRadius="12" basicInfo-polygonSides="6" basicInfo-starPoints="5" bounding="rect(0,0,0,0)" text="" font-familyName="" font-pixelSize="20" font-bold="0" font-underline="0" font-alignment="1" strokeStyle="0" markerStart="0" markerEnd="0" shadowEnabled="0" shadowOffsetX="0" shadowOffsetY="2" shadowBlur="4" shadowOpacity="160" blurEnabled="0" blurRadius="4" transform="matrix(1,0,0,1,197,135)" pers-center="0,0" pers-size="0,0" pers-start="0,0" pers-end="0,0" locked="0" mesh="" flag=""/>
            <path id="shapePath1" d="M197,135 Z" style="stroke:none;fill:none;"/>
        </g>
        <g id="Shape2">
            <desc shapeID="2" type="0" basicInfo-basicType="0" basicInfo-roundedRectRadius="12" basicInfo-polygonSides="6" basicInfo-starPoints="5" bounding="rect(-210.584,-126.762,421.168,253.523)" text="" font-familyName="" font-pixelSize="20" font-bold="0" font-underline="0" font-alignment="1" strokeStyle="0" markerStart="0" markerEnd="0" shadowEnabled="0" shadowOffsetX="0" shadowOffsetY="2" shadowBlur="4" shadowOpacity="160" blurEnabled="0" blurRadius="4" transform="matrix(1,0,0,1,222.608,140.164)" pers-center="0,0" pers-size="0,0" pers-start="0,0" pers-end="0,0" locked="0" mesh="" flag=""/>
            <path id="shapePath2" d="M417.994,175.526 C417.994,175.526 174.301,175.526 174.301,175.526 C174.301,175.526 166.822,184.81 166.822,184.81 C166.133,185.666 165.087,186.171 163.989,186.171 C163.989,186.171 135.7,186.171 135.7,186.171 C134.599,186.171 133.556,185.666 132.867,184.81 C132.867,184.81 125.388,175.526 125.388,175.526 C125.388,175.526 95.8918,175.526 95.8918,175.526 C85.8239,175.526 77.6596,167.342 77.6596,157.242 C77.6596,157.242 77.6596,112.748 77.6596,112.748 C77.6596,102.648 85.8239,94.464 95.8918,94.464 C95.8918,94.464 117.712,94.464 117.712,94.464 C117.712,94.464 125.37,94.464 125.37,94.464 C125.37,94.464 125.388,94.464 125.388,94.464 C125.388,94.464 132.867,103.749 132.867,103.749 C133.556,104.604 134.606,105.109 135.7,105.109 C135.7,105.109 163.989,105.109 163.989,105.109 C165.094,105.109 166.133,104.604 166.822,103.749 C166.822,103.749 174.301,94.464 174.301,94.464 C174.301,94.464 174.32,94.464 174.32,94.464 C174.32,94.464 414.959,94.464 414.959,94.464 C425.031,94.464 433.192,86.28 433.192,76.18 C433.192,76.18 433.192,31.686 433.192,31.686 C433.192,21.586 425.031,13.402 414.959,13.402 C414.959,13.402 108.684,13.402 108.684,13.402 C108.684,13.402 101.187,22.709 101.187,22.709 C100.497,23.568 99.4507,24.069 98.3532,24.069 C98.3532,24.069 70.064,24.069 70.064,24.069 C68.9628,24.069 67.9198,23.568 67.2344,22.709 C67.2344,22.709 59.7336,13.402 59.7336,13.402 C59.7336,13.402 30.2558,13.402 30.2558,13.402 C20.3447,13.402 12.3189,21.345 12.071,31.229 C12.071,31.229 12.0236,31.229 12.0236,31.229 C12.0236,31.229 12.0236,31.686 12.0236,31.686 C12.0236,31.686 12.0236,76.18 12.0236,76.18 C12.0236,76.18 12.0236,193.503 12.0236,193.503 C12.0236,193.503 12.0236,228.017 12.0236,228.017 C12.0236,228.017 12.0236,237.996 12.0236,237.996 C12.0236,248.096 20.1879,256.28 30.2558,256.28 C30.2558,256.28 59.7519,256.28 59.7519,256.28 C59.7519,256.28 67.2344,265.565 67.2344,265.565 C67.9198,266.421 68.9701,266.925 70.064,266.925 C70.064,266.925 98.3495,266.925 98.3495,266.925 C99.4581,266.925 100.494,266.421 101.187,265.565 C101.187,265.565 108.665,256.28 108.665,256.28 C108.665,256.28 414.959,256.28 414.959,256.28 C425.031,256.28 433.192,248.096 433.192,237.996 C433.192,237.996 433.192,193.503 433.192,193.503 C433.192,184.448 426.61,176.985 417.994,175.526 Z" style="stroke:none;fill-rule:evenodd;fill:#e20089;fill-opacity:1;"/>
        </g>
        <g id="Shape3">
            <desc shapeID="3" type="0" basicInfo-basicType="0" basicInfo-roundedRectRadius="12" basicInfo-polygonSides="6" basicInfo-starPoints="5" bounding="rect(-183.623,-32.2851,367.246,64.57)" text="" font-familyName="" font-pixelSize="20" font-bold="0" font-underline="0" font-alignment="1" strokeStyle="0" markerStart="0" markerEnd="0" shadowEnabled="0" shadowOffsetX="0" shadowOffsetY="2" shadowBlur="4" shadowOpacity="160" blurEnabled="0" blurRadius="4" transform="matrix(1,0,0,1,29.916,64.1521)" pers-center="0,0" pers-size="0,0" pers-start="0,0" pers-end="0,0" locked="0" mesh="" flag=""/>
            <path id="shapePath3" d="M-153.707,31.867 C-153.707,31.867 213.539,31.867 213.539,31.867 C213.539,31.867 213.539,96.437 213.539,96.437 C213.539,96.437 -153.707,96.437 -153.707,96.437 C-153.707,96.437 -153.707,31.867 -153.707,31.867 Z" style="stroke:none;fill:none;"/>
        </g>
        <g id="Shape4">
            <desc shapeID="4" type="0" basicInfo-basicType="0" basicInfo-roundedRectRadius="12" basicInfo-polygonSides="6" basicInfo-starPoints="5" bounding="rect(-28.4766,-20.1815,56.953,40.363)" text="" font-familyName="" font-pixelSize="20" font-bold="0" font-underline="0" font-alignment="1" strokeStyle="0" markerStart="0" markerEnd="0" shadowEnabled="0" shadowOffsetX="0" shadowOffsetY="2" shadowBlur="4" shadowOpacity="160" blurEnabled="0" blurRadius="4" transform="matrix(1,0,0,1,223.323,54.7515)" pers-center="0,0" pers-size="0,0" pers-start="0,0" pers-end="0,0" locked="0" mesh="" flag=""/>
            <path id="shapePath4" d="M194.846,34.57 C194.846,34.57 251.799,34.57 251.799,34.57 C251.799,34.57 251.799,74.933 251.799,74.933 C251.799,74.933 194.846,74.933 194.846,74.933 C194.846,74.933 194.846,34.57 194.846,34.57 Z" style="stroke:#000000;stroke-opacity:1;stroke-width:0;stroke-linejoin:bevel;stroke-miterlimit:2;stroke-linecap:square;fill-rule:evenodd;fill:#f88ad2;fill-opacity:1;"/>
        </g>
        <g id="Shape5">
            <desc shapeID="5" type="0" basicInfo-basicType="0" basicInfo-roundedRectRadius="12" basicInfo-polygonSides="6" basicInfo-starPoints="5" bounding="rect(-15.031,-13.9335,30.062,27.867)" text="" font-familyName="" font-pixelSize="20" font-bold="0" font-underline="0" font-alignment="1" strokeStyle="0" markerStart="0" markerEnd="0" shadowEnabled="0" shadowOffsetX="0" shadowOffsetY="2" shadowBlur="4" shadowOpacity="160" blurEnabled="0" blurRadius="4" transform="matrix(1,0,0,1,350.879,48.5035)" pers-center="0,0" pers-size="0,0" pers-start="0,0" pers-end="0,0" locked="0" mesh="" flag=""/>
            <path id="shapePath5" d="M335.848,34.57 C335.848,34.57 365.91,34.57 365.91,34.57 C365.91,34.57 365.91,62.437 365.91,62.437 C365.91,62.437 335.848,62.437 335.848,62.437 C335.848,62.437 335.848,34.57 335.848,34.57 Z" style="stroke:#000000;stroke-opacity:1;stroke-width:0;stroke-linejoin:bevel;stroke-miterlimit:2;stroke-linecap:square;fill:none;"/>
        </g>
        <g id="Shape6">
            <desc shapeID="6" type="0" basicInfo-basicType="0" basicInfo-roundedRectRadius="12" basicInfo-polygonSides="6" basicInfo-starPoints="5" bounding="rect(-15.0314,-14.9805,30.063,29.961)" text="" font-familyName="" font-pixelSize="20" font-bold="0" font-underline="0" font-alignment="1" strokeStyle="0" markerStart="0" markerEnd="0" shadowEnabled="0" shadowOffsetX="0" shadowOffsetY="2" shadowBlur="4" shadowOpacity="160" blurEnabled="0" blurRadius="4" transform="matrix(1,0,0,1,351.41,92.7536)" pers-center="0,0" pers-size="0,0" pers-start="0,0" pers-end="0,0" locked="0" mesh="" flag=""/>
            <path id="shapePath6" d="M336.379,77.773 C336.379,77.773 366.442,77.773 366.442,77.773 C366.442,77.773 366.442,107.734 366.442,107.734 C366.442,107.734 336.379,107.734 336.379,107.734 C336.379,107.734 336.379,77.773 336.379,77.773 Z" style="stroke:#000000;stroke-opacity:1;stroke-width:0;stroke-linejoin:bevel;stroke-miterlimit:2;stroke-linecap:square;fill:none;"/>
        </g>
        <g id="Shape7">
            <desc shapeID="7" type="0" basicInfo-basicType="0" basicInfo-roundedRectRadius="12" basicInfo-polygonSides="6" basicInfo-starPoints="5" bounding="rect(-15.0314,-13.9335,30.063,27.867)" text="" font-familyName="" font-pixelSize="20" font-bold="0" font-underline="0" font-alignment="1" strokeStyle="0" markerStart="0" markerEnd="0" shadowEnabled="0" shadowOffsetX="0" shadowOffsetY="2" shadowBlur="4" shadowOpacity="160" blurEnabled="0" blurRadius="4" transform="matrix(1,0,0,1,353.281,134.93)" pers-center="0,0" pers-size="0,0" pers-start="0,0" pers-end="0,0" locked="0" mesh="" flag=""/>
            <path id="shapePath7" d="M338.25,120.996 C338.25,120.996 368.313,120.996 368.313,120.996 C368.313,120.996 368.313,148.863 368.313,148.863 C368.313,148.863 338.25,148.863 338.25,148.863 C338.25,148.863 338.25,120.996 338.25,120.996 Z" style="stroke:#000000;stroke-opacity:1;stroke-width:0;stroke-linejoin:bevel;stroke-miterlimit:2;stroke-linecap:square;fill:none;"/>
        </g>
        <g id="Shape8">
            <desc shapeID="8" type="2" basicInfo-basicType="0" basicInfo-roundedRectRadius="12" basicInfo-polygonSides="6" basicInfo-starPoints="5" bounding="rect(-54.9297,-16,109.859,32)" text="Herhaal" font-familyName="Gotham" font-pixelSize="34" font-bold="0" font-underline="0" font-alignment="1" strokeStyle="0" markerStart="0" markerEnd="0" shadowEnabled="0" shadowOffsetX="0" shadowOffsetY="2" shadowBlur="4" shadowOpacity="160" blurEnabled="0" blurRadius="4" transform="matrix(1,0,0,1,94.231,52.188)" pers-center="0,0" pers-size="0,0" pers-start="0,0" pers-end="0,0" locked="0" mesh="" flag=""/>
            <path id="shapePath8" d="M33.1282,64.0161 L35.8142,64.0161 L35.8142,53.3061 L49.5502,53.3061 L49.5502,64.0161 L52.2362,64.0161 L52.2362,40.2161 L49.5502,40.2161 L49.5502,50.7901 L35.8142,50.7901 L35.8142,40.2161 L33.1282,40.2161 L33.1282,64.0161 M60.0784,56.2981 L74.0184,56.2981 C74.0524,55.8901 74.0524,55.6181 74.0524,55.3801 C74.0524,50.2121 71.0604,46.0641 65.8584,46.0641 C60.9964,46.0641 57.4264,50.1441 57.4264,55.2441 C57.4264,60.7181 61.3704,64.4241 66.1984,64.4241 C69.5304,64.4241 71.6724,63.0981 73.4404,61.1261 L71.8084,59.6641 C70.3804,61.1601 68.6804,62.1461 66.2664,62.1461 C63.1724,62.1461 60.4524,60.0041 60.0784,56.2981 M60.0784,54.1901 C60.4524,50.7901 62.7644,48.2741 65.7904,48.2741 C69.2584,48.2741 71.0944,50.9941 71.4004,54.1901 L60.0784,54.1901 M78.6394,64.0161 L81.2574,64.0161 L81.2574,57.0121 C81.2574,51.7081 84.3854,48.9541 88.2274,48.9541 L88.4314,48.9541 L88.4314,46.1321 C85.0994,45.9961 82.5494,48.1041 81.2574,51.0281 L81.2574,46.4381 L78.6394,46.4381 L78.6394,64.0161 M92.405,64.0161 L95.023,64.0161 L95.023,53.9521 C95.023,50.6541 97.267,48.4441 100.293,48.4441 C103.387,48.4441 105.155,50.4841 105.155,53.7481 L105.155,64.0161 L107.773,64.0161 L107.773,53.1021 C107.773,48.9201 105.291,46.0641 101.041,46.0641 C98.015,46.0641 96.179,47.5941 95.023,49.4981 L95.023,39.1961 L92.405,39.1961 L92.405,64.0161 M118.578,64.3901 C121.672,64.3901 123.678,62.9621 124.902,61.3981 L124.902,64.0161 L127.486,64.0161 L127.486,53.2721 C127.486,51.0281 126.874,49.3281 125.65,48.1041 C124.392,46.8461 122.454,46.1661 119.972,46.1661 C117.388,46.1661 115.518,46.7781 113.58,47.6621 L114.362,49.8041 C115.994,49.0561 117.626,48.5461 119.7,48.5461 C122.998,48.5461 124.902,50.1781 124.902,53.3061 L124.902,53.8501 C123.338,53.4081 121.774,53.1021 119.53,53.1021 C115.076,53.1021 112.016,55.0741 112.016,58.8481 L112.016,58.9161 C112.016,62.5201 115.28,64.3901 118.578,64.3901 M119.088,62.2821 C116.708,62.2821 114.668,60.9901 114.668,58.7801 L114.668,58.7121 C114.668,56.6041 116.538,55.1761 119.802,55.1761 C121.944,55.1761 123.644,55.5501 124.936,55.9241 L124.936,57.5561 C124.936,60.3441 122.318,62.2821 119.088,62.2821 M138.25,64.3901 C141.344,64.3901 143.35,62.9621 144.574,61.3981 L144.574,64.0161 L147.158,64.0161 L147.158,53.2721 C147.158,51.0281 146.546,49.3281 145.322,48.1041 C144.064,46.8461 142.126,46.1661 139.644,46.1661 C137.06,46.1661 135.19,46.7781 133.252,47.6621 L134.034,49.8041 C135.666,49.0561 137.298,48.5461 139.372,48.5461 C142.67,48.5461 144.574,50.1781 144.574,53.3061 L144.574,53.8501 C143.01,53.4081 141.446,53.1021 139.202,53.1021 C134.748,53.1021 131.688,55.0741 131.688,58.8481 L131.688,58.9161 C131.688,62.5201 134.952,64.3901 138.25,64.3901 M138.76,62.2821 C136.38,62.2821 134.34,60.9901 134.34,58.7801 L134.34,58.7121 C134.34,56.6041 136.21,55.1761 139.474,55.1761 C141.616,55.1761 143.316,55.5501 144.608,55.9241 L144.608,57.5561 C144.608,60.3441 141.99,62.2821 138.76,62.2821 M152.924,64.0161 L155.542,64.0161 L155.542,39.1961 L152.924,39.1961 L152.924,64.0161 Z" style="stroke:none;fill-rule:nonzero;fill:#ffffff;fill-opacity:1;"/>
        </g>
        <g id="Shape9">
            <desc shapeID="9" type="2" basicInfo-basicType="0" basicInfo-roundedRectRadius="12" basicInfo-polygonSides="6" basicInfo-starPoints="5" bounding="rect(-54.9297,-16,109.859,32)" text="keer&#10;" font-familyName="Gotham" font-pixelSize="34" font-bold="0" font-underline="0" font-alignment="1" strokeStyle="0" markerStart="0" markerEnd="0" shadowEnabled="0" shadowOffsetX="0" shadowOffsetY="2" shadowBlur="4" shadowOpacity="160" blurEnabled="0" blurRadius="4" transform="matrix(1,0,0,1,332.833,52.188)" pers-center="0,0" pers-size="0,0" pers-start="0,0" pers-end="0,0" locked="0" mesh="" flag=""/>
            <path id="shapePath9" d="M299.507,64.0161 L302.125,64.0161 L302.125,59.4261 L305.695,55.8221 L311.985,64.0161 L315.113,64.0161 L307.497,53.9861 L314.875,46.4381 L311.611,46.4381 L302.125,56.3321 L302.125,39.1961 L299.507,39.1961 L299.507,64.0161 M319.555,56.2981 L333.495,56.2981 C333.529,55.8901 333.529,55.6181 333.529,55.3801 C333.529,50.2121 330.537,46.0641 325.335,46.0641 C320.473,46.0641 316.903,50.1441 316.903,55.2441 C316.903,60.7181 320.847,64.4241 325.675,64.4241 C329.007,64.4241 331.149,63.0981 332.917,61.1261 L331.285,59.6641 C329.857,61.1601 328.157,62.1461 325.743,62.1461 C322.649,62.1461 319.929,60.0041 319.555,56.2981 M319.555,54.1901 C319.929,50.7901 322.241,48.2741 325.267,48.2741 C328.735,48.2741 330.571,50.9941 330.877,54.1901 L319.555,54.1901 M339.68,56.2981 L353.62,56.2981 C353.654,55.8901 353.654,55.6181 353.654,55.3801 C353.654,50.2121 350.662,46.0641 345.46,46.0641 C340.598,46.0641 337.028,50.1441 337.028,55.2441 C337.028,60.7181 340.972,64.4241 345.8,64.4241 C349.132,64.4241 351.274,63.0981 353.042,61.1261 L351.41,59.6641 C349.982,61.1601 348.282,62.1461 345.868,62.1461 C342.774,62.1461 340.054,60.0041 339.68,56.2981 M339.68,54.1901 C340.054,50.7901 342.366,48.2741 345.392,48.2741 C348.86,48.2741 350.696,50.9941 351.002,54.1901 L339.68,54.1901 M358.241,64.0161 L360.859,64.0161 L360.859,57.0121 C360.859,51.7081 363.987,48.9541 367.829,48.9541 L368.033,48.9541 L368.033,46.1321 C364.701,45.9961 362.151,48.1041 360.859,51.0281 L360.859,46.4381 L358.241,46.4381 L358.241,64.0161 Z" style="stroke:none;fill-rule:nonzero;fill:#ffffff;fill-opacity:1;"/>
        </g>
    </g>
</svg>
