<?xml version="1.0"?>
<svg version="1.1" xmlns="http://www.w3.org/2000/svg" xmlns:xlink="http://www.w3.org/1999/xlink" width="640" height="480">
    <desc iVinci="yes" version="4.6" gridStep="20" showGrid="no" snapToGrid="no" codePlatform="0"/>
    <g id="Layer1" name="Layer 1" opacity="1">
        <g id="Shape1">
            <desc shapeID="1" type="0" basicInfo-basicType="0" basicInfo-roundedRectRadius="12" basicInfo-polygonSides="6" basicInfo-starPoints="5" bounding="rect(-210.584,-126.762,421.168,253.523)" text="" font-familyName="" font-pixelSize="20" font-bold="0" font-underline="0" font-alignment="1" strokeStyle="0" markerStart="0" markerEnd="0" shadowEnabled="0" shadowOffsetX="0" shadowOffsetY="2" shadowBlur="4" shadowOpacity="160" blurEnabled="0" blurRadius="4" transform="matrix(1,0,0,1,245,184.999)" pers-center="0,0" pers-size="0,0" pers-start="0,0" pers-end="0,0" locked="0" mesh="" flag=""/>
            <path id="shapePath1" d="M440.386,220.361 C440.386,220.361 196.693,220.361 196.693,220.361 C196.693,220.361 189.214,229.645 189.214,229.645 C188.525,230.502 187.479,231.007 186.381,231.007 C186.381,231.007 158.092,231.007 158.092,231.007 C156.991,231.007 155.948,230.502 155.259,229.645 C155.259,229.645 147.78,220.361 147.78,220.361 C147.78,220.361 118.284,220.361 118.284,220.361 C108.216,220.361 100.052,212.178 100.052,202.077 C100.052,202.077 100.052,157.584 100.052,157.584 C100.052,147.484 108.216,139.3 118.284,139.3 C118.284,139.3 140.104,139.3 140.104,139.3 C140.104,139.3 147.762,139.3 147.762,139.3 C147.762,139.3 147.78,139.3 147.78,139.3 C147.78,139.3 155.259,148.585 155.259,148.585 C155.948,149.439 156.998,149.945 158.092,149.945 C158.092,149.945 186.381,149.945 186.381,149.945 C187.486,149.945 188.525,149.439 189.214,148.585 C189.214,148.585 196.693,139.3 196.693,139.3 C196.693,139.3 196.712,139.3 196.712,139.3 C196.712,139.3 437.351,139.3 437.351,139.3 C447.423,139.3 455.584,131.115 455.584,121.016 C455.584,121.016 455.584,76.5215 455.584,76.5215 C455.584,66.4215 447.423,58.2375 437.351,58.2375 C437.351,58.2375 131.076,58.2375 131.076,58.2375 C131.076,58.2375 123.579,67.5445 123.579,67.5445 C122.889,68.4035 121.843,68.9045 120.745,68.9045 C120.745,68.9045 92.4562,68.9045 92.4562,68.9045 C91.355,68.9045 90.312,68.4035 89.6266,67.5445 C89.6266,67.5445 82.1258,58.2375 82.1258,58.2375 C82.1258,58.2375 52.648,58.2375 52.648,58.2375 C42.7369,58.2375 34.7111,66.1805 34.4632,76.0645 C34.4632,76.0645 34.4158,76.0645 34.4158,76.0645 C34.4158,76.0645 34.4158,76.5215 34.4158,76.5215 C34.4158,76.5215 34.4158,121.016 34.4158,121.016 C34.4158,121.016 34.4158,238.338 34.4158,238.338 C34.4158,238.338 34.4158,272.853 34.4158,272.853 C34.4158,272.853 34.4158,282.832 34.4158,282.832 C34.4158,292.932 42.5801,301.116 52.648,301.116 C52.648,301.116 82.1441,301.116 82.1441,301.116 C82.1441,301.116 89.6266,310.401 89.6266,310.401 C90.312,311.257 91.3623,311.76 92.4562,311.76 C92.4562,311.76 120.742,311.76 120.742,311.76 C121.85,311.76 122.886,311.257 123.579,310.401 C123.579,310.401 131.057,301.116 131.057,301.116 C131.057,301.116 437.351,301.116 437.351,301.116 C447.423,301.116 455.584,292.932 455.584,282.832 C455.584,282.832 455.584,238.338 455.584,238.338 C455.584,229.283 449.002,221.821 440.386,220.361 Z" style="stroke:#323232;stroke-opacity:1;stroke-width:1.5;stroke-linejoin:miter;stroke-miterlimit:2;stroke-linecap:round;fill:none;"/>
        </g>
        <g id="Shape2">
            <desc shapeID="2" type="0" basicInfo-basicType="0" basicInfo-roundedRectRadius="12" basicInfo-polygonSides="6" basicInfo-starPoints="5" bounding="rect(-28.4766,-20.1815,56.953,40.363)" text="" font-familyName="" font-pixelSize="20" font-bold="0" font-underline="0" font-alignment="1" strokeStyle="0" markerStart="0" markerEnd="0" shadowEnabled="0" shadowOffsetX="0" shadowOffsetY="2" shadowBlur="4" shadowOpacity="160" blurEnabled="0" blurRadius="4" transform="matrix(1,0,0,1,248,99)" pers-center="0,0" pers-size="0,0" pers-start="0,0" pers-end="0,0" locked="0" mesh="" flag=""/>
            <path id="shapePath2" d="M219.523,78.8185 C219.523,78.8185 276.476,78.8185 276.476,78.8185 C276.476,78.8185 276.476,119.182 276.476,119.182 C276.476,119.182 219.523,119.182 219.523,119.182 C219.523,119.182 219.523,78.8185 219.523,78.8185 Z" style="stroke:#000000;stroke-opacity:1;stroke-width:0;stroke-linejoin:bevel;stroke-miterlimit:2;stroke-linecap:square;fill-rule:evenodd;fill:#f88ad2;fill-opacity:1;"/>
        </g>
        <g id="Shape3">
            <desc shapeID="3" type="2" basicInfo-basicType="0" basicInfo-roundedRectRadius="12" basicInfo-polygonSides="6" basicInfo-starPoints="5" bounding="rect(-54.9297,-16,109.859,32)" text="Herhaal" font-familyName="Gotham" font-pixelSize="34" font-bold="0" font-underline="0" font-alignment="1" strokeStyle="0" markerStart="0" markerEnd="0" shadowEnabled="0" shadowOffsetX="0" shadowOffsetY="2" shadowBlur="4" shadowOpacity="160" blurEnabled="0" blurRadius="4" transform="matrix(1,0,0,1,118.908,96.4366)" pers-center="0,0" pers-size="0,0" pers-start="0,0" pers-end="0,0" locked="0" mesh="" flag=""/>
            <path id="shapePath3" d="M57.8057,108.265 L60.4917,108.265 L60.4917,97.5547 L74.2277,97.5547 L74.2277,108.265 L76.9137,108.265 L76.9137,84.4647 L74.2277,84.4647 L74.2277,95.0387 L60.4917,95.0387 L60.4917,84.4647 L57.8057,84.4647 L57.8057,108.265 M84.7558,100.547 L98.6958,100.547 C98.7298,100.139 98.7298,99.8667 98.7298,99.6287 C98.7298,94.4607 95.7378,90.3127 90.5358,90.3127 C85.6738,90.3127 82.1038,94.3927 82.1038,99.4927 C82.1038,104.967 86.0478,108.673 90.8758,108.673 C94.2078,108.673 96.3498,107.347 98.1178,105.375 L96.4858,103.913 C95.0578,105.409 93.3578,106.395 90.9438,106.395 C87.8498,106.395 85.1298,104.253 84.7558,100.547 M84.7558,98.4387 C85.1298,95.0387 87.4418,92.5227 90.4678,92.5227 C93.9358,92.5227 95.7718,95.2427 96.0778,98.4387 L84.7558,98.4387 M103.317,108.265 L105.935,108.265 L105.935,101.261 C105.935,95.9567 109.063,93.2027 112.905,93.2027 L113.109,93.2027 L113.109,90.3807 C109.777,90.2447 107.227,92.3527 105.935,95.2767 L105.935,90.6867 L103.317,90.6867 L103.317,108.265 M117.082,108.265 L119.7,108.265 L119.7,98.2007 C119.7,94.9027 121.944,92.6927 124.97,92.6927 C128.064,92.6927 129.832,94.7327 129.832,97.9967 L129.832,108.265 L132.45,108.265 L132.45,97.3507 C132.45,93.1687 129.968,90.3127 125.718,90.3127 C122.692,90.3127 120.856,91.8427 119.7,93.7467 L119.7,83.4447 L117.082,83.4447 L117.082,108.265 M143.256,108.639 C146.35,108.639 148.356,107.211 149.58,105.647 L149.58,108.265 L152.164,108.265 L152.164,97.5207 C152.164,95.2767 151.552,93.5767 150.328,92.3527 C149.07,91.0947 147.132,90.4147 144.65,90.4147 C142.066,90.4147 140.196,91.0267 138.258,91.9107 L139.04,94.0527 C140.672,93.3047 142.304,92.7947 144.378,92.7947 C147.676,92.7947 149.58,94.4267 149.58,97.5547 L149.58,98.0987 C148.016,97.6567 146.452,97.3507 144.208,97.3507 C139.754,97.3507 136.694,99.3227 136.694,103.097 L136.694,103.165 C136.694,106.769 139.958,108.639 143.256,108.639 M143.766,106.531 C141.386,106.531 139.346,105.239 139.346,103.029 L139.346,102.961 C139.346,100.853 141.216,99.4247 144.48,99.4247 C146.622,99.4247 148.322,99.7987 149.614,100.173 L149.614,101.805 C149.614,104.593 146.996,106.531 143.766,106.531 M162.928,108.639 C166.022,108.639 168.028,107.211 169.252,105.647 L169.252,108.265 L171.836,108.265 L171.836,97.5207 C171.836,95.2767 171.224,93.5767 170,92.3527 C168.742,91.0947 166.804,90.4147 164.322,90.4147 C161.738,90.4147 159.868,91.0267 157.93,91.9107 L158.712,94.0527 C160.344,93.3047 161.976,92.7947 164.05,92.7947 C167.348,92.7947 169.252,94.4267 169.252,97.5547 L169.252,98.0987 C167.688,97.6567 166.124,97.3507 163.88,97.3507 C159.426,97.3507 156.366,99.3227 156.366,103.097 L156.366,103.165 C156.366,106.769 159.63,108.639 162.928,108.639 M163.438,106.531 C161.058,106.531 159.018,105.239 159.018,103.029 L159.018,102.961 C159.018,100.853 160.888,99.4247 164.152,99.4247 C166.294,99.4247 167.994,99.7987 169.286,100.173 L169.286,101.805 C169.286,104.593 166.668,106.531 163.438,106.531 M177.602,108.265 L180.22,108.265 L180.22,83.4447 L177.602,83.4447 L177.602,108.265 Z" style="stroke:none;fill-rule:nonzero;fill:#000000;fill-opacity:1;"/>
        </g>
        <g id="Shape4">
            <desc shapeID="4" type="2" basicInfo-basicType="0" basicInfo-roundedRectRadius="12" basicInfo-polygonSides="6" basicInfo-starPoints="5" bounding="rect(-54.9297,-16,109.859,32)" text="keer&#10;" font-familyName="Gotham" font-pixelSize="34" font-bold="0" font-underline="0" font-alignment="1" strokeStyle="0" markerStart="0" markerEnd="0" shadowEnabled="0" shadowOffsetX="0" shadowOffsetY="2" shadowBlur="4" shadowOpacity="160" blurEnabled="0" blurRadius="4" transform="matrix(1,0,0,1,357.51,96.4366)" pers-center="0,0" pers-size="0,0" pers-start="0,0" pers-end="0,0" locked="0" mesh="" flag=""/>
            <path id="shapePath4" d="M324.184,108.265 L326.802,108.265 L326.802,103.675 L330.372,100.071 L336.662,108.265 L339.79,108.265 L332.174,98.2347 L339.552,90.6867 L336.288,90.6867 L326.802,100.581 L326.802,83.4447 L324.184,83.4447 L324.184,108.265 M344.233,100.547 L358.173,100.547 C358.207,100.139 358.207,99.8667 358.207,99.6287 C358.207,94.4607 355.215,90.3127 350.013,90.3127 C345.151,90.3127 341.581,94.3927 341.581,99.4927 C341.581,104.967 345.525,108.673 350.353,108.673 C353.685,108.673 355.827,107.347 357.595,105.375 L355.963,103.913 C354.535,105.409 352.835,106.395 350.421,106.395 C347.327,106.395 344.607,104.253 344.233,100.547 M344.233,98.4387 C344.607,95.0387 346.919,92.5227 349.945,92.5227 C353.413,92.5227 355.249,95.2427 355.555,98.4387 L344.233,98.4387 M364.358,100.547 L378.298,100.547 C378.332,100.139 378.332,99.8667 378.332,99.6287 C378.332,94.4607 375.34,90.3127 370.138,90.3127 C365.276,90.3127 361.706,94.3927 361.706,99.4927 C361.706,104.967 365.65,108.673 370.478,108.673 C373.81,108.673 375.952,107.347 377.72,105.375 L376.088,103.913 C374.66,105.409 372.96,106.395 370.546,106.395 C367.452,106.395 364.732,104.253 364.358,100.547 M364.358,98.4387 C364.732,95.0387 367.044,92.5227 370.07,92.5227 C373.538,92.5227 375.374,95.2427 375.68,98.4387 L364.358,98.4387 M382.919,108.265 L385.537,108.265 L385.537,101.261 C385.537,95.9567 388.665,93.2027 392.507,93.2027 L392.711,93.2027 L392.711,90.3807 C389.379,90.2447 386.829,92.3527 385.537,95.2767 L385.537,90.6867 L382.919,90.6867 L382.919,108.265 Z" style="stroke:none;fill-rule:nonzero;fill:#000000;fill-opacity:1;"/>
        </g>
    </g>
</svg>
