<?xml version="1.0"?>
<svg version="1.1" xmlns="http://www.w3.org/2000/svg" xmlns:xlink="http://www.w3.org/1999/xlink" width="640" height="480">
    <desc iVinci="yes" version="4.6" gridStep="20" showGrid="no" snapToGrid="no" codePlatform="0"/>
    <g id="Layer1" name="Layer 1" opacity="1">
        <g id="Shape1">
            <desc shapeID="1" type="0" basicInfo-basicType="0" basicInfo-roundedRectRadius="12" basicInfo-polygonSides="6" basicInfo-starPoints="5" bounding="rect(-92.1681,-20.1815,184.336,40.363)" text="" font-familyName="" font-pixelSize="20" font-bold="0" font-underline="0" font-alignment="1" strokeStyle="0" markerStart="0" markerEnd="0" shadowEnabled="0" shadowOffsetX="0" shadowOffsetY="2" shadowBlur="4" shadowOpacity="160" blurEnabled="0" blurRadius="4" transform="matrix(0.197118,0,0,0.845204,49,83)" pers-center="0,0" pers-size="0,0" pers-start="0,0" pers-end="0,0" locked="0" mesh="" flag=""/>
            <path id="shapePath1" d="M30.832,65.9425 C30.832,65.9425 67.168,65.9425 67.168,65.9425 C67.168,65.9425 67.168,100.058 67.168,100.058 C67.168,100.058 30.832,100.058 30.832,100.058 C30.832,100.058 30.832,65.9425 30.832,65.9425 Z" style="stroke:#00a2b1;stroke-opacity:1;stroke-width:1;stroke-linejoin:miter;stroke-miterlimit:2;stroke-linecap:butt;fill-rule:evenodd;fill:#82d0d6;fill-opacity:1;"/>
        </g>
        <g id="Shape2">
            <desc shapeID="2" type="0" basicInfo-basicType="0" basicInfo-roundedRectRadius="12" basicInfo-polygonSides="6" basicInfo-starPoints="5" bounding="rect(-92.1656,-20.1815,184.331,40.363)" text="" font-familyName="" font-pixelSize="20" font-bold="0" font-underline="0" font-alignment="1" strokeStyle="0" markerStart="0" markerEnd="0" shadowEnabled="0" shadowOffsetX="0" shadowOffsetY="2" shadowBlur="4" shadowOpacity="160" blurEnabled="0" blurRadius="4" transform="matrix(0.197118,0,0,0.845204,49.0005,123.658)" pers-center="0,0" pers-size="0,0" pers-start="0,0" pers-end="0,0" locked="0" mesh="" flag=""/>
            <path id="shapePath2" d="M30.8329,106.601 C30.8329,106.601 67.168,106.601 67.168,106.601 C67.168,106.601 67.168,140.716 67.168,140.716 C67.168,140.716 30.8329,140.716 30.8329,140.716 C30.8329,140.716 30.8329,106.601 30.8329,106.601 Z" style="stroke:#00a2b1;stroke-opacity:1;stroke-width:1;stroke-linejoin:miter;stroke-miterlimit:2;stroke-linecap:butt;fill-rule:evenodd;fill:#82d0d6;fill-opacity:1;"/>
        </g>
        <g id="Shape3">
            <desc shapeID="3" type="0" basicInfo-basicType="0" basicInfo-roundedRectRadius="12" basicInfo-polygonSides="6" basicInfo-starPoints="5" bounding="rect(-92.1681,-20.1815,184.336,40.363)" text="" font-familyName="" font-pixelSize="20" font-bold="0" font-underline="0" font-alignment="1" strokeStyle="0" markerStart="0" markerEnd="0" shadowEnabled="0" shadowOffsetX="0" shadowOffsetY="2" shadowBlur="4" shadowOpacity="160" blurEnabled="0" blurRadius="4" transform="matrix(0.197118,0,0,0.845204,49,164.523)" pers-center="0,0" pers-size="0,0" pers-start="0,0" pers-end="0,0" locked="0" mesh="" flag=""/>
            <path id="shapePath3" d="M30.832,147.466 C30.832,147.466 67.168,147.466 67.168,147.466 C67.168,147.466 67.168,181.581 67.168,181.581 C67.168,181.581 30.832,181.581 30.832,181.581 C30.832,181.581 30.832,147.466 30.832,147.466 Z" style="stroke:#00a2b1;stroke-opacity:1;stroke-width:1;stroke-linejoin:miter;stroke-miterlimit:2;stroke-linecap:butt;fill-rule:evenodd;fill:#82d0d6;fill-opacity:1;"/>
        </g>
        <g id="Shape4">
            <desc shapeID="4" type="0" basicInfo-basicType="0" basicInfo-roundedRectRadius="12" basicInfo-polygonSides="6" basicInfo-starPoints="5" bounding="rect(-92.1681,-20.1821,184.336,40.3642)" text="" font-familyName="" font-pixelSize="20" font-bold="0" font-underline="0" font-alignment="1" strokeStyle="0" markerStart="0" markerEnd="0" shadowEnabled="0" shadowOffsetX="0" shadowOffsetY="2" shadowBlur="4" shadowOpacity="160" blurEnabled="0" blurRadius="4" transform="matrix(0.197118,0,0,0.845204,49,204.181)" pers-center="0,0" pers-size="0,0" pers-start="0,0" pers-end="0,0" locked="0" mesh="" flag=""/>
            <path id="shapePath4" d="M30.832,187.124 C30.832,187.124 67.168,187.124 67.168,187.124 C67.168,187.124 67.168,221.24 67.168,221.24 C67.168,221.24 30.832,221.24 30.832,221.24 C30.832,221.24 30.832,187.124 30.832,187.124 Z" style="stroke:#00a2b1;stroke-opacity:1;stroke-width:1;stroke-linejoin:miter;stroke-miterlimit:2;stroke-linecap:butt;fill-rule:evenodd;fill:#82d0d6;fill-opacity:1;"/>
        </g>
        <g id="Shape5">
            <desc shapeID="5" type="0" basicInfo-basicType="0" basicInfo-roundedRectRadius="12" basicInfo-polygonSides="6" basicInfo-starPoints="5" bounding="rect(-92.1681,-20.1821,184.336,40.3642)" text="" font-familyName="" font-pixelSize="20" font-bold="0" font-underline="0" font-alignment="1" strokeStyle="0" markerStart="0" markerEnd="0" shadowEnabled="0" shadowOffsetX="0" shadowOffsetY="2" shadowBlur="4" shadowOpacity="160" blurEnabled="0" blurRadius="4" transform="matrix(0.197118,0,0,0.845204,49,245.558)" pers-center="0,0" pers-size="0,0" pers-start="0,0" pers-end="0,0" locked="0" mesh="" flag=""/>
            <path id="shapePath5" d="M30.832,228.501 C30.832,228.501 67.168,228.501 67.168,228.501 C67.168,228.501 67.168,262.617 67.168,262.617 C67.168,262.617 30.832,262.617 30.832,262.617 C30.832,262.617 30.832,228.501 30.832,228.501 Z" style="stroke:#00a2b1;stroke-opacity:1;stroke-width:1;stroke-linejoin:miter;stroke-miterlimit:2;stroke-linecap:butt;fill-rule:evenodd;fill:#82d0d6;fill-opacity:1;"/>
        </g>
        <g id="Shape6">
            <desc shapeID="6" type="0" basicInfo-basicType="0" basicInfo-roundedRectRadius="12" basicInfo-polygonSides="6" basicInfo-starPoints="5" bounding="rect(-92.1681,-20.1815,184.336,40.363)" text="" font-familyName="" font-pixelSize="20" font-bold="0" font-underline="0" font-alignment="1" strokeStyle="0" markerStart="0" markerEnd="0" shadowEnabled="0" shadowOffsetX="0" shadowOffsetY="2" shadowBlur="4" shadowOpacity="160" blurEnabled="0" blurRadius="4" transform="matrix(0.197118,0,0,0.845204,49,284.217)" pers-center="0,0" pers-size="0,0" pers-start="0,0" pers-end="0,0" locked="0" mesh="" flag=""/>
            <path id="shapePath6" d="M30.832,267.16 C30.832,267.16 67.168,267.16 67.168,267.16 C67.168,267.16 67.168,301.275 67.168,301.275 C67.168,301.275 30.832,301.275 30.832,301.275 C30.832,301.275 30.832,267.16 30.832,267.16 Z" style="stroke:#00a2b1;stroke-opacity:1;stroke-width:1;stroke-linejoin:miter;stroke-miterlimit:2;stroke-linecap:butt;fill-rule:evenodd;fill:#82d0d6;fill-opacity:1;"/>
        </g>
        <g id="Shape7">
            <desc shapeID="7" type="0" basicInfo-basicType="0" basicInfo-roundedRectRadius="12" basicInfo-polygonSides="6" basicInfo-starPoints="5" bounding="rect(-92.1681,-20.1815,184.336,40.363)" text="" font-familyName="" font-pixelSize="20" font-bold="0" font-underline="0" font-alignment="1" strokeStyle="0" markerStart="0" markerEnd="0" shadowEnabled="0" shadowOffsetX="0" shadowOffsetY="2" shadowBlur="4" shadowOpacity="160" blurEnabled="0" blurRadius="4" transform="matrix(0.197118,0,0,0.845204,49,326.207)" pers-center="0,0" pers-size="0,0" pers-start="0,0" pers-end="0,0" locked="0" mesh="" flag=""/>
            <path id="shapePath7" d="M30.832,309.15 C30.832,309.15 67.168,309.15 67.168,309.15 C67.168,309.15 67.168,343.265 67.168,343.265 C67.168,343.265 30.832,343.265 30.832,343.265 C30.832,343.265 30.832,309.15 30.832,309.15 Z" style="stroke:#00a2b1;stroke-opacity:1;stroke-width:1;stroke-linejoin:miter;stroke-miterlimit:2;stroke-linecap:butt;fill-rule:evenodd;fill:#82d0d6;fill-opacity:1;"/>
        </g>
        <g id="Shape8">
            <desc shapeID="8" type="0" basicInfo-basicType="0" basicInfo-roundedRectRadius="12" basicInfo-polygonSides="6" basicInfo-starPoints="5" bounding="rect(-92.1681,-20.1815,184.336,40.363)" text="" font-familyName="" font-pixelSize="20" font-bold="0" font-underline="0" font-alignment="1" strokeStyle="0" markerStart="0" markerEnd="0" shadowEnabled="0" shadowOffsetX="0" shadowOffsetY="2" shadowBlur="4" shadowOpacity="160" blurEnabled="0" blurRadius="4" transform="matrix(0.197118,0,0,0.845204,49,364.865)" pers-center="0,0" pers-size="0,0" pers-start="0,0" pers-end="0,0" locked="0" mesh="" flag=""/>
            <path id="shapePath8" d="M30.832,347.808 C30.832,347.808 67.168,347.808 67.168,347.808 C67.168,347.808 67.168,381.923 67.168,381.923 C67.168,381.923 30.832,381.923 30.832,381.923 C30.832,381.923 30.832,347.808 30.832,347.808 Z" style="stroke:#00a2b1;stroke-opacity:1;stroke-width:1;stroke-linejoin:miter;stroke-miterlimit:2;stroke-linecap:butt;fill-rule:evenodd;fill:#82d0d6;fill-opacity:1;"/>
        </g>
        <g id="Shape9">
            <desc shapeID="9" type="0" basicInfo-basicType="0" basicInfo-roundedRectRadius="12" basicInfo-polygonSides="6" basicInfo-starPoints="5" bounding="rect(-92.1681,-20.182,184.336,40.3642)" text="" font-familyName="" font-pixelSize="20" font-bold="0" font-underline="0" font-alignment="1" strokeStyle="0" markerStart="0" markerEnd="0" shadowEnabled="0" shadowOffsetX="0" shadowOffsetY="2" shadowBlur="4" shadowOpacity="160" blurEnabled="0" blurRadius="4" transform="matrix(0.197118,0,0,0.845204,49,405.73)" pers-center="0,0" pers-size="0,0" pers-start="0,0" pers-end="0,0" locked="0" mesh="" flag=""/>
            <path id="shapePath9" d="M30.832,388.673 C30.832,388.673 67.168,388.673 67.168,388.673 C67.168,388.673 67.168,422.789 67.168,422.789 C67.168,422.789 30.832,422.789 30.832,422.789 C30.832,422.789 30.832,388.673 30.832,388.673 Z" style="stroke:#00a2b1;stroke-opacity:1;stroke-width:1;stroke-linejoin:miter;stroke-miterlimit:2;stroke-linecap:butt;fill-rule:evenodd;fill:#82d0d6;fill-opacity:1;"/>
        </g>
        <g id="Shape10">
            <desc shapeID="10" type="0" basicInfo-basicType="0" basicInfo-roundedRectRadius="12" basicInfo-polygonSides="6" basicInfo-starPoints="5" bounding="rect(-92.1681,-20.1814,184.336,40.363)" text="" font-familyName="" font-pixelSize="20" font-bold="0" font-underline="0" font-alignment="1" strokeStyle="0" markerStart="0" markerEnd="0" shadowEnabled="0" shadowOffsetX="0" shadowOffsetY="2" shadowBlur="4" shadowOpacity="160" blurEnabled="0" blurRadius="4" transform="matrix(0.197118,0,0,0.845204,49,448.389)" pers-center="0,0" pers-size="0,0" pers-start="0,0" pers-end="0,0" locked="0" mesh="" flag=""/>
            <path id="shapePath10" d="M30.832,431.332 C30.832,431.332 67.168,431.332 67.168,431.332 C67.168,431.332 67.168,465.446 67.168,465.446 C67.168,465.446 30.832,465.446 30.832,465.446 C30.832,465.446 30.832,431.332 30.832,431.332 Z" style="stroke:#00a2b1;stroke-opacity:1;stroke-width:1;stroke-linejoin:miter;stroke-miterlimit:2;stroke-linecap:butt;fill-rule:evenodd;fill:#82d0d6;fill-opacity:1;"/>
        </g>
        <g id="Shape11">
            <desc shapeID="11" type="2" basicInfo-basicType="0" basicInfo-roundedRectRadius="12" basicInfo-polygonSides="6" basicInfo-starPoints="5" bounding="rect(-54.9297,-250,109.859,500)" text="1&#10;2&#10;3&#10;4&#10;5&#10;6&#10;7&#10;8&#10;9&#10;0&#10;" font-familyName="Gotham" font-pixelSize="34" font-bold="0" font-underline="0" font-alignment="1" strokeStyle="0" markerStart="0" markerEnd="0" shadowEnabled="0" shadowOffsetX="0" shadowOffsetY="2" shadowBlur="4" shadowOpacity="160" blurEnabled="0" blurRadius="4" transform="matrix(1,0,0,1,48.9854,285.84)" pers-center="0,0" pers-size="0,0" pers-start="0,0" pers-end="0,0" locked="0" mesh="" flag=""/>
            <path id="shapePath11" d="M48.9933,93.6685 L51.6453,93.6685 L51.6453,69.6985 L49.6733,69.6985 L43.8593,71.7045 L44.5053,73.8805 L48.9933,72.4865 L48.9933,93.6685 M40.4456,134.481 L57.0716,134.481 L57.0716,132.033 L44.4576,132.033 L50.8156,126.389 C54.9976,122.751 56.8336,120.609 56.8336,117.141 L56.8336,117.073 C56.8336,113.197 53.7396,110.341 49.4556,110.341 C45.2736,110.341 43.0296,112.211 40.8876,115.407 L42.8596,116.835 C44.7636,114.183 46.5316,112.755 49.2516,112.755 C51.8356,112.755 54.0456,114.523 54.0456,117.311 C54.0456,119.691 52.7196,121.527 49.0816,124.791 L40.4456,132.407 L40.4456,134.481 M49.1532,175.701 C53.5732,175.701 57.1092,172.777 57.1092,168.527 L57.1092,168.459 C57.1092,164.107 53.4032,162.101 49.2552,161.761 L56.7352,153.465 L56.7352,151.493 L41.5372,151.493 L41.5372,153.907 L53.1652,153.907 L45.6512,162.373 L46.1952,163.971 L47.7252,163.971 C51.6352,163.971 54.3892,165.603 54.3892,168.561 L54.3892,168.629 C54.3892,171.417 52.0772,173.253 49.1872,173.253 C46.2632,173.253 44.0532,171.961 42.2172,169.717 L40.2792,171.451 C42.2172,173.967 45.1752,175.701 49.1532,175.701 M52.2672,216.106 L54.8512,216.106 L54.8512,210.462 L58.5572,210.462 L58.5572,208.218 L54.8512,208.218 L54.8512,192.136 L52.5052,192.136 L39.0412,208.524 L39.7212,210.462 L52.2672,210.462 L52.2672,216.106 M42.2712,208.218 L52.2672,195.944 L52.2672,208.218 L42.2712,208.218 M48.8968,257.326 C53.8608,257.326 57.3968,254.164 57.3968,249.506 L57.3968,249.438 C57.3968,244.916 53.7928,242.162 49.1688,242.162 C47.1968,242.162 45.8708,242.604 44.4768,243.216 L44.9868,235.6 L56.3428,235.6 L56.3428,233.118 L42.6408,233.118 L41.9608,244.712 L43.7628,245.902 C45.1568,245.154 46.7548,244.542 48.7608,244.542 C52.2288,244.542 54.6768,246.582 54.6768,249.54 L54.6768,249.608 C54.6768,252.634 52.3308,254.878 48.9308,254.878 C46.5168,254.878 44.2388,253.62 42.1648,251.614 L40.3968,253.552 C42.5388,255.694 45.4968,257.326 48.8968,257.326 M49.3231,298.139 C54.1511,298.139 57.8571,294.807 57.8571,290.217 L57.8571,290.149 C57.8571,285.695 54.0491,282.839 49.6291,282.839 C46.1611,282.839 44.1551,284.573 42.8631,286.477 C42.8291,280.323 45.5151,275.971 49.8331,275.971 C52.0091,275.971 53.6751,276.821 55.4431,278.317 L57.0071,276.243 C54.9331,274.543 52.8251,273.523 49.9691,273.523 C43.7471,273.523 40.0751,279.201 40.0751,286.443 L40.0751,286.511 C40.0751,291.373 41.1631,293.821 43.0671,295.725 C44.5631,297.221 46.7051,298.139 49.3231,298.139 M49.3571,295.759 C45.8551,295.759 43.3391,293.447 43.3391,290.421 L43.3391,290.353 C43.3391,287.701 45.7191,285.151 49.2891,285.151 C52.7231,285.151 55.1031,287.327 55.1031,290.251 L55.1031,290.319 C55.1031,293.345 52.8591,295.759 49.3571,295.759 M43.5184,338.543 L46.5104,338.543 L57.3224,316.749 L57.3224,314.743 L41.1724,314.743 L41.1724,317.191 L54.2624,317.191 L43.5184,338.543 M48.9923,379.696 C54.0583,379.696 57.9343,376.976 57.9343,372.93 L57.9343,372.862 C57.9343,370.04 55.8603,368.102 53.0383,367.048 C55.2483,366.028 57.1183,364.328 57.1183,361.574 L57.1183,361.506 C57.1183,357.834 53.3443,355.216 48.9923,355.216 C44.6403,355.216 40.8663,357.834 40.8663,361.506 L40.8663,361.574 C40.8663,364.328 42.7363,366.028 44.9463,367.048 C42.0903,368.068 40.0503,370.074 40.0503,372.896 L40.0503,372.964 C40.0503,376.942 43.9263,379.696 48.9923,379.696 M48.9923,366.096 C45.9663,366.096 43.5523,364.328 43.5523,361.744 L43.5523,361.676 C43.5523,359.296 45.8983,357.562 48.9923,357.562 C52.0863,357.562 54.4323,359.33 54.4323,361.676 L54.4323,361.744 C54.4323,364.328 52.0183,366.096 48.9923,366.096 M48.9923,377.35 C45.0823,377.35 42.7703,375.31 42.7703,372.896 L42.7703,372.828 C42.7703,370.176 45.5243,368.306 48.9923,368.306 C52.4603,368.306 55.2143,370.176 55.2143,372.828 L55.2143,372.896 C55.2143,375.31 52.9023,377.35 48.9923,377.35 M48.0311,420.576 C53.9131,420.576 57.9251,415.238 57.9251,407.69 L57.9251,407.622 C57.9251,402.862 56.7691,400.21 54.9671,398.408 C53.4371,396.878 51.4311,395.96 48.7111,395.96 C43.6451,395.96 40.1431,399.53 40.1431,404.052 L40.1431,404.12 C40.1431,408.404 43.5431,411.498 48.4391,411.498 C51.7371,411.498 53.8791,409.764 55.1711,407.69 C55.2731,413.776 52.3831,418.128 48.0991,418.128 C45.9911,418.128 44.1891,417.278 42.2511,415.578 L40.6871,417.652 C42.6931,419.318 44.9371,420.576 48.0311,420.576 M48.7451,409.186 C45.2771,409.186 42.8971,407.01 42.8971,403.984 L42.8971,403.916 C42.8971,400.958 45.0391,398.34 48.6091,398.34 C52.1791,398.34 54.6611,400.72 54.6611,403.746 L54.6611,403.814 C54.6611,406.534 52.3831,409.186 48.7451,409.186 M48.9828,461.389 C55.1028,461.389 59.0468,455.745 59.0468,449.081 L59.0468,449.013 C59.0468,442.349 55.1708,436.773 49.0508,436.773 C42.9308,436.773 38.9528,442.417 38.9528,449.081 L38.9528,449.149 C38.9528,455.813 42.8288,461.389 48.9828,461.389 M49.0508,458.941 C44.5968,458.941 41.7408,454.283 41.7408,449.081 L41.7408,449.013 C41.7408,443.777 44.5288,439.221 48.9828,439.221 C53.4028,439.221 56.2588,443.879 56.2588,449.081 L56.2588,449.149 C56.2588,454.351 53.5048,458.941 49.0508,458.941 Z" style="stroke:none;fill-rule:nonzero;fill:#000000;fill-opacity:1;"/>
        </g>
        <g id="Shape12">
            <desc shapeID="12" type="2" basicInfo-basicType="0" basicInfo-roundedRectRadius="12" basicInfo-polygonSides="6" basicInfo-starPoints="5" bounding="rect(-54.9297,-250,109.859,500)" text="1&#10;2&#10;3&#10;4&#10;5&#10;6&#10;7&#10;8&#10;9&#10;0&#10;" font-familyName="Gotham" font-pixelSize="34" font-bold="0" font-underline="0" font-alignment="1" strokeStyle="0" markerStart="0" markerEnd="0" shadowEnabled="0" shadowOffsetX="0" shadowOffsetY="2" shadowBlur="4" shadowOpacity="160" blurEnabled="0" blurRadius="4" transform="matrix(1,0,0,1,172,282.084)" pers-center="0,0" pers-size="0,0" pers-start="0,0" pers-end="0,0" locked="0" mesh="" flag=""/>
            <path id="shapePath12" d="M172.007,89.9125 L174.659,89.9125 L174.659,65.9425 L172.687,65.9425 L166.873,67.9485 L167.519,70.1245 L172.007,68.7305 L172.007,89.9125 M163.46,130.725 L180.086,130.725 L180.086,128.277 L167.472,128.277 L173.83,122.633 C178.012,118.995 179.848,116.853 179.848,113.385 L179.848,113.317 C179.848,109.441 176.754,106.585 172.47,106.585 C168.288,106.585 166.044,108.455 163.902,111.651 L165.874,113.079 C167.778,110.427 169.546,108.999 172.266,108.999 C174.85,108.999 177.06,110.767 177.06,113.555 C177.06,115.935 175.734,117.771 172.096,121.035 L163.46,128.651 L163.46,130.725 M172.167,171.946 C176.587,171.946 180.123,169.022 180.123,164.772 L180.123,164.704 C180.123,160.352 176.417,158.346 172.269,158.006 L179.749,149.71 L179.749,147.738 L164.551,147.738 L164.551,150.152 L176.179,150.152 L168.665,158.618 L169.209,160.216 L170.739,160.216 C174.649,160.216 177.403,161.848 177.403,164.806 L177.403,164.874 C177.403,167.662 175.091,169.498 172.201,169.498 C169.277,169.498 167.067,168.206 165.231,165.962 L163.293,167.696 C165.231,170.212 168.189,171.946 172.167,171.946 M175.281,212.35 L177.865,212.35 L177.865,206.706 L181.571,206.706 L181.571,204.462 L177.865,204.462 L177.865,188.38 L175.519,188.38 L162.055,204.768 L162.735,206.706 L175.281,206.706 L175.281,212.35 M165.285,204.462 L175.281,192.188 L175.281,204.462 L165.285,204.462 M171.911,253.571 C176.875,253.571 180.411,250.409 180.411,245.751 L180.411,245.683 C180.411,241.161 176.807,238.407 172.183,238.407 C170.211,238.407 168.885,238.849 167.491,239.461 L168.001,231.845 L179.357,231.845 L179.357,229.363 L165.655,229.363 L164.975,240.957 L166.777,242.147 C168.171,241.399 169.769,240.787 171.775,240.787 C175.243,240.787 177.691,242.827 177.691,245.785 L177.691,245.853 C177.691,248.879 175.345,251.123 171.945,251.123 C169.531,251.123 167.253,249.865 165.179,247.859 L163.411,249.797 C165.553,251.939 168.511,253.571 171.911,253.571 M172.337,294.383 C177.165,294.383 180.871,291.051 180.871,286.461 L180.871,286.393 C180.871,281.939 177.063,279.083 172.643,279.083 C169.175,279.083 167.169,280.817 165.877,282.721 C165.843,276.567 168.529,272.215 172.847,272.215 C175.023,272.215 176.689,273.065 178.457,274.561 L180.021,272.487 C177.947,270.787 175.839,269.767 172.983,269.767 C166.761,269.767 163.089,275.445 163.089,282.687 L163.089,282.755 C163.089,287.617 164.177,290.065 166.081,291.969 C167.577,293.465 169.719,294.383 172.337,294.383 M172.371,292.003 C168.869,292.003 166.353,289.691 166.353,286.665 L166.353,286.597 C166.353,283.945 168.733,281.395 172.303,281.395 C175.737,281.395 178.117,283.571 178.117,286.495 L178.117,286.563 C178.117,289.589 175.873,292.003 172.371,292.003 M166.533,334.788 L169.525,334.788 L180.337,312.994 L180.337,310.988 L164.187,310.988 L164.187,313.436 L177.277,313.436 L166.533,334.788 M172.006,375.94 C177.072,375.94 180.948,373.22 180.948,369.174 L180.948,369.106 C180.948,366.284 178.874,364.346 176.052,363.292 C178.262,362.272 180.132,360.572 180.132,357.818 L180.132,357.75 C180.132,354.078 176.358,351.46 172.006,351.46 C167.654,351.46 163.88,354.078 163.88,357.75 L163.88,357.818 C163.88,360.572 165.75,362.272 167.96,363.292 C165.104,364.312 163.064,366.318 163.064,369.14 L163.064,369.208 C163.064,373.186 166.94,375.94 172.006,375.94 M172.006,362.34 C168.98,362.34 166.566,360.572 166.566,357.988 L166.566,357.92 C166.566,355.54 168.912,353.806 172.006,353.806 C175.1,353.806 177.446,355.574 177.446,357.92 L177.446,357.988 C177.446,360.572 175.032,362.34 172.006,362.34 M172.006,373.594 C168.096,373.594 165.784,371.554 165.784,369.14 L165.784,369.072 C165.784,366.42 168.538,364.55 172.006,364.55 C175.474,364.55 178.228,366.42 178.228,369.072 L178.228,369.14 C178.228,371.554 175.916,373.594 172.006,373.594 M171.045,416.821 C176.927,416.821 180.939,411.483 180.939,403.935 L180.939,403.867 C180.939,399.107 179.783,396.455 177.981,394.653 C176.451,393.123 174.445,392.205 171.725,392.205 C166.659,392.205 163.157,395.775 163.157,400.297 L163.157,400.365 C163.157,404.649 166.557,407.743 171.453,407.743 C174.751,407.743 176.893,406.009 178.185,403.935 C178.287,410.021 175.397,414.373 171.113,414.373 C169.005,414.373 167.203,413.523 165.265,411.823 L163.701,413.897 C165.707,415.563 167.951,416.821 171.045,416.821 M171.759,405.431 C168.291,405.431 165.911,403.255 165.911,400.229 L165.911,400.161 C165.911,397.203 168.053,394.585 171.623,394.585 C175.193,394.585 177.675,396.965 177.675,399.991 L177.675,400.059 C177.675,402.779 175.397,405.431 171.759,405.431 M171.997,457.633 C178.117,457.633 182.061,451.989 182.061,445.325 L182.061,445.257 C182.061,438.593 178.185,433.017 172.065,433.017 C165.945,433.017 161.967,438.661 161.967,445.325 L161.967,445.393 C161.967,452.057 165.843,457.633 171.997,457.633 M172.065,455.185 C167.611,455.185 164.755,450.527 164.755,445.325 L164.755,445.257 C164.755,440.021 167.543,435.465 171.997,435.465 C176.417,435.465 179.273,440.123 179.273,445.325 L179.273,445.393 C179.273,450.595 176.519,455.185 172.065,455.185 Z" style="stroke:none;fill-rule:nonzero;fill:#000000;fill-opacity:1;"/>
        </g>
        <g id="Shape13">
            <desc shapeID="13" type="0" basicInfo-basicType="0" basicInfo-roundedRectRadius="12" basicInfo-polygonSides="6" basicInfo-starPoints="5" bounding="rect(-92.1681,-20.1815,184.336,40.363)" text="" font-familyName="" font-pixelSize="20" font-bold="0" font-underline="0" font-alignment="1" strokeStyle="0" markerStart="0" markerEnd="0" shadowEnabled="0" shadowOffsetX="0" shadowOffsetY="2" shadowBlur="4" shadowOpacity="160" blurEnabled="0" blurRadius="4" transform="matrix(0.197118,0,0,0.845204,172.014,78)" pers-center="0,0" pers-size="0,0" pers-start="0,0" pers-end="0,0" locked="0" mesh="" flag=""/>
            <path id="shapePath13" d="M153.846,60.9426 C153.846,60.9426 190.182,60.9426 190.182,60.9426 C190.182,60.9426 190.182,95.0576 190.182,95.0576 C190.182,95.0576 153.846,95.0576 153.846,95.0576 C153.846,95.0576 153.846,60.9426 153.846,60.9426 Z" style="stroke:#000000;stroke-opacity:1;stroke-width:1;stroke-linejoin:miter;stroke-miterlimit:2;stroke-linecap:butt;fill:none;"/>
        </g>
        <g id="Shape14">
            <desc shapeID="14" type="0" basicInfo-basicType="0" basicInfo-roundedRectRadius="12" basicInfo-polygonSides="6" basicInfo-starPoints="5" bounding="rect(-92.1681,-20.1815,184.336,40.363)" text="" font-familyName="" font-pixelSize="20" font-bold="0" font-underline="0" font-alignment="1" strokeStyle="0" markerStart="0" markerEnd="0" shadowEnabled="0" shadowOffsetX="0" shadowOffsetY="2" shadowBlur="4" shadowOpacity="160" blurEnabled="0" blurRadius="4" transform="matrix(0.197118,0,0,0.845204,172.014,118.658)" pers-center="0,0" pers-size="0,0" pers-start="0,0" pers-end="0,0" locked="0" mesh="" flag=""/>
            <path id="shapePath14" d="M153.846,101.601 C153.846,101.601 190.182,101.601 190.182,101.601 C190.182,101.601 190.182,135.716 190.182,135.716 C190.182,135.716 153.846,135.716 153.846,135.716 C153.846,135.716 153.846,101.601 153.846,101.601 Z" style="stroke:#000000;stroke-opacity:1;stroke-width:1;stroke-linejoin:miter;stroke-miterlimit:2;stroke-linecap:butt;fill:none;"/>
        </g>
        <g id="Shape15">
            <desc shapeID="15" type="0" basicInfo-basicType="0" basicInfo-roundedRectRadius="12" basicInfo-polygonSides="6" basicInfo-starPoints="5" bounding="rect(-92.1681,-20.1815,184.336,40.363)" text="" font-familyName="" font-pixelSize="20" font-bold="0" font-underline="0" font-alignment="1" strokeStyle="0" markerStart="0" markerEnd="0" shadowEnabled="0" shadowOffsetX="0" shadowOffsetY="2" shadowBlur="4" shadowOpacity="160" blurEnabled="0" blurRadius="4" transform="matrix(0.197118,0,0,0.845204,172.014,159.773)" pers-center="0,0" pers-size="0,0" pers-start="0,0" pers-end="0,0" locked="0" mesh="" flag=""/>
            <path id="shapePath15" d="M153.846,142.716 C153.846,142.716 190.182,142.716 190.182,142.716 C190.182,142.716 190.182,176.831 190.182,176.831 C190.182,176.831 153.846,176.831 153.846,176.831 C153.846,176.831 153.846,142.716 153.846,142.716 Z" style="stroke:#000000;stroke-opacity:1;stroke-width:1;stroke-linejoin:miter;stroke-miterlimit:2;stroke-linecap:butt;fill:none;"/>
        </g>
        <g id="Shape16">
            <desc shapeID="16" type="0" basicInfo-basicType="0" basicInfo-roundedRectRadius="12" basicInfo-polygonSides="6" basicInfo-starPoints="5" bounding="rect(-92.1681,-20.1815,184.336,40.363)" text="" font-familyName="" font-pixelSize="20" font-bold="0" font-underline="0" font-alignment="1" strokeStyle="0" markerStart="0" markerEnd="0" shadowEnabled="0" shadowOffsetX="0" shadowOffsetY="2" shadowBlur="4" shadowOpacity="160" blurEnabled="0" blurRadius="4" transform="matrix(0.197118,0,0,0.845204,172.014,199.638)" pers-center="0,0" pers-size="0,0" pers-start="0,0" pers-end="0,0" locked="0" mesh="" flag=""/>
            <path id="shapePath16" d="M153.846,182.581 C153.846,182.581 190.182,182.581 190.182,182.581 C190.182,182.581 190.182,216.696 190.182,216.696 C190.182,216.696 153.846,216.696 153.846,216.696 C153.846,216.696 153.846,182.581 153.846,182.581 Z" style="stroke:#000000;stroke-opacity:1;stroke-width:1;stroke-linejoin:miter;stroke-miterlimit:2;stroke-linecap:butt;fill:none;"/>
        </g>
        <g id="Shape17">
            <desc shapeID="17" type="0" basicInfo-basicType="0" basicInfo-roundedRectRadius="12" basicInfo-polygonSides="6" basicInfo-starPoints="5" bounding="rect(-92.1681,-20.1815,184.336,40.363)" text="" font-familyName="" font-pixelSize="20" font-bold="0" font-underline="0" font-alignment="1" strokeStyle="0" markerStart="0" markerEnd="0" shadowEnabled="0" shadowOffsetX="0" shadowOffsetY="2" shadowBlur="4" shadowOpacity="160" blurEnabled="0" blurRadius="4" transform="matrix(0.197118,0,0,0.845204,172.014,240.559)" pers-center="0,0" pers-size="0,0" pers-start="0,0" pers-end="0,0" locked="0" mesh="" flag=""/>
            <path id="shapePath17" d="M153.846,223.502 C153.846,223.502 190.182,223.502 190.182,223.502 C190.182,223.502 190.182,257.617 190.182,257.617 C190.182,257.617 153.846,257.617 153.846,257.617 C153.846,257.617 153.846,223.502 153.846,223.502 Z" style="stroke:#000000;stroke-opacity:1;stroke-width:1;stroke-linejoin:miter;stroke-miterlimit:2;stroke-linecap:butt;fill:none;"/>
        </g>
        <g id="Shape18">
            <desc shapeID="18" type="0" basicInfo-basicType="0" basicInfo-roundedRectRadius="12" basicInfo-polygonSides="6" basicInfo-starPoints="5" bounding="rect(-92.1681,-20.1815,184.336,40.363)" text="" font-familyName="" font-pixelSize="20" font-bold="0" font-underline="0" font-alignment="1" strokeStyle="0" markerStart="0" markerEnd="0" shadowEnabled="0" shadowOffsetX="0" shadowOffsetY="2" shadowBlur="4" shadowOpacity="160" blurEnabled="0" blurRadius="4" transform="matrix(0.197118,0,0,0.845204,172,282)" pers-center="0,0" pers-size="0,0" pers-start="0,0" pers-end="0,0" locked="0" mesh="" flag=""/>
            <path id="shapePath18" d="M153.832,264.943 C153.832,264.943 190.168,264.943 190.168,264.943 C190.168,264.943 190.168,299.058 190.168,299.058 C190.168,299.058 153.832,299.058 153.832,299.058 C153.832,299.058 153.832,264.943 153.832,264.943 Z" style="stroke:#000000;stroke-opacity:1;stroke-width:1;stroke-linejoin:miter;stroke-miterlimit:2;stroke-linecap:butt;fill:none;"/>
        </g>
        <g id="Shape19">
            <desc shapeID="19" type="0" basicInfo-basicType="0" basicInfo-roundedRectRadius="12" basicInfo-polygonSides="6" basicInfo-starPoints="5" bounding="rect(-92.1681,-20.1815,184.336,40.363)" text="" font-familyName="" font-pixelSize="20" font-bold="0" font-underline="0" font-alignment="1" strokeStyle="0" markerStart="0" markerEnd="0" shadowEnabled="0" shadowOffsetX="0" shadowOffsetY="2" shadowBlur="4" shadowOpacity="160" blurEnabled="0" blurRadius="4" transform="matrix(0.197118,0,0,0.845204,172,322.332)" pers-center="0,0" pers-size="0,0" pers-start="0,0" pers-end="0,0" locked="0" mesh="" flag=""/>
            <path id="shapePath19" d="M153.832,305.275 C153.832,305.275 190.168,305.275 190.168,305.275 C190.168,305.275 190.168,339.39 190.168,339.39 C190.168,339.39 153.832,339.39 153.832,339.39 C153.832,339.39 153.832,305.275 153.832,305.275 Z" style="stroke:#000000;stroke-opacity:1;stroke-width:1;stroke-linejoin:miter;stroke-miterlimit:2;stroke-linecap:butt;fill:none;"/>
        </g>
        <g id="Shape20">
            <desc shapeID="20" type="0" basicInfo-basicType="0" basicInfo-roundedRectRadius="12" basicInfo-polygonSides="6" basicInfo-starPoints="5" bounding="rect(-92.1681,-20.1815,184.336,40.363)" text="" font-familyName="" font-pixelSize="20" font-bold="0" font-underline="0" font-alignment="1" strokeStyle="0" markerStart="0" markerEnd="0" shadowEnabled="0" shadowOffsetX="0" shadowOffsetY="2" shadowBlur="4" shadowOpacity="160" blurEnabled="0" blurRadius="4" transform="matrix(0.197118,0,0,0.845204,172,363)" pers-center="0,0" pers-size="0,0" pers-start="0,0" pers-end="0,0" locked="0" mesh="" flag=""/>
            <path id="shapePath20" d="M153.832,345.943 C153.832,345.943 190.168,345.943 190.168,345.943 C190.168,345.943 190.168,380.058 190.168,380.058 C190.168,380.058 153.832,380.058 153.832,380.058 C153.832,380.058 153.832,345.943 153.832,345.943 Z" style="stroke:#000000;stroke-opacity:1;stroke-width:1;stroke-linejoin:miter;stroke-miterlimit:2;stroke-linecap:butt;fill:none;"/>
        </g>
        <g id="Shape21">
            <desc shapeID="21" type="0" basicInfo-basicType="0" basicInfo-roundedRectRadius="12" basicInfo-polygonSides="6" basicInfo-starPoints="5" bounding="rect(-92.1681,-20.1815,184.336,40.363)" text="" font-familyName="" font-pixelSize="20" font-bold="0" font-underline="0" font-alignment="1" strokeStyle="0" markerStart="0" markerEnd="0" shadowEnabled="0" shadowOffsetX="0" shadowOffsetY="2" shadowBlur="4" shadowOpacity="160" blurEnabled="0" blurRadius="4" transform="matrix(0.197118,0,0,0.845204,172,404.73)" pers-center="0,0" pers-size="0,0" pers-start="0,0" pers-end="0,0" locked="0" mesh="" flag=""/>
            <path id="shapePath21" d="M153.832,387.673 C153.832,387.673 190.168,387.673 190.168,387.673 C190.168,387.673 190.168,421.788 190.168,421.788 C190.168,421.788 153.832,421.788 153.832,421.788 C153.832,421.788 153.832,387.673 153.832,387.673 Z" style="stroke:#000000;stroke-opacity:1;stroke-width:1;stroke-linejoin:miter;stroke-miterlimit:2;stroke-linecap:butt;fill:none;"/>
        </g>
        <g id="Shape22">
            <desc shapeID="22" type="0" basicInfo-basicType="0" basicInfo-roundedRectRadius="12" basicInfo-polygonSides="6" basicInfo-starPoints="5" bounding="rect(-92.1681,-20.1815,184.336,40.363)" text="" font-familyName="" font-pixelSize="20" font-bold="0" font-underline="0" font-alignment="1" strokeStyle="0" markerStart="0" markerEnd="0" shadowEnabled="0" shadowOffsetX="0" shadowOffsetY="2" shadowBlur="4" shadowOpacity="160" blurEnabled="0" blurRadius="4" transform="matrix(0.197118,0,0,0.845204,172,445.575)" pers-center="0,0" pers-size="0,0" pers-start="0,0" pers-end="0,0" locked="0" mesh="" flag=""/>
            <path id="shapePath22" d="M153.832,428.518 C153.832,428.518 190.168,428.518 190.168,428.518 C190.168,428.518 190.168,462.633 190.168,462.633 C190.168,462.633 153.832,462.633 153.832,462.633 C153.832,462.633 153.832,428.518 153.832,428.518 Z" style="stroke:#000000;stroke-opacity:1;stroke-width:1;stroke-linejoin:miter;stroke-miterlimit:2;stroke-linecap:butt;fill:none;"/>
        </g>
    </g>
</svg>
