<?xml version="1.0"?>
<svg version="1.1" xmlns="http://www.w3.org/2000/svg" xmlns:xlink="http://www.w3.org/1999/xlink" width="640" height="480">
    <desc iVinci="yes" version="4.6" gridStep="20" showGrid="no" snapToGrid="no" codePlatform="0"/>
    <g id="Layer1" name="Layer 1" opacity="1">
        <g id="Shape1">
            <desc shapeID="1" type="0" basicInfo-basicType="0" basicInfo-roundedRectRadius="12" basicInfo-polygonSides="6" basicInfo-starPoints="5" bounding="rect(-164.12,-41.1953,328.239,82.3905)" text="" font-familyName="" font-pixelSize="20" font-bold="0" font-underline="0" font-alignment="1" strokeStyle="0" markerStart="0" markerEnd="0" shadowEnabled="0" shadowOffsetX="0" shadowOffsetY="2" shadowBlur="4" shadowOpacity="160" blurEnabled="0" blurRadius="4" transform="matrix(1.83668,0,0,1.83668,324.435,98.2189)" pers-center="0,0" pers-size="0,0" pers-start="0,0" pers-end="0,0" locked="0" mesh="" flag=""/>
            <path id="shapePath1" d="M596.763,22.5564 C596.763,22.5564 593.321,22.5564 593.321,22.5564 C593.321,22.5564 557.599,22.5564 557.599,22.5564 C557.599,22.5564 177.399,22.5564 177.399,22.5564 C177.399,22.5564 165.436,37.9116 165.436,37.9116 C164.316,39.333 162.657,40.1587 160.894,40.1587 C160.894,40.1587 115.717,40.1587 115.717,40.1587 C113.955,40.1587 112.297,39.333 111.178,37.9116 C111.178,37.9116 99.2125,22.5564 99.2125,22.5564 C99.2125,22.5564 52.1291,22.5564 52.1291,22.5564 C36.0416,22.5564 23,36.0629 23,52.7286 C23,52.7286 23,126.145 23,126.145 C23,142.81 36.0416,156.309 52.1291,156.309 C52.1291,156.309 99.2358,156.309 99.2358,156.309 C99.2358,156.309 111.178,171.631 111.178,171.631 C112.297,173.049 113.955,173.881 115.717,173.881 C115.717,173.881 160.894,173.881 160.894,173.881 C162.678,173.881 164.316,173.049 165.436,171.631 C165.436,171.631 177.377,156.309 177.377,156.309 C177.377,156.309 557.599,156.309 557.599,156.309 C557.599,156.309 593.321,156.309 593.321,156.309 C593.321,156.309 596.743,156.309 596.743,156.309 C612.83,156.309 625.871,142.81 625.871,126.145 C625.871,126.145 625.871,52.7286 625.871,52.7286 C625.893,36.0662 612.85,22.5564 596.763,22.5564 Z" style="stroke:none;fill-rule:evenodd;fill:#3cbec8;fill-opacity:1;"/>
        </g>
        <g id="Shape2">
            <desc shapeID="2" type="2" basicInfo-basicType="0" basicInfo-roundedRectRadius="12" basicInfo-polygonSides="6" basicInfo-starPoints="5" bounding="rect(-279.046,-29.3869,558.092,58.7738)" text="Beweeg vooruit" font-familyName="Gotham" font-pixelSize="68" font-bold="0" font-underline="0" font-alignment="1" strokeStyle="0" markerStart="0" markerEnd="0" shadowEnabled="0" shadowOffsetX="0" shadowOffsetY="2" shadowBlur="4" shadowOpacity="160" blurEnabled="0" blurRadius="4" transform="matrix(1,0,0,1,323.593,93.7611)" pers-center="0,0" pers-size="0,0" pers-start="0,0" pers-end="0,0" locked="0" mesh="" flag=""/>
            <path id="shapePath2" d="M64.8409,117.058 L85.9889,117.058 C96.3929,117.058 103.261,112.23 103.261,104.07 L103.261,103.934 C103.261,97.406 98.7049,94.142 93.0609,92.442 C96.8009,90.81 100.609,87.614 100.609,81.426 L100.609,81.29 C100.609,78.23 99.5209,75.714 97.5489,73.674 C94.8289,71.022 90.5449,69.458 85.1049,69.458 L64.8409,69.458 L64.8409,117.058 M70.1449,90.674 L70.1449,74.286 L84.6289,74.286 C91.4289,74.286 95.1689,77.346 95.1689,82.038 L95.1689,82.174 C95.1689,87.75 90.6809,90.674 84.2209,90.674 L70.1449,90.674 M70.1449,112.23 L70.1449,95.434 L85.1729,95.434 C93.4689,95.434 97.8209,98.426 97.8209,103.594 L97.8209,103.73 C97.8209,109.034 93.3329,112.23 86.1249,112.23 L70.1449,112.23 M116.179,101.622 L144.059,101.622 C144.127,100.806 144.127,100.262 144.127,99.786 C144.127,89.45 138.143,81.154 127.739,81.154 C118.015,81.154 110.875,89.314 110.875,99.514 C110.875,110.462 118.763,117.874 128.419,117.874 C135.083,117.874 139.367,115.222 142.903,111.278 L139.639,108.354 C136.783,111.346 133.383,113.318 128.555,113.318 C122.367,113.318 116.927,109.034 116.179,101.622 M116.179,97.406 C116.927,90.606 121.551,85.574 127.603,85.574 C134.539,85.574 138.211,91.014 138.823,97.406 L116.179,97.406 M160.914,117.33 L165.538,117.33 L175.058,89.586 L184.51,117.33 L189.066,117.33 L201.442,81.902 L196.002,81.902 L186.754,110.122 L177.234,81.766 L172.882,81.766 L163.43,110.122 L154.182,81.902 L148.606,81.902 L160.914,117.33 M211.569,101.622 L239.449,101.622 C239.517,100.806 239.517,100.262 239.517,99.786 C239.517,89.45 233.533,81.154 223.129,81.154 C213.405,81.154 206.265,89.314 206.265,99.514 C206.265,110.462 214.153,117.874 223.809,117.874 C230.473,117.874 234.757,115.222 238.293,111.278 L235.029,108.354 C232.173,111.346 228.773,113.318 223.945,113.318 C217.757,113.318 212.317,109.034 211.569,101.622 M211.569,97.406 C212.317,90.606 216.941,85.574 222.993,85.574 C229.929,85.574 233.601,91.014 234.213,97.406 L211.569,97.406 M251.819,101.622 L279.699,101.622 C279.767,100.806 279.767,100.262 279.767,99.786 C279.767,89.45 273.783,81.154 263.379,81.154 C253.655,81.154 246.515,89.314 246.515,99.514 C246.515,110.462 254.403,117.874 264.059,117.874 C270.723,117.874 275.007,115.222 278.543,111.278 L275.279,108.354 C272.423,111.346 269.023,113.318 264.195,113.318 C258.007,113.318 252.567,109.034 251.819,101.622 M251.819,97.406 C252.567,90.606 257.191,85.574 263.243,85.574 C270.179,85.574 273.851,91.014 274.463,97.406 L251.819,97.406 M304.513,128.074 C310.089,128.074 314.781,126.51 317.909,123.382 C320.765,120.526 322.397,116.378 322.397,110.938 L322.397,81.902 L317.161,81.902 L317.161,88.226 C314.305,84.418 310.021,81.154 303.425,81.154 C295.061,81.154 286.901,87.478 286.901,97.746 L286.901,97.882 C286.901,108.014 294.993,114.338 303.425,114.338 C309.885,114.338 314.169,111.006 317.229,106.926 L317.229,111.074 C317.229,119.302 312.197,123.586 304.445,123.586 C299.413,123.586 294.925,122.022 290.913,119.098 L288.533,123.178 C293.225,126.442 298.665,128.074 304.513,128.074 M304.445,109.714 C297.917,109.714 292.273,104.818 292.273,97.746 L292.273,97.61 C292.273,90.402 297.781,85.778 304.445,85.778 C311.109,85.778 317.365,90.47 317.365,97.678 L317.365,97.814 C317.365,104.886 311.109,109.714 304.445,109.714 M366.237,117.33 L370.861,117.33 L386.161,81.902 L380.517,81.902 L368.617,111.074 L356.785,81.902 L351.005,81.902 L366.237,117.33 M408.396,117.874 C419.004,117.874 426.824,109.442 426.824,99.514 L426.824,99.378 C426.824,89.45 419.072,81.154 408.531,81.154 C397.924,81.154 390.172,89.586 390.172,99.514 L390.172,99.65 C390.172,109.578 397.856,117.874 408.396,117.874 M408.531,113.182 C401.12,113.182 395.544,107.062 395.544,99.514 L395.544,99.378 C395.544,91.966 400.78,85.778 408.396,85.778 C415.807,85.778 421.452,91.966 421.452,99.514 L421.452,99.65 C421.452,107.062 416.148,113.182 408.531,113.182 M452.317,117.874 C462.925,117.874 470.745,109.442 470.745,99.514 L470.745,99.378 C470.745,89.45 462.993,81.154 452.453,81.154 C441.845,81.154 434.093,89.586 434.093,99.514 L434.093,99.65 C434.093,109.578 441.777,117.874 452.317,117.874 M452.453,113.182 C445.041,113.182 439.465,107.062 439.465,99.514 L439.465,99.378 C439.465,91.966 444.701,85.778 452.317,85.778 C459.729,85.778 465.373,91.966 465.373,99.514 L465.373,99.65 C465.373,107.062 460.069,113.182 452.453,113.182 M480.191,117.058 L485.427,117.058 L485.427,103.05 C485.427,92.442 491.683,86.934 499.367,86.934 L499.775,86.934 L499.775,81.29 C493.111,81.018 488.011,85.234 485.427,91.082 L485.427,81.902 L480.191,81.902 L480.191,117.058 M520.643,117.806 C526.695,117.806 530.299,114.746 532.679,110.938 L532.679,117.058 L537.846,117.058 L537.846,81.902 L532.679,81.902 L532.679,102.03 C532.679,108.626 528.122,113.046 522.139,113.046 C515.951,113.046 512.414,108.966 512.414,102.438 L512.414,81.902 L507.179,81.902 L507.179,103.73 C507.179,112.094 512.143,117.806 520.643,117.806 M549.734,74.218 L555.718,74.218 L555.718,68.438 L549.734,68.438 L549.734,74.218 M550.073,117.058 L555.31,117.058 L555.31,81.902 L550.073,81.902 L550.073,117.058 M579.237,117.67 C581.753,117.67 583.724,117.126 585.561,116.174 L585.561,111.686 C583.724,112.57 582.229,112.91 580.461,112.91 C576.924,112.91 574.544,111.346 574.544,107.062 L574.544,86.526 L585.697,86.526 L585.697,81.902 L574.544,81.902 L574.544,71.294 L569.309,71.294 L569.309,81.902 L564.412,81.902 L564.412,86.526 L569.309,86.526 L569.309,107.742 C569.309,114.882 573.593,117.67 579.237,117.67 Z" style="stroke:none;fill-rule:nonzero;fill:#ffffff;fill-opacity:1;"/>
        </g>
        <g id="Shape3">
            <desc shapeID="3" type="0" basicInfo-basicType="0" basicInfo-roundedRectRadius="12" basicInfo-polygonSides="6" basicInfo-starPoints="5" bounding="rect(-164.12,-41.1953,328.239,82.3905)" text="" font-familyName="" font-pixelSize="20" font-bold="0" font-underline="0" font-alignment="1" strokeStyle="0" markerStart="0" markerEnd="0" shadowEnabled="0" shadowOffsetX="0" shadowOffsetY="2" shadowBlur="4" shadowOpacity="160" blurEnabled="0" blurRadius="4" transform="matrix(1.83668,0,0,1.83668,324.435,359)" pers-center="0,0" pers-size="0,0" pers-start="0,0" pers-end="0,0" locked="0" mesh="" flag=""/>
            <path id="shapePath3" d="M596.763,283.338 C596.763,283.338 593.321,283.338 593.321,283.338 C593.321,283.338 557.599,283.338 557.599,283.338 C557.599,283.338 177.399,283.338 177.399,283.338 C177.399,283.338 165.436,298.693 165.436,298.693 C164.316,300.114 162.657,300.94 160.894,300.94 C160.894,300.94 115.717,300.94 115.717,300.94 C113.955,300.94 112.297,300.114 111.178,298.693 C111.178,298.693 99.2125,283.338 99.2125,283.338 C99.2125,283.338 52.1291,283.338 52.1291,283.338 C36.0416,283.338 23,296.844 23,313.51 C23,313.51 23,386.926 23,386.926 C23,403.591 36.0416,417.09 52.1291,417.09 C52.1291,417.09 99.2358,417.09 99.2358,417.09 C99.2358,417.09 111.178,432.413 111.178,432.413 C112.297,433.831 113.955,434.663 115.717,434.663 C115.717,434.663 160.894,434.663 160.894,434.663 C162.678,434.663 164.316,433.831 165.436,432.413 C165.436,432.413 177.377,417.09 177.377,417.09 C177.377,417.09 557.599,417.09 557.599,417.09 C557.599,417.09 593.321,417.09 593.321,417.09 C593.321,417.09 596.743,417.09 596.743,417.09 C612.83,417.09 625.871,403.591 625.871,386.926 C625.871,386.926 625.871,313.51 625.871,313.51 C625.893,296.847 612.85,283.338 596.763,283.338 Z" style="stroke:none;fill-rule:evenodd;fill:#3cbec8;fill-opacity:1;"/>
        </g>
        <g id="Shape4">
            <desc shapeID="4" type="2" basicInfo-basicType="0" basicInfo-roundedRectRadius="12" basicInfo-polygonSides="6" basicInfo-starPoints="5" bounding="rect(-279.046,-29.3869,558.092,58.7738)" text="Beweeg vooruit" font-familyName="Gotham" font-pixelSize="68" font-bold="0" font-underline="0" font-alignment="1" strokeStyle="0" markerStart="0" markerEnd="0" shadowEnabled="0" shadowOffsetX="0" shadowOffsetY="2" shadowBlur="4" shadowOpacity="160" blurEnabled="0" blurRadius="4" transform="matrix(1,0,0,1,317.491,354.505)" pers-center="0,0" pers-size="0,0" pers-start="0,0" pers-end="0,0" locked="0" mesh="" flag=""/>
            <path id="shapePath4" d="M58.7384,377.802 L79.8864,377.802 C90.2904,377.802 97.1584,372.974 97.1584,364.814 L97.1584,364.678 C97.1584,358.15 92.6024,354.886 86.9584,353.186 C90.6984,351.554 94.5064,348.358 94.5064,342.17 L94.5064,342.034 C94.5064,338.974 93.4184,336.458 91.4464,334.418 C88.7264,331.766 84.4424,330.202 79.0024,330.202 L58.7384,330.202 L58.7384,377.802 M64.0424,351.418 L64.0424,335.03 L78.5264,335.03 C85.3264,335.03 89.0664,338.09 89.0664,342.782 L89.0664,342.918 C89.0664,348.494 84.5784,351.418 78.1184,351.418 L64.0424,351.418 M64.0424,372.974 L64.0424,356.178 L79.0704,356.178 C87.3664,356.178 91.7184,359.17 91.7184,364.338 L91.7184,364.474 C91.7184,369.778 87.2304,372.974 80.0224,372.974 L64.0424,372.974 M110.076,362.366 L137.956,362.366 C138.024,361.55 138.024,361.006 138.024,360.53 C138.024,350.194 132.04,341.898 121.636,341.898 C111.912,341.898 104.772,350.058 104.772,360.258 C104.772,371.206 112.66,378.618 122.316,378.618 C128.98,378.618 133.264,375.966 136.8,372.022 L133.536,369.098 C130.68,372.09 127.28,374.062 122.452,374.062 C116.264,374.062 110.824,369.778 110.076,362.366 M110.076,358.15 C110.824,351.35 115.448,346.318 121.5,346.318 C128.436,346.318 132.108,351.758 132.72,358.15 L110.076,358.15 M154.811,378.074 L159.435,378.074 L168.955,350.33 L178.407,378.074 L182.963,378.074 L195.339,342.646 L189.899,342.646 L180.651,370.866 L171.131,342.51 L166.779,342.51 L157.327,370.866 L148.079,342.646 L142.503,342.646 L154.811,378.074 M205.467,362.366 L233.347,362.366 C233.415,361.55 233.415,361.006 233.415,360.53 C233.415,350.194 227.431,341.898 217.027,341.898 C207.303,341.898 200.163,350.058 200.163,360.258 C200.163,371.206 208.051,378.618 217.707,378.618 C224.371,378.618 228.655,375.966 232.191,372.022 L228.927,369.098 C226.071,372.09 222.671,374.062 217.843,374.062 C211.655,374.062 206.215,369.778 205.467,362.366 M205.467,358.15 C206.215,351.35 210.839,346.318 216.891,346.318 C223.827,346.318 227.499,351.758 228.111,358.15 L205.467,358.15 M245.717,362.366 L273.597,362.366 C273.665,361.55 273.665,361.006 273.665,360.53 C273.665,350.194 267.681,341.898 257.277,341.898 C247.553,341.898 240.413,350.058 240.413,360.258 C240.413,371.206 248.301,378.618 257.957,378.618 C264.621,378.618 268.905,375.966 272.441,372.022 L269.177,369.098 C266.321,372.09 262.921,374.062 258.093,374.062 C251.905,374.062 246.465,369.778 245.717,362.366 M245.717,358.15 C246.465,351.35 251.089,346.318 257.141,346.318 C264.077,346.318 267.749,351.758 268.361,358.15 L245.717,358.15 M298.411,388.818 C303.987,388.818 308.679,387.254 311.807,384.126 C314.663,381.27 316.295,377.122 316.295,371.682 L316.295,342.646 L311.059,342.646 L311.059,348.97 C308.203,345.162 303.919,341.898 297.323,341.898 C288.959,341.898 280.799,348.222 280.799,358.49 L280.799,358.626 C280.799,368.758 288.891,375.082 297.323,375.082 C303.783,375.082 308.067,371.75 311.127,367.67 L311.127,371.818 C311.127,380.046 306.095,384.33 298.343,384.33 C293.311,384.33 288.823,382.766 284.811,379.842 L282.431,383.922 C287.123,387.186 292.563,388.818 298.411,388.818 M298.343,370.458 C291.815,370.458 286.171,365.562 286.171,358.49 L286.171,358.354 C286.171,351.146 291.679,346.522 298.343,346.522 C305.007,346.522 311.263,351.214 311.263,358.422 L311.263,358.558 C311.263,365.63 305.007,370.458 298.343,370.458 M360.134,378.074 L364.758,378.074 L380.058,342.646 L374.414,342.646 L362.514,371.818 L350.682,342.646 L344.902,342.646 L360.134,378.074 M402.293,378.618 C412.901,378.618 420.721,370.186 420.721,360.258 L420.721,360.122 C420.721,350.194 412.969,341.898 402.429,341.898 C391.821,341.898 384.069,350.33 384.069,360.258 L384.069,360.394 C384.069,370.322 391.753,378.618 402.293,378.618 M402.429,373.926 C395.017,373.926 389.441,367.806 389.441,360.258 L389.441,360.122 C389.441,352.71 394.677,346.522 402.293,346.522 C409.705,346.522 415.349,352.71 415.349,360.258 L415.349,360.394 C415.349,367.806 410.045,373.926 402.429,373.926 M446.215,378.618 C456.823,378.618 464.643,370.186 464.643,360.258 L464.643,360.122 C464.643,350.194 456.891,341.898 446.351,341.898 C435.743,341.898 427.991,350.33 427.991,360.258 L427.991,360.394 C427.991,370.322 435.675,378.618 446.215,378.618 M446.351,373.926 C438.939,373.926 433.363,367.806 433.363,360.258 L433.363,360.122 C433.363,352.71 438.599,346.522 446.215,346.522 C453.627,346.522 459.271,352.71 459.271,360.258 L459.271,360.394 C459.271,367.806 453.967,373.926 446.351,373.926 M474.089,377.802 L479.325,377.802 L479.325,363.794 C479.325,353.186 485.581,347.678 493.265,347.678 L493.673,347.678 L493.673,342.034 C487.009,341.762 481.909,345.978 479.325,351.826 L479.325,342.646 L474.089,342.646 L474.089,377.802 M514.54,378.55 C520.592,378.55 524.196,375.49 526.576,371.682 L526.576,377.802 L531.744,377.802 L531.744,342.646 L526.576,342.646 L526.576,362.774 C526.576,369.37 522.02,373.79 516.036,373.79 C509.848,373.79 506.312,369.71 506.312,363.182 L506.312,342.646 L501.076,342.646 L501.076,364.474 C501.076,372.838 506.04,378.55 514.54,378.55 M543.631,334.962 L549.615,334.962 L549.615,329.182 L543.631,329.182 L543.631,334.962 M543.971,377.802 L549.207,377.802 L549.207,342.646 L543.971,342.646 L543.971,377.802 M573.134,378.414 C575.65,378.414 577.622,377.87 579.458,376.918 L579.458,372.43 C577.622,373.314 576.126,373.654 574.358,373.654 C570.822,373.654 568.442,372.09 568.442,367.806 L568.442,347.27 L579.594,347.27 L579.594,342.646 L568.442,342.646 L568.442,332.038 L563.206,332.038 L563.206,342.646 L558.31,342.646 L558.31,347.27 L563.206,347.27 L563.206,368.486 C563.206,375.626 567.49,378.414 573.134,378.414 Z" style="stroke:none;fill-rule:nonzero;fill:#ffffff;fill-opacity:1;"/>
        </g>
    </g>
</svg>
